<svg width="188" height="36" viewBox="0 0 188 36" fill="none" xmlns="http://www.w3.org/2000/svg">
<path fill-rule="evenodd" clip-rule="evenodd" d="M36.4184 11.9201C36.4184 11.8376 36.3777 11.7959 36.2932 11.7959L36.1693 11.9201C36.1693 12.004 36.2118 12.0457 36.2932 12.0457C36.3777 12.0457 36.4184 12.004 36.4184 11.9201ZM35.3007 13.1662C35.2577 13.2093 35.2198 13.2588 35.1878 13.3134C34.8531 13.1424 34.684 12.8697 34.684 12.4953C34.518 12.163 34.4344 11.8307 34.4344 11.4984C34.4083 11.4984 34.3791 11.5076 34.3457 11.5232V10.7578H37.4909V28.9647H34.3457V18.9291L35.4292 20.3411C35.676 20.3411 35.8013 20.216 35.8013 19.9671C35.8013 19.5533 35.5928 19.221 35.1791 18.9698L34.3457 18.7618V15.5055C34.465 15.5742 34.6182 15.6081 34.8065 15.6081H35.0561C35.2207 15.6081 35.3039 15.5256 35.3039 15.3593V13.8688C35.4676 13.7992 35.5489 13.6479 35.5489 13.4151C35.5489 13.3326 35.5073 13.2895 35.4237 13.2895L35.3007 13.1662ZM39.6469 12.169L39.3991 11.6717C39.2331 12.004 39.1092 12.2945 39.027 12.542C38.9433 12.6268 38.9017 12.916 38.9017 13.4151H39.1495V13.2895C39.1495 13.207 39.2331 13.0824 39.3991 12.916C39.3991 12.5851 39.4814 12.3349 39.6469 12.169ZM38.7819 12.993H38.658V13.1172C38.7403 13.1172 38.7819 13.0769 38.7819 12.993ZM43.0046 15.7323H42.3843C42.3843 15.8987 42.4666 16.0651 42.6325 16.2314C42.8817 16.1476 43.0046 15.9812 43.0046 15.7323ZM43.1299 14.1136H43.0046C42.7564 14.1136 42.6325 14.2795 42.6325 14.6122C42.964 14.6122 43.2122 14.4866 43.3777 14.2391L43.1299 14.1136ZM40.7692 12.4953L40.3961 12.3711V13.3665C40.5616 13.3665 40.6453 13.2432 40.6453 12.993C40.7276 12.911 40.7692 12.7446 40.7692 12.4953ZM36.0495 12.993C36.0495 13.3253 36.1734 13.658 36.4216 13.9907C36.5876 14.3226 36.7531 14.5714 36.919 14.7378H37.2925C37.2925 14.3226 37.1673 13.9069 36.919 13.4916C36.8358 13.1594 36.5469 12.993 36.0495 12.993ZM40.2864 19.8246H38.1291V22.6093H41.2757C41.5692 22.6047 41.8686 22.5268 42.1713 22.3774C42.4803 22.2257 42.7633 22.0291 43.0248 21.783C43.2863 21.5378 43.4952 21.2605 43.6543 20.9653C43.8197 20.6716 43.9025 20.3695 43.9043 20.0725V13.2941C43.9025 13.0278 43.8371 12.7616 43.705 12.4953H42.8817C42.7157 12.7446 42.5909 12.8688 42.5082 12.8688C42.3427 12.8688 42.1767 12.7849 42.0113 12.6186C41.8453 12.6186 41.7639 12.4953 41.7639 12.2455C41.7639 11.9971 41.8453 11.7899 42.0113 11.624C42.0113 11.3752 42.1767 11.2496 42.5082 11.2496L42.6234 11.2528C42.4775 11.151 42.329 11.0617 42.1713 10.9874C41.8686 10.8394 41.5692 10.761 41.2757 10.7578H38.1291V13.5164H40.7591V13.6204L41.2665 13.3665L41.0183 13.8652C41.0183 14.1136 40.9351 14.3226 40.7692 14.4866L40.7591 14.477V19.7577C40.9529 19.8608 41.1212 20.0295 41.2624 20.2646H41.0133C40.5982 20.2646 40.3541 20.1175 40.2864 19.8246Z" fill="white"/>
<path fill-rule="evenodd" clip-rule="evenodd" d="M47.7545 10.7578H44.4552C44.4152 10.7904 44.3836 10.8302 44.3594 10.8765L45.3079 14.6686C45.3972 14.7712 45.4418 14.9197 45.4418 15.1109L45.4376 15.1842L45.6129 15.8872C45.7231 15.8176 45.8319 15.7809 45.9421 15.7809H46.069C46.069 15.9473 45.9421 16.0298 45.6901 16.0298H45.6482L47.9288 25.1451L49.3051 18.2723L47.7545 10.7578ZM47.8372 16.2786H47.7108V16.6517C47.7959 16.6517 47.8372 16.5284 47.8372 16.2786ZM50.4935 17.726C50.3252 17.726 50.2425 17.8085 50.2425 17.9744C50.2425 18.1408 50.3252 18.2233 50.4935 18.2233C50.5796 18.1408 50.6209 18.0583 50.6209 17.9744L50.4935 17.726ZM46.3252 11.6236V11.7482C46.3252 11.9141 46.4098 12.0805 46.5786 12.2455L46.7037 12.7441L47.2096 12.3711C47.0408 12.2047 46.8725 12.059 46.7037 11.9343C46.5349 11.8101 46.4098 11.7074 46.3252 11.6236ZM53.4679 14.812L53.3405 14.6865C53.2568 14.6865 53.2154 14.7286 53.2154 14.812H53.4679ZM50.309 22.0337C50.309 22.2 50.4773 22.4498 50.8148 22.7807C50.899 23.1134 50.9836 23.2798 51.0673 23.2798C51.3207 23.2798 51.4458 23.1134 51.4458 22.7807C51.5304 22.5323 51.5936 22.3458 51.635 22.2202C51.6783 22.0969 51.6992 22.0337 51.6992 22.0337C51.6992 21.8687 51.5732 21.7023 51.3207 21.5364C51.1524 21.37 51.0673 21.2458 51.0673 21.1629C50.8148 21.1629 50.6461 21.3292 50.5624 21.6606C50.4773 21.8265 50.4145 21.9305 50.3731 21.9713C50.3299 22.0135 50.309 22.0337 50.309 22.0337ZM50.8148 20.1656H50.9418C51.1105 20.1656 51.1933 20.2912 51.1933 20.5391V20.6642C51.1933 20.8306 51.277 20.9131 51.4458 20.9131H51.6992C51.7829 20.8306 51.9103 20.6234 52.079 20.2912C52.2478 19.9589 52.3311 19.7925 52.3311 19.7925C52.3311 19.5437 52.2478 19.336 52.079 19.1697C51.994 19.2535 51.9516 19.3777 51.9516 19.5437C51.9516 19.71 51.868 19.8764 51.6992 20.0423L51.3207 19.7925L51.0673 19.5437H50.9418C50.6047 19.5437 50.3936 19.71 50.309 20.0423C50.1402 20.5391 50.0565 20.7481 50.0565 20.6642H50.309L50.8148 20.1656ZM52.079 14.812L51.6992 16.6801C51.7829 16.7626 51.8252 16.9693 51.8252 17.3016V17.676C51.8252 17.9235 51.994 18.0496 52.3311 18.0496C52.4998 18.0496 52.71 17.8832 52.962 17.5509C53.0471 17.2196 53.1717 17.0532 53.3405 17.0532V16.9285C53.2568 16.846 53.2154 16.7626 53.2154 16.6801H52.962C52.8783 16.7626 52.7932 16.8029 52.71 16.8029L52.3311 17.0532C52.4998 16.5545 52.5835 16.1407 52.5835 15.8084C52.5835 15.4757 52.5412 15.2676 52.4575 15.1856C52.3724 15.1017 52.3311 14.9784 52.3311 14.812H52.079ZM45.9054 26.1818V28.9647H48.5286C48.8443 28.9615 49.1494 28.8799 49.4404 28.7149C49.7366 28.5545 50.0081 28.3455 50.2587 28.0866C50.5028 27.8272 50.7163 27.549 50.886 27.2479C51.0613 26.95 51.1817 26.6612 51.2542 26.378L54.8283 10.7578H53.1684L53.2154 10.8266C53.2154 10.9104 53.1717 10.9929 53.0894 11.0763H52.962C52.8783 11.0763 52.8369 10.9929 52.8369 10.8266V10.7578H51.4044L51.2128 11.7253L51.7573 12.3711L51.3788 12.7441C51.3049 12.7441 51.1942 12.6786 51.051 12.5452L50.309 16.2979V16.5545H50.2587L48.3547 26.1818H45.9054Z" fill="white"/>
<path fill-rule="evenodd" clip-rule="evenodd" d="M59.6729 26.1806H59.1374V26.3749C59.285 26.2823 59.4624 26.2177 59.6729 26.1806ZM62.6181 28.9632C62.9189 28.9756 63.2235 28.9101 63.5327 28.7598C63.8442 28.6067 64.1338 28.4055 64.4002 28.1466C64.6665 27.8909 64.8802 27.6118 65.0418 27.3121C65.2099 27.0096 65.2923 26.7131 65.297 26.4249V25.5441C65.1079 25.611 64.9459 25.8108 64.8099 26.143V27.0137C64.8099 27.0971 64.7894 27.1595 64.748 27.2003C64.7056 27.2424 64.6851 27.346 64.6851 27.5123C64.5161 27.5123 64.4314 27.6379 64.4314 27.8858H63.1662C63.25 27.8858 63.3352 27.845 63.419 27.7612C63.6719 27.6787 63.799 27.5948 63.799 27.5123C63.799 27.4285 63.7157 27.3057 63.5462 27.1393L62.9124 27.2635C62.7443 27.4285 62.6181 27.5123 62.5334 27.5123C62.5334 26.9312 62.2805 26.6407 61.7739 26.6407C62.0277 26.226 62.4491 25.9771 63.04 25.8937C63.7157 25.7274 64.1357 25.5193 64.3047 25.2705C64.3047 24.9382 64.3475 24.6907 64.4314 24.5244C64.4314 24.1092 64.5571 23.9002 64.8099 23.9002V25.0207H65.297V21.646H64.6851V21.6597H64.4314V21.646H62.0668V26.1806H60.1288C60.1162 26.6554 59.8638 26.9335 59.3707 27.0137C59.5392 27.1801 59.6235 27.346 59.6235 27.5123H59.1374V28.9632H59.5923L59.4959 27.8858L59.7511 27.7612V28.9632H59.8857L59.8764 28.7584L60.4999 28.9632H62.6181ZM57.9621 10.7578C57.6566 10.761 57.3488 10.8357 57.0354 10.9833C56.7239 11.1295 56.4343 11.3274 56.1726 11.5735C55.9095 11.8146 55.6958 12.0914 55.5337 12.3865C55.3721 12.6849 55.2879 12.9869 55.2832 13.2934V26.4249C55.2879 26.7301 55.3721 27.0344 55.5337 27.3341C55.6958 27.6292 55.9095 27.9 56.1726 28.1466C56.4343 28.3931 56.7239 28.5888 57.0354 28.7382C57.3488 28.8862 57.6566 28.9596 57.9621 28.9632H58.4887V16.5463C58.1139 16.5018 57.7758 16.2576 57.4732 15.808C57.0503 15.144 56.8389 14.7278 56.8389 14.5615C57.5146 14.5615 57.9784 14.7278 58.2322 15.0606C58.3411 15.2393 58.4263 15.4322 58.4887 15.6416V10.7578H57.9621ZM62.8412 13.4144C62.7559 13.4144 62.715 13.4983 62.715 13.6628C62.715 13.7467 62.7559 13.7875 62.8412 13.7875C62.925 13.7875 62.9674 13.7467 62.9674 13.6628C62.9674 13.4983 62.925 13.4144 62.8412 13.4144ZM61.6486 28.7584H61.3935C61.3935 28.8409 61.4372 28.8817 61.521 28.8817C61.6063 28.8817 61.6486 28.8409 61.6486 28.7584ZM55.9542 25.0207V25.2705C56.038 25.2705 56.0804 25.2297 56.0804 25.1463C56.0804 25.0633 56.038 25.0207 55.9542 25.0207ZM57.2189 16.5541C57.1351 16.4725 57.0503 16.4299 56.9665 16.4299C56.8827 16.4299 56.8389 16.4725 56.8389 16.5541C56.8389 16.6389 56.8827 16.6796 56.9665 16.6796C57.0503 16.6796 57.1351 16.6389 57.2189 16.5541ZM55.828 14.1875C55.659 14.1875 55.5752 14.2714 55.5752 14.4373C55.5752 14.5202 55.659 14.5615 55.828 14.5615C55.9118 14.5615 55.9542 14.5202 55.9542 14.4373L55.828 14.1875ZM57.5979 27.8858C57.4294 27.8858 57.3456 27.9683 57.3456 28.1347C57.3456 28.3006 57.4294 28.3844 57.5979 28.3844C57.6832 28.3006 57.7255 28.2181 57.7255 28.1347L57.5979 27.8858ZM64.0505 13.8145C63.8842 13.8145 63.799 13.8984 63.799 14.0643C63.799 14.2306 63.8842 14.3131 64.0505 14.3131C64.1357 14.3131 64.1785 14.2306 64.1785 14.0643C64.1785 13.8984 64.1357 13.8145 64.0505 13.8145ZM58.2322 25.2705C58.0631 25.2705 57.9784 25.353 57.9784 25.5193C57.9784 25.6852 58.0631 25.7681 58.2322 25.7681C58.316 25.7681 58.3574 25.6852 58.3574 25.5193C58.3574 25.353 58.316 25.2705 58.2322 25.2705ZM56.8389 27.3868V27.5123C56.9251 27.5123 56.9665 27.5536 56.9665 27.6379C57.0503 27.7195 57.1351 27.7612 57.2189 27.7612H57.3456L57.5979 27.3868L57.2189 27.1393C57.1351 27.1393 57.0936 27.1801 57.0936 27.2635C57.0075 27.346 56.9251 27.3868 56.8389 27.3868ZM55.9542 20.0415L55.5752 20.1648C55.828 20.4971 56.0804 20.6634 56.3346 20.6634V20.2904C56.1656 20.1245 56.038 20.0415 55.9542 20.0415ZM63.04 11.6982C62.7871 11.6982 62.6596 11.8641 62.6596 12.1963H63.419C63.419 11.8641 63.2924 11.6982 63.04 11.6982ZM57.9784 17.7997C57.9784 18.2149 58.0631 18.5063 58.2322 18.6704C58.2322 18.3404 58.2736 18.0888 58.3574 17.9229C58.4422 17.8414 58.485 17.675 58.485 17.4266V17.0527C58.2322 17.0527 58.1046 17.1352 58.1046 17.3011C58.0208 17.3849 57.9784 17.5499 57.9784 17.7997ZM65.297 13.2934C65.2923 12.9951 65.2099 12.6963 65.0418 12.3989C64.8802 12.0983 64.6665 11.8283 64.4002 11.5818C64.1338 11.3352 63.8442 11.1331 63.5327 10.9869C63.2235 10.8389 62.9189 10.761 62.6181 10.7578H59.1374V13.5157H62.0668V17.2108H65.297V14.8113H65.1904C65.1904 14.6591 65.2258 14.5775 65.297 14.5642V14.3186C65.2458 14.4804 65.0823 14.5615 64.8099 14.5615C64.8099 14.1468 64.8537 13.8984 64.9375 13.8145C64.9375 13.6271 65.0572 13.5107 65.297 13.4644V13.2934Z" fill="white"/>
<path fill-rule="evenodd" clip-rule="evenodd" d="M73.9967 28.9632C74.297 28.9756 74.6035 28.9101 74.9104 28.7598C75.2252 28.6072 75.5126 28.4055 75.7776 28.1466C76.0453 27.8913 76.2605 27.6118 76.4212 27.3121C76.5888 27.0096 76.6727 26.7131 76.6759 26.4249V21.646H75.6802L75.6849 21.7839V22.2825C75.4311 22.0327 75.0091 21.9095 74.4186 21.9095L74.7241 21.646H73.4462V26.1806H70.5178V28.9632H73.9967ZM69.34 10.7578C69.0373 10.761 68.7271 10.8357 68.4132 10.9837C68.1016 11.1295 67.8134 11.3274 67.5502 11.574C67.2927 11.81 67.0836 12.0818 66.9206 12.3709L67.458 11.947C67.7132 11.947 67.8385 12.0304 67.8385 12.1968V12.3201C67.8385 12.6523 67.6708 12.8604 67.3327 12.9438C67.0789 13.0936 66.8554 13.1986 66.6621 13.2586V13.2934V18.5178C66.7716 18.6525 66.8265 18.7859 66.8265 18.9201V19.169C66.7576 19.1012 66.7036 19.0343 66.6621 18.9669V24.4002L66.7003 24.3993C66.7003 24.5345 66.6873 24.6339 66.6621 24.6953V26.4249C66.6654 26.7301 66.7497 27.0344 66.9117 27.3341C67.0757 27.6292 67.2885 27.9 67.5502 28.1466C67.8134 28.3931 68.1016 28.5893 68.4132 28.7382C68.7271 28.8867 69.0373 28.96 69.34 28.9632H69.8667V20.4659C69.7736 20.432 69.6459 20.415 69.4843 20.415H69.2315C69.3074 20.1909 69.5183 20.0704 69.8667 20.0461V10.7578H69.34ZM74.6012 12.2939V12.7926H74.854C74.854 12.6267 74.7702 12.4603 74.6012 12.2939ZM72.4505 11.2981C72.2814 11.2981 72.1967 11.3806 72.1967 11.547C72.1967 11.6304 72.2814 11.6712 72.4505 11.6712C72.5343 11.6712 72.5758 11.6304 72.5758 11.547L72.4505 11.2981ZM66.7003 18.0485H66.8265V17.9229H66.7003V18.0485ZM67.9647 15.5592L67.8385 15.434V15.6824C67.9233 15.6824 67.9647 15.6416 67.9647 15.5592ZM76.3178 15.0606H75.8111L76.0649 15.3094L76.3178 15.0606ZM67.7132 20.415H67.458C67.458 20.5809 67.5856 20.6634 67.8385 20.6634H68.0923C67.9233 20.4971 67.7961 20.415 67.7132 20.415ZM68.9776 12.1968C68.9776 12.1129 68.8524 12.0712 68.5981 12.0712C68.3452 12.0712 68.2176 12.1129 68.2176 12.1968C68.2176 12.2793 68.3452 12.3201 68.5981 12.3201C68.7671 12.3201 68.8934 12.2793 68.9776 12.1968ZM69.4843 17.0527C68.9776 17.0527 68.5143 17.3849 68.0923 18.049C67.8385 18.7135 67.458 19.2107 66.9536 19.5429H68.0923L69.8644 17.9229C69.7805 17.8414 69.7368 17.6755 69.7368 17.4266C69.6529 17.2607 69.5896 17.1553 69.5472 17.1145C69.5044 17.0738 69.4843 17.0527 69.4843 17.0527ZM76.6759 13.2934C76.6727 12.9951 76.5888 12.6963 76.4212 12.3989C76.2605 12.0983 76.0453 11.8283 75.7776 11.5818C75.5126 11.3352 75.2252 11.1331 74.9104 10.9869C74.6035 10.8394 74.297 10.761 73.9967 10.7578H70.5178V13.5157H73.4462V14.9286L73.5328 14.9354C73.7019 14.9354 73.7866 14.8942 73.7866 14.8117C73.7866 14.562 73.9128 14.4378 74.1671 14.4378V14.8117C74.1671 14.9781 74.0819 15.1444 73.9128 15.3094C74.1671 15.3094 74.3771 15.434 74.5462 15.6824C74.3771 15.9322 74.1243 16.181 73.7866 16.4299C73.6623 16.5032 73.5486 16.5664 73.4462 16.6173V17.2108H76.6759V13.2934Z" fill="white"/>
<path fill-rule="evenodd" clip-rule="evenodd" d="M85.8171 28.9647H88.967L88.096 26.8799C88.0248 27.0366 87.8783 27.1136 87.6533 27.1136C87.6533 26.7813 87.6944 26.5732 87.7768 26.4894C87.7958 26.4128 87.8188 26.3445 87.8472 26.285L86.5691 23.2276L86.4979 23.1542L86.5411 23.1611L84.9209 19.282L86.3811 15.5875C86.3933 15.4771 86.4275 15.3877 86.4843 15.3231L87.6434 12.3922L87.3544 12.1969C87.4108 12.1392 87.5645 12.0635 87.8111 11.9687L88.2894 10.7578H85.2834L84.7618 12.1447C85.1833 12.0035 85.3956 11.6451 85.3956 11.0763C85.6404 11.0763 85.8848 11.2835 86.1309 11.6983C86.4577 12.0305 86.62 12.4036 86.62 12.8188V13.1928C86.62 13.5256 86.4577 13.6919 86.1309 13.6919C85.6404 13.6919 85.2324 13.6081 84.9056 13.4417L84.2979 13.3807L83.9963 14.1837C84.1247 14.1044 84.265 14.0645 84.4151 14.0645L84.5381 14.1878V14.3134H84.4151V14.6865L84.1703 15.1856V15.8084C84.1703 16.1407 83.9665 16.3071 83.5581 16.3071L83.3124 16.5545C83.8854 16.8868 84.1703 17.3438 84.1703 17.9235V18.0496C83.843 17.8832 83.5382 17.7168 83.2515 17.5509C83.1099 17.4689 82.963 17.3955 82.812 17.3346L82.2295 18.886V20.8338L83.4282 23.552C83.6784 23.6089 83.8029 23.767 83.8029 24.0273C83.8029 23.8587 83.7663 23.9004 83.692 24.1479L85.8171 28.9647ZM86.1832 28.2342C86.2643 28.3167 86.3063 28.357 86.3063 28.357C86.3879 28.357 86.469 28.3992 86.5511 28.4826L86.7959 28.7319H87.0416V27.8611C86.7959 27.8611 86.6737 27.9014 86.6737 27.9844C86.51 28.0678 86.3879 28.1301 86.3063 28.1709C86.2242 28.2126 86.1832 28.2342 86.1832 28.2342ZM85.5169 17.0532C85.4357 17.0532 85.3956 17.0949 85.3956 17.1774C85.3956 17.2613 85.4357 17.3016 85.5169 17.3016V17.0532ZM81.2305 13.4417H81.1074C81.0272 13.4417 80.9861 13.4834 80.9861 13.5663V13.6919C81.1493 13.6919 81.2305 13.6081 81.2305 13.4417ZM81.1074 17.5509L81.2305 17.4272L81.1074 17.3016C81.0272 17.3016 80.9861 17.3438 80.9861 17.4272V17.5509H81.1074ZM79.2699 14.3134L78.9029 14.5623L79.2699 14.6865V14.3134ZM88.0893 11.0763H87.7228V11.3252H87.968C88.0496 11.2427 88.0893 11.1588 88.0893 11.0763ZM85.2725 14.6865C85.1089 14.6865 85.0286 14.7282 85.0286 14.812C85.0286 14.9784 85.1089 15.0609 85.2725 15.0609C85.3559 14.9784 85.3956 14.8945 85.3956 14.812L85.2725 14.6865ZM80.4952 13.8148C80.414 13.8148 80.373 13.8986 80.373 14.0645C80.373 14.2309 80.414 14.3134 80.4952 14.3134C80.5777 14.3134 80.6187 14.2309 80.6187 14.0645C80.6187 13.8986 80.5777 13.8148 80.4952 13.8148ZM79.5155 17.1774C79.3524 17.1774 79.2699 17.2613 79.2699 17.4272C79.2699 17.5097 79.3524 17.5509 79.5155 17.5509C79.5967 17.5509 79.6377 17.5097 79.6377 17.4272L79.5155 17.1774ZM80.7404 25.8949H80.9861V25.3963H80.7404V25.8949ZM84.4151 19.5437C84.2523 19.5437 84.1703 19.6275 84.1703 19.7925C84.1703 19.9589 84.2523 20.0423 84.4151 20.0423C84.4971 19.9589 84.5381 19.8764 84.5381 19.7925L84.4151 19.5437ZM79.6377 18.9208C79.6377 19.2535 79.8014 19.4185 80.1282 19.4185C80.1282 19.0872 79.965 18.9208 79.6377 18.9208ZM78.498 10.7578V11.9471H78.535C78.535 12.0383 78.5224 12.1176 78.498 12.1845V14.4866L78.535 14.5623C78.535 14.6072 78.521 14.6406 78.498 14.6608V15.5742C78.5436 15.522 78.5972 15.4757 78.6581 15.4344C78.9029 15.3515 79.0864 15.2882 79.2099 15.2474C79.3325 15.2066 79.3934 15.1856 79.3934 15.1856C79.3934 15.1856 79.3731 15.2474 79.3325 15.373C79.2924 15.4958 79.2297 15.6828 79.1486 15.9326C78.9854 16.3474 78.8213 16.5545 78.6581 16.5545C78.5972 16.5545 78.5436 16.5468 78.498 16.5307V28.9647H81.6001V23.7803L81.5979 23.7785L81.6001 23.7762V19.5414L81.5979 19.5437L81.4753 19.4185C81.3941 19.336 81.354 19.2535 81.354 19.1697C81.354 19.0523 81.4365 18.9753 81.6001 18.9414V16.6517C81.4365 16.3827 81.354 16.0174 81.354 15.5595C81.4509 15.5595 81.5321 15.5485 81.6001 15.5265V14.812H81.5979C81.354 14.812 81.1493 14.7282 80.9861 14.5623V14.3134H81.4753L81.6001 14.3111V12.8253L81.5979 12.8188L81.6001 12.812V10.7578H78.498Z" fill="white"/>
<path fill-rule="evenodd" clip-rule="evenodd" d="M92.1008 10.7578C91.7953 10.761 91.4875 10.8357 91.1723 10.9838C90.8626 11.13 90.573 11.3275 90.3099 11.5741C90.0468 11.8147 89.8354 12.092 89.6715 12.3871L89.6608 12.405V12.4458H89.6398C89.4992 12.7249 89.4256 13.0077 89.4219 13.2937V13.79L89.4633 13.7877C89.5471 13.7877 89.5886 13.8716 89.5886 14.0366C89.5886 14.2029 89.5471 14.2864 89.4633 14.2864L89.4219 14.2841V16.4303H90.0398C90.0398 16.6801 90.1664 16.8029 90.4202 16.8029L90.6731 16.1815C90.6731 16.099 90.5888 15.9743 90.4202 15.8084H90.0398V14.6865H90.5455L90.1664 14.812C90.1664 14.812 90.2088 14.8327 90.2926 14.8744C90.3774 14.9152 90.504 15.0192 90.6731 15.1856C91.0107 15.5178 91.2635 15.6828 91.4321 15.6828H91.5583C91.6421 15.6828 91.7273 15.642 91.8111 15.5595V15.9331C91.8111 16.2653 91.7697 16.4303 91.6835 16.4303H91.3045C91.2207 16.4303 91.0945 16.5138 90.9255 16.6801C91.0945 16.6801 91.2635 16.7626 91.4321 16.9285C91.6835 16.9285 91.8111 17.0532 91.8111 17.3016V17.4272C91.8111 17.5097 91.6835 17.676 91.4321 17.9235C91.8526 17.9235 92.1492 17.9666 92.3177 18.0496C92.4374 18.0496 92.5408 18.0596 92.6255 18.0798V17.0802L92.5706 17.0532L92.6255 16.9876V10.7578H92.1008ZM96.6753 22.7537L96.4201 22.5048V22.7537H96.6753ZM95.662 12.542V12.2945C95.4935 12.2945 95.324 12.3779 95.1568 12.542H95.662ZM92.2456 19.3915C92.1613 19.3915 92.1203 19.4763 92.1203 19.6399C92.1203 19.8063 92.1613 19.8901 92.2456 19.8901C92.3303 19.8901 92.3727 19.8063 92.3727 19.6399C92.3727 19.4763 92.3303 19.3915 92.2456 19.3915ZM96.4201 20.513C96.3372 20.513 96.2949 20.5964 96.2949 20.7618C96.2949 20.9268 96.3372 21.0116 96.4201 21.0116C96.5063 21.0116 96.5477 20.9268 96.5477 20.7618C96.5477 20.5964 96.5063 20.513 96.4201 20.513ZM98.5728 13.1662C98.2348 13.1662 98.0662 13.3322 98.0662 13.6631C98.4038 13.6631 98.5728 13.4985 98.5728 13.1662ZM96.6753 16.7773V17.1503C96.6753 17.4826 96.7577 17.649 96.9267 17.649H97.0543V17.3992C97.0543 16.984 96.9267 16.7773 96.6753 16.7773ZM89.7804 26.4C89.8214 26.4623 89.8847 26.5334 89.9676 26.6149H90.0952L90.3476 26.1163C90.4109 26.054 90.45 25.9683 90.4659 25.8596L90.5455 25.7694L90.4957 25.7208L90.6014 25.619L90.3476 25.246H90.0952C89.9667 25.3725 89.8708 25.5072 89.8079 25.6552C89.7232 25.6992 89.631 25.7377 89.5332 25.7694C89.4908 25.8111 89.4526 25.8587 89.4219 25.9119V19.078L89.6608 18.9208L89.4219 18.6857V16.8282C89.563 16.8859 89.7259 16.9601 89.9136 17.0532C90.4202 17.3016 90.6731 17.5097 90.6731 17.676C90.6731 18.0899 90.6302 18.3818 90.5455 18.5482C90.4612 18.7141 90.4202 19.0038 90.4202 19.4185L91.1792 18.9208H92.1902C92.3657 18.8915 92.5119 18.8534 92.6255 18.8044V28.9647H92.1008C91.7953 28.9615 91.4875 28.8882 91.1723 28.7397C90.8626 28.5907 90.573 28.3946 90.3099 28.148C90.0468 27.9014 89.8354 27.6306 89.6715 27.3354C89.5239 27.0627 89.4428 26.7859 89.4256 26.5077C89.5439 26.4921 89.6622 26.4555 89.7804 26.4ZM91.8111 14.812C91.7273 14.812 91.6835 14.8528 91.6835 14.9358C91.6835 15.0192 91.7273 15.0609 91.8111 15.0609V14.812ZM95.1 26.8922L95.2276 26.7666L95.1 26.6424C95.0167 26.6424 94.9747 26.6828 94.9747 26.7666V26.8922H95.1ZM91.9387 21.7853C91.8526 21.7853 91.8111 21.8687 91.8111 22.0337C91.8111 22.2 91.8526 22.2834 91.9387 22.2834C92.0216 22.2 92.064 22.1175 92.064 22.0337L91.9387 21.7853ZM95.4804 26.7666C95.3128 26.7666 95.2276 26.8487 95.2276 27.0151C95.2276 27.0989 95.3128 27.1406 95.4804 27.1406C95.5652 27.1406 95.6066 27.0989 95.6066 27.0151L95.4804 26.7666ZM99.4021 17.9235V17.5509C99.1493 17.5509 99.0236 17.676 99.0236 17.9235H99.4021ZM91.8111 11.5727V11.8238L91.9387 11.9471V11.5727C92.0216 11.5727 92.064 11.4916 92.064 11.3252L92.1902 11.1996C92.1902 11.1171 92.1492 11.0763 92.064 11.0763L91.9387 11.3252C91.8526 11.3252 91.8111 11.4086 91.8111 11.5727ZM91.4321 20.4158C91.2635 20.4158 91.1792 20.4979 91.1792 20.6642C91.1792 20.8306 91.2635 20.9131 91.4321 20.9131C91.5173 20.8306 91.5583 20.7481 91.5583 20.6642L91.4321 20.4158ZM90.9255 21.7853L90.1664 22.0337L90.5455 22.2834L90.9255 21.7853ZM98.6427 14.9358C98.6427 15.2676 98.8545 15.4344 99.276 15.4344L99.4021 15.3098C99.4021 15.1448 99.3183 15.0609 99.1493 15.0609C99.0645 14.9784 98.8955 14.9358 98.6427 14.9358ZM98.0108 11.6983H97.757C97.8422 11.8646 97.9698 12.1135 98.136 12.4458C98.2222 12.6946 98.3051 12.8188 98.3912 12.8188V12.4458C98.3912 11.9471 98.2636 11.6983 98.0108 11.6983ZM91.8111 25.6461V26.5178C91.8963 26.6003 91.9387 26.7666 91.9387 27.0151C92.1077 26.8487 92.1902 26.7259 92.1902 26.6424C92.1902 26.3097 92.1492 26.1016 92.064 26.0191C91.9802 25.8532 91.9168 25.7487 91.8745 25.7084L91.8111 25.6461ZM90.1664 11.9471C90.1664 12.1135 90.2088 12.2377 90.2926 12.3202C90.4612 12.4861 90.5888 12.57 90.6731 12.57C90.8416 12.57 90.9255 12.4036 90.9255 12.0713C91.0107 11.9898 91.0521 11.8238 91.0521 11.5727C90.4612 11.5727 90.1664 11.6983 90.1664 11.9471ZM98.2636 22.0337C98.2636 22.2834 98.1798 22.4067 98.0108 22.4067C98.0951 22.4067 98.136 22.4498 98.136 22.5323H98.2636C98.2636 22.5323 98.327 22.5117 98.4536 22.47C98.5812 22.4296 98.7288 22.3256 98.8955 22.1592C99.1493 22.0767 99.276 21.9104 99.276 21.6606C99.276 21.5781 99.2336 21.5364 99.1493 21.5364L99.0236 21.4122H98.3912L98.0108 21.6606C98.1798 21.6606 98.2636 21.7853 98.2636 22.0337ZM91.1792 22.9054H90.9255L90.5455 25.1474C90.7993 25.1474 91.0107 25.0649 91.1792 24.8986C91.3483 24.8986 91.4321 24.7734 91.4321 24.526V24.4004C91.3483 24.3174 91.3045 24.2757 91.3045 24.2757C91.3045 24.1932 91.2635 24.1107 91.1792 24.0273L90.9255 23.7785C91.0945 23.6121 91.2207 23.5067 91.3045 23.4663C91.3897 23.4256 91.4735 23.3632 91.5583 23.2798C91.5583 23.2798 91.4735 23.1973 91.3045 23.0309C91.3045 22.9475 91.2635 22.9054 91.1792 22.9054ZM96.2041 26.1818H93.277V28.9647H93.3841V28.7319L93.8563 28.9647H96.7554C97.0567 28.9615 97.3621 28.8831 97.6685 28.7365C97.9833 28.5839 98.2706 28.3859 98.5384 28.1402C98.8061 27.8927 99.0175 27.62 99.1796 27.323C99.3472 27.0256 99.431 26.7259 99.4357 26.4266V24.2757H99.4021C98.8117 24.2757 98.5165 24.0681 98.5165 23.6529C98.8545 23.6529 99.1083 23.6946 99.276 23.7785C99.3342 23.7785 99.3872 23.783 99.4357 23.7931V13.2937L99.4287 13.1644L99.4021 13.1928C99.4021 13.3592 99.3183 13.4417 99.1493 13.4417H98.8955C98.8955 13.3592 98.8545 13.317 98.7703 13.317C98.8429 13.031 99.0403 12.8683 99.3635 12.8289C99.3211 12.6855 99.2601 12.542 99.1796 12.3995C99.0175 12.0984 98.8061 11.8284 98.5384 11.5819C98.2706 11.3353 97.9833 11.1332 97.6685 10.987C97.5493 10.9297 97.431 10.8829 97.3128 10.8467C97.1978 11.0053 97.1116 11.1964 97.0543 11.4214V11.547C97.0543 11.8793 97.1382 12.1282 97.3067 12.2945C97.3067 12.4604 97.3277 12.6048 97.3701 12.7295C97.411 12.8541 97.4334 12.9999 97.4334 13.1662V13.4146C97.4334 13.6631 97.3482 13.7877 97.1796 13.7877C97.0958 13.7877 96.8853 13.6631 96.5477 13.4146C96.2096 13.1662 96.0411 12.9591 96.0411 12.7927C96.0411 12.7079 96.0835 12.6671 96.1687 12.6671H96.2949C96.5477 12.6671 96.6753 12.5012 96.6753 12.169C96.6753 11.9201 96.6315 11.7537 96.5477 11.6712C96.463 11.5878 96.4201 11.4645 96.4201 11.2982C96.4201 11.1185 96.4695 10.9375 96.5691 10.7578H96.1766L96.1687 10.7995C96.0811 10.7995 96.0043 10.7862 95.94 10.7578H93.277V11.2812C93.3967 11.3614 93.4563 11.5007 93.4563 11.6983C93.4563 11.8385 93.3967 11.9774 93.277 12.1176V13.5164H96.2041V14.2818L96.2385 14.3134L96.2041 14.3363V14.769C96.3316 14.6901 96.4709 14.6214 96.619 14.5623C97.1256 14.3973 97.4632 14.1053 97.6317 13.6919C97.716 13.7744 97.8008 13.8578 97.8846 13.9403C97.9698 14.0242 98.0536 14.1475 98.136 14.3134C98.2222 14.3973 98.2846 14.4798 98.327 14.5623C98.3693 14.6461 98.4327 14.7286 98.5165 14.812C98.5165 14.9784 98.4327 15.0609 98.2636 15.0609H97.757L97.5042 15.6828C97.4208 15.6828 97.2941 15.6003 97.1256 15.4344C97.1256 15.4344 97.1046 15.3932 97.0623 15.3098C97.0208 15.2273 96.9566 15.1448 96.8727 15.0609L96.7451 14.9358C96.6613 14.9358 96.619 14.9784 96.619 15.0609V15.1856C96.619 15.3515 96.4923 15.4344 96.2385 15.4344H96.2041V22.4067H96.3661L96.2041 22.514V23.3036C96.2534 23.2885 96.3074 23.2798 96.3661 23.2798C96.619 23.2798 96.7451 23.4462 96.7451 23.7785V24.0273C96.6613 24.1107 96.619 24.1932 96.619 24.2757L96.3661 24.526C96.3661 24.6873 96.3121 24.8491 96.2041 25.0109V26.1818Z" fill="white"/>
<path fill-rule="evenodd" clip-rule="evenodd" d="M108.338 20.7096V18.4222C108.184 18.4203 108.107 18.3795 108.107 18.2984C108.107 18.1376 108.184 18.0551 108.338 18.0496V17.9272H104.991V20.7096H108.338ZM108.994 28.9647V26.1818H107.74V26.7666H107.495V26.1818H106.806C106.714 26.3235 106.534 26.3936 106.269 26.3936C106.043 26.3936 105.921 26.3225 105.904 26.1818H105.241C105.273 26.2203 105.29 26.2918 105.29 26.3936C105.29 26.5595 105.247 26.6424 105.166 26.6424C105.09 26.6424 105.031 26.6232 104.991 26.5879V28.9647H108.994ZM101.256 10.7578V17.1719C101.527 17.4006 101.664 17.6852 101.664 18.0225C101.664 18.2709 101.541 18.3965 101.297 18.3965L101.256 18.342V28.9647H104.36V23.5255C104.243 23.5149 104.185 23.4741 104.185 23.404C104.185 23.2638 104.243 23.1826 104.36 23.1602V15.7814C104.36 15.615 104.279 15.5311 104.115 15.5311C104.033 15.5311 103.993 15.615 103.993 15.7814C103.993 15.9473 104.033 16.0298 104.115 16.0298C104.279 16.0298 104.36 15.9473 104.36 15.7814V10.8976L103.939 11.3252H103.572L103.929 10.7578H101.256ZM107.058 11.4214L106.077 11.9201V12.0457L106.198 12.169C106.281 12.169 106.322 12.2116 106.322 12.2945L106.567 12.542C106.731 12.3779 106.813 12.169 106.813 11.9201L107.058 11.4214ZM101.909 11.0484C101.909 11.3807 102.031 11.7134 102.276 12.0457C102.44 12.3779 102.603 12.6268 102.767 12.7927H103.135C103.135 12.3779 103.012 11.9618 102.767 11.547C102.685 11.2147 102.4 11.0484 101.909 11.0484ZM102.959 14.5623C102.796 14.5623 102.715 14.6461 102.715 14.812H103.082C103.082 14.6461 103.04 14.5623 102.959 14.5623ZM107.985 26.7666C107.821 26.7666 107.74 26.8491 107.74 27.0151C107.74 27.0989 107.821 27.1406 107.985 27.1406C108.067 27.1406 108.107 27.0989 108.107 27.0151L107.985 26.7666ZM103.572 21.4122C103.408 21.4122 103.327 21.4956 103.327 21.6606C103.327 21.7445 103.408 21.7853 103.572 21.7853C103.654 21.7853 103.694 21.7445 103.694 21.6606C103.694 21.4956 103.654 21.4122 103.572 21.4122ZM103.818 11.6983C103.654 11.6983 103.572 11.7821 103.572 11.9471C103.572 12.1135 103.654 12.1969 103.818 12.1969C103.899 12.1969 103.939 12.1135 103.939 11.9471C103.939 11.7821 103.899 11.6983 103.818 11.6983ZM103.327 19.5437H103.572V18.9208H103.327V19.5437ZM105.533 12.8188L106.024 13.3175C106.024 13.2336 106.065 13.1933 106.146 13.1933C106.229 13.1108 106.269 13.0269 106.269 12.9444L105.902 12.57C105.819 12.57 105.778 12.6117 105.778 12.6946C105.697 12.7781 105.615 12.8188 105.533 12.8188ZM104.991 10.7578V13.5164H108.994V12.4664C108.842 12.5993 108.646 12.6671 108.405 12.6671C108.405 12.3349 108.528 12.169 108.773 12.169H108.897L108.994 12.2185V10.7578H108.501C108.41 10.8683 108.338 10.9237 108.283 10.9237C108.15 10.9237 108.017 10.8683 107.883 10.7578H107.25C107.196 10.7757 107.154 10.7986 107.128 10.8266V10.7578H106.555C106.538 10.8944 106.5 10.9916 106.445 11.0484C106.445 11.2982 106.362 11.4214 106.198 11.4214V10.7578H104.991Z" fill="white"/>
<path fill-rule="evenodd" clip-rule="evenodd" d="M125.682 28.9633C125.982 28.9752 126.286 28.9111 126.594 28.7585C126.909 28.6072 127.196 28.4047 127.463 28.1481C127.729 27.8914 127.942 27.6133 128.105 27.3136C128.273 27.0093 128.358 26.7137 128.36 26.4259V21.6467H125.129V26.1807H122.2V28.9633H125.682ZM121.023 10.7578C120.718 10.7615 120.41 10.8357 120.096 10.9828C119.785 11.1322 119.495 11.3293 119.233 11.5754C118.97 11.8173 118.759 12.0932 118.595 12.3869C118.433 12.688 118.348 12.9877 118.346 13.2961V22.5916L119.291 22.252V23.6222L118.784 24.1208C118.7 24.036 118.637 23.9549 118.595 23.8724C118.559 23.7996 118.475 23.729 118.346 23.6575V25.9397H118.402V26.4387C118.382 26.458 118.363 26.4827 118.348 26.5116C118.365 26.787 118.447 27.0629 118.595 27.3351C118.759 27.6302 118.97 27.9006 119.233 28.1481C119.495 28.3946 119.785 28.5907 120.096 28.7383C120.41 28.885 120.718 28.9597 121.023 28.9633H121.55V10.7578H121.023ZM121.186 23.9481C121.017 23.9481 120.933 24.0319 120.933 24.1983C120.933 24.2803 121.017 24.3211 121.186 24.3211C121.271 24.3211 121.314 24.2803 121.314 24.1983C121.314 24.0319 121.271 23.9481 121.186 23.9481ZM123.844 28.4308V28.6806C123.844 28.8465 124.013 28.9294 124.35 28.9294V28.0564C124.096 28.3062 123.928 28.4308 123.844 28.4308ZM124.223 26.8131C124.309 26.8131 124.35 26.936 124.35 27.1862C124.434 27.2687 124.476 27.4345 124.476 27.6834C124.644 27.1862 124.729 26.936 124.729 26.936C124.729 26.6051 124.603 26.4387 124.35 26.4387C124.265 26.5212 124.223 26.6468 124.223 26.8131ZM126.121 22.4532H125.869C125.869 22.7859 126.038 22.9518 126.373 22.9518C126.543 23.1181 126.754 23.2006 127.008 23.2006V22.9518L126.627 22.5778L126.121 22.4532ZM126.121 25.6913V26.936C126.29 26.936 126.543 26.8535 126.88 26.6871C127.133 26.6871 127.261 26.5212 127.261 26.1885C127.261 25.9397 127.133 25.8155 126.88 25.8155C126.711 25.6505 126.543 25.5671 126.373 25.5671C126.207 25.5671 126.121 25.6074 126.121 25.6913ZM119.291 15.1558C119.206 15.1558 119.165 15.1961 119.165 15.28L119.291 15.1558ZM127.771 14.9069H127.516V15.0302H127.643C127.727 15.0302 127.771 14.9894 127.771 14.9069ZM119.544 20.633V21.0074C119.629 21.0074 119.671 20.9657 119.671 20.8832C119.671 20.7168 119.629 20.633 119.544 20.633ZM119.544 23.6222C119.375 23.6222 119.291 23.7061 119.291 23.8724C119.291 24.036 119.375 24.1208 119.544 24.1208V23.6222ZM120.05 21.0074H119.797C119.881 21.0912 119.924 21.1737 119.924 21.2576L120.05 21.3809H120.303C120.303 21.2979 120.262 21.2576 120.178 21.2576C120.093 21.1737 120.05 21.0912 120.05 21.0074ZM119.671 24.3687C119.502 24.3687 119.418 24.4939 119.418 24.7427H120.05C120.05 24.4939 119.924 24.3687 119.671 24.3687ZM119.797 23.498C119.797 23.8294 119.966 23.9953 120.303 23.9953C120.641 23.9953 120.81 23.8294 120.81 23.498C120.81 23.2483 120.641 23.125 120.303 23.125H120.05C119.881 23.29 119.797 23.4142 119.797 23.498ZM128.36 13.2961C128.358 12.9964 128.273 12.6967 128.105 12.4016C128.013 12.2311 127.905 12.0694 127.78 11.9168H127.771L127.772 11.9081C127.678 11.7949 127.575 11.6863 127.463 11.5822C127.196 11.3371 126.909 11.1354 126.594 10.9874C126.286 10.8394 125.982 10.7615 125.682 10.7578H122.2V13.5166H125.129V17.2134H128.36V13.2961Z" fill="white"/>
<path fill-rule="evenodd" clip-rule="evenodd" d="M128.84 28.8144L128.814 28.9647H129.092L128.989 28.9308L128.84 28.8144ZM135.352 22.6579H133.006L133.157 21.5327L132.646 21.085C132.478 20.919 132.309 20.7728 132.141 20.65C131.973 20.5244 131.763 20.3782 131.511 20.2119C131.595 20.1307 131.636 20.0483 131.636 19.9644C131.636 19.8819 131.722 19.8393 131.89 19.8393H133.384L134.179 13.9371L133.756 10.7578H131.859L129.432 25.2739C129.491 25.3216 129.554 25.378 129.619 25.4426C129.871 25.8587 129.999 26.1071 129.999 26.1896H129.744C129.568 26.1896 129.414 26.1832 129.282 26.1685L129.089 27.3207C129.135 27.3139 129.187 27.3107 129.242 27.3107C129.578 27.3107 129.744 27.4358 129.744 27.6846V28.9647H132.157L132.347 27.5572C132.265 27.6416 132.155 27.6846 132.015 27.6846C131.595 27.6846 131.385 27.5604 131.385 27.3107C131.385 27.0618 131.426 26.8954 131.511 26.8143C131.595 26.8143 131.636 26.6883 131.636 26.4399C131.636 26.1071 131.47 25.9408 131.133 25.9408H131.006C130.669 25.9408 130.501 25.8587 130.501 25.6924L130.754 25.4426C130.838 25.3601 130.88 25.3193 130.88 25.3193C130.88 25.2354 130.922 25.1529 131.006 25.0695H131.133C131.636 25.0695 131.973 25.2785 132.141 25.6924C132.314 25.9774 132.43 26.262 132.483 26.5471L132.632 25.444H135.728L135.688 25.1474C135.568 25.0659 135.489 24.9508 135.451 24.8037C135.451 24.5571 135.492 24.3921 135.574 24.3083L135.352 22.6579ZM135.83 17.9542H135.451L135.703 18.2031L135.83 17.9542ZM130.154 24.1795C129.986 24.1795 129.902 24.2643 129.902 24.4306C129.902 24.5942 129.986 24.6781 130.154 24.6781C130.239 24.6781 130.28 24.5942 130.28 24.4306C130.28 24.2643 130.239 24.1795 130.154 24.1795ZM139.71 27.1874C139.626 27.1874 139.582 27.2699 139.582 27.4358C139.582 27.6021 139.626 27.6846 139.71 27.6846C139.795 27.6846 139.835 27.6021 139.835 27.4358C139.835 27.2699 139.795 27.1874 139.71 27.1874ZM139.205 26.0668C139.121 26.0668 139.079 26.1493 139.079 26.3157C139.079 26.3991 139.121 26.4399 139.205 26.4399C139.373 26.4399 139.458 26.3991 139.458 26.3157C139.458 26.1493 139.373 26.0668 139.205 26.0668ZM131.006 20.3374H130.88C130.376 20.3374 130.123 20.7105 130.123 21.458C130.713 21.458 131.133 21.2092 131.385 20.7105L131.258 20.463L131.006 20.3374ZM135.902 12.5021L136.154 12.751C136.154 12.6685 136.112 12.6282 136.027 12.6282L135.902 12.5021ZM135.523 11.5062C135.355 11.5062 135.27 11.5887 135.27 11.7546C135.27 11.921 135.355 12.0035 135.523 12.0035C135.607 12.0035 135.649 11.921 135.649 11.7546C135.649 11.5887 135.607 11.5062 135.523 11.5062ZM132.272 20.8838V21.3815H132.523C132.523 21.0487 132.44 20.8838 132.272 20.8838ZM134.405 10.7578L135.99 22.5561C136.074 22.4759 136.187 22.4374 136.334 22.4374V22.8105C136.334 22.9741 136.252 23.1373 136.089 23.3009L136.172 23.9137L136.208 23.932H136.587C136.503 24.0131 136.459 24.1387 136.459 24.3051C136.459 24.471 136.503 24.5942 136.587 24.6781V25.0526C136.587 25.2107 136.511 25.2918 136.358 25.3L136.61 27.1713C136.693 27.1915 136.811 27.3152 136.964 27.5426V28.2896C136.895 28.2896 136.824 28.275 136.754 28.247L136.85 28.9647H140.194L139.361 23.9489C139.128 24.2688 138.918 24.4306 138.731 24.4306C138.731 23.7656 138.52 23.4333 138.1 23.4333C137.763 23.4333 137.594 23.267 137.594 22.9361V21.3169L137.974 20.9424C138.361 21.5533 138.713 21.8843 139.027 21.9333L138.699 19.9474H138.479C138.395 19.8626 138.351 19.5304 138.351 18.9501V17.8594L137.173 10.7578H134.405Z" fill="white"/>
<path fill-rule="evenodd" clip-rule="evenodd" d="M149.248 28.9647V23.257C149.015 23.3501 148.817 23.5329 148.655 23.8065C148.41 24.2213 148.082 24.4307 147.673 24.4307C147.345 24.4307 147.14 24.3877 147.058 24.3052C146.648 24.2213 146.403 24.0985 146.321 23.9321C146.321 23.7658 146.403 23.4335 146.567 22.9362C146.648 22.604 146.935 22.4376 147.426 22.4376V22.686L147.181 23.0595C147.099 23.2254 147.037 23.351 146.997 23.4335C146.956 23.5169 146.935 23.5581 146.935 23.5581C147.016 23.5581 147.099 23.5994 147.181 23.6833V23.8065H147.304C147.632 23.8065 147.878 23.6833 148.042 23.4335V22.686L148.134 22.6887V22.5788H148.38V22.7259C148.446 22.746 148.497 22.7744 148.532 22.8107C148.778 22.8107 148.901 22.8524 148.901 22.9362V22.5618C148.901 22.2392 149.017 22.0728 149.248 22.0632V10.7578H146.137V28.9647H146.575L146.537 28.9308H147.274L147.241 28.9647H149.248ZM145.527 14.9458V12.1873H143.438C143.171 12.1905 142.902 12.2523 142.63 12.3802C142.36 12.5071 142.108 12.6758 141.879 12.888C141.647 13.1029 141.465 13.3371 141.321 13.6006C141.18 13.8614 141.107 14.1286 141.104 14.404V21.2625L141.529 21.3166C141.529 21.3166 141.508 21.378 141.468 21.5036C141.427 21.6278 141.367 21.8157 141.284 22.0632C141.284 22.3959 141.243 22.604 141.16 22.686L141.104 22.6502V24.6791C141.107 24.9573 141.18 25.2291 141.321 25.488C141.465 25.7497 141.647 25.9844 141.879 26.1897C142.108 26.3991 142.36 26.5641 142.63 26.6819C142.902 26.8061 143.171 26.8675 143.438 26.8707H145.527V25.5476C145.319 25.5174 145.215 25.3093 145.215 24.9266C145.329 24.9266 145.434 24.9418 145.527 24.972V24.1118H144.215V14.9458H145.527ZM149.148 25.3011H148.901V25.5508L149.148 25.3011ZM152.095 22.1887L151.973 22.4376L152.095 22.686V22.1887ZM141.898 25.3011L141.776 25.1769C141.692 25.1769 141.652 25.2186 141.652 25.3011C141.652 25.3849 141.692 25.4253 141.776 25.4253C141.856 25.4253 141.898 25.3849 141.898 25.3011ZM148.532 18.2034H148.287V18.5764C148.45 18.5764 148.532 18.4531 148.532 18.2034ZM151.236 26.1732C151.154 26.1732 151.114 26.2552 151.114 26.4216C151.114 26.5055 151.154 26.5463 151.236 26.5463C151.318 26.5463 151.358 26.5055 151.358 26.4216C151.358 26.2552 151.318 26.1732 151.236 26.1732ZM142.881 21.8157C142.799 21.8157 142.758 21.8968 142.758 22.0632C142.758 22.1461 142.799 22.1887 142.881 22.1887C142.963 22.1887 143.003 22.1461 143.003 22.0632C143.003 21.8968 142.963 21.8157 142.881 21.8157ZM148.532 12.9728L148.287 12.3513V12.9728H148.532ZM143.372 18.5764C143.21 18.5764 143.127 18.6598 143.127 18.8262C143.127 18.9912 143.21 19.0746 143.372 19.0746C143.455 19.0746 143.495 18.9912 143.495 18.8262C143.495 18.6598 143.455 18.5764 143.372 18.5764ZM148.901 17.3326C148.738 17.3326 148.655 17.4142 148.655 17.5805C148.655 17.7464 148.738 17.8289 148.901 17.8289C148.984 17.8289 149.024 17.7464 149.024 17.5805C149.024 17.4142 148.984 17.3326 148.901 17.3326ZM153.57 17.4559H153.325C153.406 17.7061 153.57 17.8289 153.816 17.8289H154.062C153.898 17.5805 153.734 17.4559 153.57 17.4559ZM142.389 24.1796L141.898 24.4307C141.98 24.5123 142.021 24.5944 142.021 24.6782H142.389L142.512 24.4307L142.389 24.1796ZM143.127 23.3093C143.127 23.6406 143.25 23.8065 143.495 23.8065C143.578 23.8065 143.7 23.724 143.864 23.5581C143.947 23.4743 143.987 23.3093 143.987 23.0595C143.987 22.977 143.864 22.9362 143.619 22.9362C143.291 22.9362 143.127 23.0595 143.127 23.3093ZM153.816 25.8735C153.917 25.7479 154.006 25.6177 154.085 25.4775C154.168 25.3263 154.228 25.1714 154.264 25.0128C154.193 24.857 154.156 24.6691 154.156 24.4477L154.304 24.4523V22.7245C154.205 22.6017 154.156 22.4298 154.156 22.2057C154.156 21.9568 154.196 21.7905 154.277 21.7071C154.277 21.6007 154.286 21.5114 154.304 21.439V14.404C154.3 14.1373 154.226 13.8715 154.081 13.6126C153.935 13.3495 153.746 13.1098 153.509 12.8972C153.279 12.6845 153.027 12.5117 152.756 12.3839C152.486 12.2574 152.225 12.1905 151.97 12.1873H149.879V14.295C150.101 14.2537 150.349 14.1859 150.622 14.0933L150.744 14.2629C150.763 14.2528 150.785 14.245 150.814 14.245C150.814 14.0787 150.854 13.9971 150.936 13.9971V14.5333L151.604 15.465H151.169V22.4894C151.195 22.5471 151.218 22.6127 151.236 22.686C151.236 23.0187 151.358 23.2254 151.604 23.3093H151.728C151.809 23.3093 151.931 23.2254 152.095 23.0595V23.3093C152.095 23.724 151.891 23.9321 151.482 23.9321C151.728 24.0132 151.973 24.1796 152.219 24.4307C152.465 24.6782 152.669 24.8038 152.833 24.8038H152.957C153.118 24.8038 153.201 24.7607 153.201 24.6782C153.201 24.8446 153.283 25.011 153.446 25.1769C153.529 25.2594 153.59 25.3418 153.632 25.4253C153.671 25.5082 153.734 25.5916 153.816 25.6741V25.8735ZM148.872 25.4427H148.625V25.9408C148.789 25.7749 148.872 25.6086 148.872 25.4427ZM151.821 17.9715C151.657 17.9715 151.576 18.0553 151.576 18.2212C151.576 18.3042 151.657 18.3445 151.821 18.3445C151.901 18.3445 151.944 18.3042 151.944 18.2212L151.821 17.9715ZM151.452 19.5906V20.4632H151.697V20.0893C151.697 19.9229 151.616 19.7565 151.452 19.5906ZM153.54 24.1993H153.049C153.049 24.5311 153.212 24.6956 153.54 24.6956V24.1993ZM148.504 26.3157H148.38V26.8144H148.872C148.872 26.4816 148.749 26.3157 148.504 26.3157ZM147.251 11.7551C147.087 11.7551 147.005 11.8376 147.005 12.0039C147.005 12.1698 147.087 12.2537 147.251 12.2537C147.333 12.2537 147.374 12.1698 147.374 12.0039C147.374 11.8376 147.333 11.7551 147.251 11.7551ZM148.11 12.7514H147.988C147.988 12.5851 147.948 12.5026 147.866 12.5026C147.702 12.5026 147.62 12.5851 147.62 12.7514C147.62 13.0012 147.784 13.1245 148.11 13.1245C148.193 13.1245 148.234 13.0837 148.234 13.0012C148.234 12.8353 148.193 12.7514 148.11 12.7514ZM143.319 13.3742L142.828 13.8715L143.319 14.245C143.483 14.0787 143.565 13.9554 143.565 13.8715C143.565 13.5392 143.483 13.3742 143.319 13.3742ZM148.356 15.1176V14.619C147.784 14.619 147.496 14.7854 147.496 15.1176H148.356ZM150.023 24.1118H149.879V25.8336C149.964 25.9876 150.006 26.1833 150.006 26.4216C149.96 26.4216 149.918 26.4179 149.879 26.4115V26.8707H151.97C152.158 26.8684 152.351 26.8354 152.544 26.7699C152.593 26.7112 152.649 26.6379 152.709 26.5463C152.709 26.2988 152.75 26.1732 152.833 26.1732V26.0476C152.833 25.7997 152.587 25.6741 152.095 25.6741H151.482L151.114 25.3011C150.95 25.3011 150.826 25.3418 150.745 25.4253C150.662 25.5082 150.538 25.5508 150.376 25.5508L150.253 25.3011C150.089 25.1352 150.006 25.0522 150.006 25.0522L149.885 24.9266C149.885 24.8648 149.932 24.5934 150.023 24.1118Z" fill="white"/>
<path fill-rule="evenodd" clip-rule="evenodd" d="M161.446 22.6579H159.17L160.307 13.9371L159.896 10.7578H158.058L155.215 28.2901H155.24V28.6627C155.24 28.7782 155.235 28.8799 155.225 28.9647H156.829V28.9125C156.98 28.9125 157.114 28.9294 157.234 28.9647H158.349L158.806 25.444H161.808L161.446 22.6579ZM157.319 28.1663L157.195 28.0412V28.2901H157.319V28.1663ZM157.685 15.3391L157.563 15.2135C157.482 15.2135 157.442 15.2552 157.442 15.3391V15.4647H157.563C157.645 15.4647 157.685 15.4216 157.685 15.3391ZM159.886 13.2226C159.886 13.1387 159.846 13.098 159.763 13.098L159.642 13.2226C159.642 13.3051 159.682 13.3454 159.763 13.3454C159.846 13.3454 159.886 13.3051 159.886 13.2226ZM157.929 19.0748C157.766 19.0748 157.685 19.1573 157.685 19.3237C157.685 19.4071 157.766 19.4488 157.929 19.4488C158.012 19.4488 158.052 19.4071 158.052 19.3237C158.052 19.1573 158.012 19.0748 157.929 19.0748ZM157.195 24.1795L157.074 24.4306C157.236 24.5947 157.4 24.6781 157.563 24.6781C157.563 24.5122 157.442 24.3458 157.195 24.1795ZM163.678 24.8037V25.0526V25.3014C163.678 25.3848 163.758 25.5081 163.921 25.6745C163.921 25.8404 164.044 26.0476 164.289 26.2987C164.452 26.1323 164.532 25.7996 164.532 25.3014V25.0526C164.532 24.8037 164.452 24.6781 164.289 24.6781H163.921C163.838 24.7606 163.758 24.8037 163.678 24.8037ZM158.146 25.1937V25.5682C158.146 25.652 158.225 25.7749 158.389 25.9412C158.472 25.9412 158.512 25.9004 158.512 25.8166L158.635 25.6928C158.635 25.3601 158.472 25.1937 158.146 25.1937ZM160.525 10.7578L162.518 26.0567C162.557 26.1177 162.577 26.1979 162.577 26.2987L162.568 26.4408L162.896 28.9647H164.386L164.41 28.9125L164.532 27.7923C164.696 27.7923 164.899 27.9573 165.144 28.2901C165.387 28.5389 165.539 28.7635 165.601 28.9647H166.139L165.373 24.2024L165.337 24.2079C165.253 24.2079 165.213 24.1662 165.213 24.0832C165.213 23.9334 165.247 23.8509 165.314 23.8371L163.21 10.7578H160.525Z" fill="white"/>
<path fill-rule="evenodd" clip-rule="evenodd" d="M169.174 26.8964L169.153 26.9202C169.097 26.9771 169.059 27.0527 169.041 27.1475C169.057 27.1205 169.077 27.0935 169.1 27.0715C169.1 27.0252 169.124 26.9674 169.174 26.8964ZM167.049 10.7578V19.2034L167.112 19.1653C167.195 19.1223 167.277 19.0599 167.36 18.9788V19.2263C167.36 19.3088 167.318 19.3922 167.237 19.4751C167.153 19.5586 167.112 19.641 167.112 19.7249L167.049 19.6818V28.0477L167.166 28.1664V28.2896H167.049V28.9647H168.876L168.407 27.7919C168.241 27.1274 168.118 26.6714 168.035 26.4216C167.952 26.1732 167.91 25.84 167.91 25.4253C168.821 25.4253 169.278 25.7992 169.278 26.5458C169.278 26.676 169.252 26.78 169.202 26.8588C169.24 26.8102 169.289 26.7571 169.347 26.6984L169.595 27.197V28.6851L169.62 28.6819L169.745 28.9303L169.743 28.9647H170.195V20.2983C170.136 20.3239 170.069 20.3377 169.993 20.3377V19.5906H170.195V18.054C170.154 18.0705 170.097 18.0787 170.023 18.0787C169.939 18.0787 169.898 18.037 169.898 17.9545C169.898 17.8706 169.939 17.8289 170.023 17.8289C170.08 17.8289 170.137 17.8482 170.195 17.889V10.7578H167.049ZM169.65 23.9321C169.485 23.9321 169.401 24.0132 169.401 24.1796C169.401 24.346 169.485 24.4307 169.65 24.4307C169.732 24.4307 169.773 24.346 169.773 24.1796C169.773 24.0132 169.732 23.9321 169.65 23.9321ZM170.832 22.6081H170.892V22.1883H170.832V22.6081ZM169.993 25.1938C169.909 25.1938 169.868 25.2355 169.868 25.3194L169.993 25.4427C170.075 25.4427 170.117 25.4019 170.117 25.3194C170.117 25.2355 170.075 25.1938 169.993 25.1938ZM168.751 18.5943V18.8431C168.834 18.9266 168.876 19.0512 168.876 19.2171H169C169.248 19.2171 169.373 18.9687 169.373 18.4696V17.8482H169.349C169.435 17.521 169.597 17.3583 169.844 17.3583C170.01 17.1923 170.092 16.9852 170.092 16.7368C170.092 16.2382 169.927 15.9893 169.595 15.9893L169.347 16.1135C169.181 16.4458 169.017 16.6937 168.851 16.8601C168.851 17.026 168.934 17.1923 169.1 17.3583C169.262 17.521 169.345 17.685 169.347 17.8482C168.948 17.8583 168.751 18.1067 168.751 18.5943ZM175.806 17.7327H176.054C176.054 17.6493 176.013 17.6071 175.929 17.6071C175.848 17.6071 175.806 17.6493 175.806 17.7327ZM169.844 23.3359L169.595 23.087V23.3359H169.844ZM174.066 17.7327C173.984 17.7327 173.943 17.8152 173.943 17.9815C173.943 18.065 173.984 18.1057 174.066 18.1057C174.149 18.1057 174.191 18.065 174.191 17.9815C174.191 17.8152 174.149 17.7327 174.066 17.7327ZM175.806 20.3477C175.723 20.3477 175.682 20.4302 175.682 20.5966C175.682 20.6805 175.723 20.7208 175.806 20.7208C175.888 20.7208 175.929 20.6805 175.929 20.5966C175.929 20.4302 175.888 20.3477 175.806 20.3477ZM167.732 10.8834C167.65 10.8834 167.609 10.9668 167.609 11.1332C167.609 11.2157 167.65 11.2564 167.732 11.2564C167.898 11.2564 167.981 11.2157 167.981 11.1332C167.981 10.9668 167.898 10.8834 167.732 10.8834ZM167.609 27.6934L167.112 27.5706V27.6934C167.112 27.7782 167.153 27.8597 167.237 27.9445L167.36 28.192C167.36 28.1086 167.403 28.0261 167.484 27.9445C167.569 27.8597 167.609 27.7782 167.609 27.6934ZM173.073 11.5062V12.5026C173.073 12.6689 173.198 12.7514 173.446 12.7514C173.612 12.7514 173.902 12.6281 174.315 12.377C174.647 12.2954 174.812 12.0873 174.812 11.7551C174.812 11.5892 174.729 11.4223 174.563 11.2564C174.563 11.0901 174.397 10.9668 174.066 10.8834C173.902 10.8834 173.737 10.9668 173.571 11.1332L173.073 11.5062ZM173.463 19.8253H170.832V20.9335C171.071 20.774 171.256 20.6938 171.389 20.6938C171.72 20.6938 171.886 20.8592 171.886 21.1915C171.886 21.5237 172.05 21.7309 172.381 21.8157C172.3 21.8968 172.215 22.0022 172.134 22.125L171.813 22.6081H172.181L172.203 22.5888C172.369 22.505 172.576 22.4646 172.826 22.4646H173.073C173.157 22.4646 173.198 22.505 173.198 22.5888V22.6081H173.978C174.272 22.6049 174.573 22.5265 174.876 22.3785C175.183 22.2272 175.467 22.0293 175.727 21.7836C175.99 21.5375 176.198 21.2602 176.357 20.9665C176.522 20.669 176.603 20.3702 176.607 20.0696V13.2963C176.603 12.9966 176.522 12.6969 176.357 12.4017L176.312 12.3206L176.179 12.2537V12.1057C176.052 11.9191 175.901 11.745 175.727 11.5823C175.6 11.4636 175.467 11.3536 175.33 11.2564H175.308V11.2418C175.17 11.1446 175.025 11.0594 174.876 10.9874C174.573 10.8389 174.272 10.761 173.978 10.7578H170.832V13.5168H173.463V15.8775C173.494 15.7854 173.572 15.7395 173.694 15.7395C173.777 15.7395 173.818 15.8229 173.818 15.9893C173.818 16.0718 173.777 16.1135 173.694 16.1135C173.572 16.1135 173.494 16.0911 173.463 16.0448V19.8253Z" fill="white"/>
<path fill-rule="evenodd" clip-rule="evenodd" d="M181.681 23.6937V26.3294H181.682L182.108 25.2253C182.069 25.2107 182.016 25.2043 181.948 25.2043V25.0787C182.029 25.0787 182.069 25.0384 182.069 24.9554C182.069 24.4343 181.941 24.0136 181.681 23.6937ZM178.93 25.4426C178.849 25.4426 178.809 25.4857 178.809 25.5682C178.809 25.652 178.849 25.6928 178.93 25.6928V25.4426ZM178.443 27.3107H178.322V27.6846H178.686C178.686 27.6026 178.606 27.4766 178.443 27.3107ZM184.667 22.4544H184.527V22.953H184.771V22.4975C184.946 22.5584 185.183 22.5887 185.477 22.5887C185.477 21.9241 185.314 21.5932 184.991 21.5932C184.798 21.5272 184.616 21.4741 184.448 21.4337V18.9776L184.503 18.979C184.991 18.979 185.234 18.7696 185.234 18.3548C184.909 18.3548 184.747 18.2718 184.747 18.1059L184.448 17.9533V10.7578H187.531V24.4568H187.302C187.371 24.5278 187.448 24.5832 187.531 24.624V28.9647H185.459C185.324 28.6627 185.257 28.3597 185.257 28.0582C185.176 28.0582 185.054 28.142 184.891 28.308L184.771 28.4322V28.9647H184.448V28.0146C184.594 28.0499 184.774 28.0678 184.991 28.0678C184.991 27.5728 184.809 27.2621 184.448 27.1365V23.9017C184.486 23.9934 184.503 24.1776 184.503 24.4568V24.7056H184.991C184.991 24.2904 185.03 24.0837 185.111 24.0837C185.193 23.9998 185.234 23.8756 185.234 23.7092V23.585C185.08 23.4278 184.818 23.3453 184.448 23.3376V22.3389L184.503 22.3403C184.546 22.3843 184.601 22.4219 184.667 22.4544ZM186.108 22.5786C186.027 22.5786 185.986 22.6634 185.986 22.8275C185.986 22.9938 186.027 23.0772 186.108 23.0772C186.271 23.0772 186.352 22.9938 186.352 22.8275C186.352 22.6634 186.271 22.5786 186.108 22.5786ZM179.661 21.8325C179.416 21.9988 179.296 22.2894 179.296 22.7042C179.619 22.7042 179.781 22.4975 179.781 22.0799V21.9567C179.781 21.8733 179.741 21.8325 179.661 21.8325ZM183.067 21.5836H182.103C182.081 21.3939 182.069 21.1487 182.069 20.8466C182.069 20.8466 181.989 20.9076 181.827 21.0332C181.786 21.0652 181.738 21.0964 181.681 21.1303V18.963L182.117 17.8346L182.191 17.8571C182.354 17.9396 182.678 17.9817 183.165 17.9817V17.484C183.165 17.0679 183.003 16.8598 182.678 16.8598H182.495L183.847 13.3684V16.1645C183.798 16.2067 183.774 16.2722 183.774 16.3634C183.774 16.4542 183.798 16.5183 183.847 16.56V17.9272C183.717 17.9895 183.652 18.0903 183.652 18.2315C183.652 18.4689 183.717 18.6499 183.847 18.7741V20.7353L183.606 21.3576C183.435 21.387 183.289 21.4663 183.165 21.5932C183.084 21.6753 183.043 21.8833 183.043 22.2161C182.961 22.2986 182.922 22.4228 182.922 22.5887C182.922 22.6716 182.881 22.755 182.799 22.8375C182.639 23.0039 182.435 23.0873 182.191 23.0873V22.2394C182.233 22.3086 182.282 22.3811 182.336 22.4544C182.58 22.2055 182.702 22.0396 182.702 21.9567C182.784 21.8733 182.823 21.8325 182.823 21.8325H182.946C182.946 21.75 182.986 21.6666 183.067 21.5836ZM179.661 24.1992V24.8207C179.741 24.9045 179.781 25.1534 179.781 25.5682C179.864 25.7345 179.924 25.8587 179.964 25.9412C180.004 26.0246 180.026 26.0668 180.026 26.0668V25.5682C180.106 25.4857 180.147 25.3193 180.147 25.0695V24.6955C180.147 24.448 179.984 24.2817 179.661 24.1992ZM186.815 22.8375L186.936 22.7147L186.815 22.5887C186.734 22.5887 186.694 22.6308 186.694 22.7147V22.8375H186.815ZM185.841 27.1975L185.598 26.8235V27.3212L185.841 27.1975ZM179.637 25.0787C179.556 25.0787 179.515 25.1635 179.515 25.3298C179.515 25.411 179.556 25.4527 179.637 25.4527C179.718 25.4527 179.759 25.411 179.759 25.3298C179.759 25.1635 179.718 25.0787 179.637 25.0787ZM178.785 13.3743C178.704 13.3743 178.663 13.4568 178.663 13.6227C178.663 13.7891 178.704 13.8716 178.785 13.8716C178.866 13.8716 178.906 13.7891 178.906 13.6227C178.906 13.4568 178.866 13.3743 178.785 13.3743ZM178.663 24.7056C178.501 24.7056 178.419 24.789 178.419 24.9554C178.419 25.0384 178.501 25.0787 178.663 25.0787C178.744 25.0787 178.785 25.0384 178.785 24.9554L178.663 24.7056ZM187.302 15.989C187.139 15.989 187.058 16.0719 187.058 16.2378C187.058 16.3203 187.139 16.3634 187.302 16.3634C187.384 16.3634 187.423 16.3203 187.423 16.2378C187.423 16.0719 187.384 15.989 187.302 15.989ZM179.515 23.3362H178.785V23.8348H179.272C179.434 23.6685 179.515 23.5025 179.515 23.3362ZM180.244 23.7092C180.244 24.0415 180.326 24.2084 180.488 24.2084C180.65 24.2084 180.731 24.0837 180.731 23.8348C180.731 23.5025 180.61 23.3362 180.366 23.3362V23.4618C180.286 23.5429 180.244 23.6258 180.244 23.7092ZM178.055 17.7329L178.419 18.2315C178.259 18.3951 178.176 18.5207 178.176 18.6046V18.7279L179.029 18.4799C179.029 18.314 178.906 18.1476 178.663 17.9817C178.176 17.8154 177.974 17.7329 178.055 17.7329ZM177.973 21.2605V22.0112L178.176 21.5932C178.259 21.343 178.338 21.2197 178.419 21.2197L178.542 21.343H178.785C178.785 21.2605 178.826 21.1766 178.906 21.0941L178.663 20.7211C178.39 20.9305 178.161 21.1088 177.973 21.2605ZM181.055 28.3872V27.7616C180.921 27.8226 180.854 27.9243 180.854 28.0678V28.1925L181.055 28.3872ZM177.973 28.9647H178.663V28.5664H178.785C179.029 28.5664 179.191 28.6072 179.272 28.6911C179.431 28.7997 179.538 28.8909 179.593 28.9647H180.265C179.846 28.6086 179.637 28.1022 179.637 27.4463C179.637 26.9477 179.921 26.6567 180.488 26.5737L181.055 26.4568V22.8967C180.907 22.7757 180.758 22.7147 180.61 22.7147H180.366C180.042 22.7147 179.88 22.5887 179.88 22.3403C179.88 22.1744 180.244 21.8833 180.974 21.4686L181.055 21.4356V10.7578H177.973V12.3802C178.04 12.3917 178.11 12.4325 178.176 12.5026L177.973 12.3972V20.5969H179.515L180.244 20.348C180.084 20.5139 180.001 20.6376 180.001 20.7211V20.9699C180.001 21.3847 179.759 21.5932 179.272 21.5932C178.785 21.5932 178.542 21.8008 178.542 22.2161C178.542 22.6308 178.582 22.8783 178.663 22.9631C178.501 22.7967 178.379 22.7147 178.299 22.7147C178.136 22.5483 178.055 22.4645 178.055 22.4645L177.973 22.3797V28.9647Z" fill="white"/>
<path fill-rule="evenodd" clip-rule="evenodd" d="M17.0923 26.5385H16.6278C16.6278 26.6923 16.7074 26.7678 16.86 26.7678C17.0151 26.7678 17.0923 26.6923 17.0923 26.5385ZM27.4686 28.8537V28.1591C27.3135 28.3146 27.2368 28.4684 27.2368 28.6239L27.0062 28.8537H27.4686ZM18.0118 11.9323V11.4695L17.3204 11.9323H18.0118ZM25.1617 24.6819V24.2191H24.9291C24.7785 24.2191 24.701 24.295 24.701 24.4526C24.701 24.6043 24.8536 24.6819 25.1617 24.6819ZM13.8618 13.788L13.6337 13.5545C13.4765 13.5545 13.4014 13.6329 13.4014 13.788C13.4014 13.9419 13.4765 14.0177 13.6337 14.0177C13.7842 14.0177 13.8618 13.9419 13.8618 13.788ZM20.3191 11.0063H19.395V11.4695C19.7032 11.4695 20.0109 11.3152 20.3191 11.0063ZM22.6259 12.3975L22.1631 12.8608V13.3231H22.6259V12.3975ZM25.1617 23.291C24.8536 23.291 24.701 23.4465 24.701 23.7563C24.701 23.9097 24.8536 23.9856 25.1617 23.9856C25.3169 23.9856 25.3936 23.9097 25.3936 23.7563L25.1617 23.291ZM21.9329 28.6239C21.6251 28.6239 21.47 28.7782 21.47 29.0875C21.47 29.3965 21.6251 29.5503 21.9329 29.5503C22.0859 29.3965 22.1631 29.241 22.1631 29.0875L21.9329 28.6239ZM10.866 20.0457C10.5578 20.0457 10.4031 20.1987 10.4031 20.508C10.4031 20.8178 10.5578 20.9717 10.866 20.9717C11.019 20.9717 11.0941 20.8178 11.0941 20.508C11.0941 20.1987 11.019 20.0457 10.866 20.0457ZM21.7027 9.84638H21.47V10.541H22.3937C22.3937 10.0782 22.1631 9.84638 21.7027 9.84638ZM13.6337 30.2445V24.6819L13.1687 24.9141L13.6337 30.2445ZM24.9291 19.8139L25.1617 20.0457V20.508C25.1617 20.6644 25.2368 20.8178 25.3936 20.9717L25.8527 20.508C25.8527 19.5804 26.0095 19.1172 26.3131 19.1172H26.7756C26.9286 19.1172 27.0062 18.8858 27.0062 18.423C26.8531 18.423 26.658 18.4607 26.4303 18.5387C26.2005 18.6162 25.9295 18.6569 25.6217 18.6569C25.1618 19.1172 24.9291 19.5045 24.9291 19.8139ZM14.3246 21.6704C12.4777 21.6704 11.557 22.5185 11.557 24.2191H13.4014C13.4014 23.9097 13.2488 23.6008 12.9406 23.291C13.8618 23.1372 14.3246 22.5964 14.3246 21.6704ZM21.0121 24.2191C21.0121 24.3725 20.7791 24.5285 20.3191 24.6819C20.1656 24.8378 20.0109 24.9141 19.8579 24.9141H22.1631C22.1631 24.4526 22.3182 24.2191 22.6259 24.2191C22.6259 23.9097 22.6639 23.7161 22.7414 23.6385C22.8165 23.5626 22.8541 23.4465 22.8541 23.291V21.6704C23.1618 20.8958 23.5471 20.508 24.01 20.508H24.2381C24.3932 20.508 24.4708 20.1987 24.4708 19.5804H22.8541V17.4949C22.3937 17.4949 22.1631 17.8839 22.1631 18.6569C22.0109 18.9658 21.9329 19.4265 21.9329 20.0457C21.6251 20.508 20.8587 20.8958 19.6277 21.2051C18.5522 21.3611 17.7833 21.8243 17.3204 22.5964C18.2441 22.5964 18.7045 23.1372 18.7045 24.2191C18.8596 24.2191 19.0898 24.0632 19.395 23.7563L20.5513 23.5249C20.8587 23.8338 21.0121 24.0632 21.0121 24.2191ZM18.8278 0L23.5347 13.3882L37.6552 13.7511L26.4435 22.3878L30.464 36L25.8049 32.7766C25.8899 32.7895 25.9831 32.7957 26.0846 32.7957C26.5458 32.7957 26.7756 32.3304 26.7756 31.4065V30.9412C26.6209 30.7874 26.5458 30.5539 26.5458 30.2445L26.0846 29.5503C26.0846 30.6318 25.7768 31.482 25.1617 32.1011C25.1617 32.1973 25.175 32.2831 25.2014 32.3594L18.8278 27.9501L15.7111 30.1064C15.7202 29.8431 15.7573 29.5806 15.8217 29.3189C15.8988 29.0092 15.9364 28.6998 15.9364 28.3905C15.9364 27.7722 15.7083 27.311 15.2454 27.0017C14.3246 26.6923 13.8618 26.5385 13.8618 26.5385C13.8618 27.311 14.0165 27.6963 14.3246 27.6963C14.3246 27.5408 14.3622 27.5408 14.4397 27.6963C14.5152 27.8493 14.5524 28.0815 14.5524 28.3905V29.0875C14.3997 29.241 14.3246 29.5503 14.3246 30.0152C14.3246 30.3395 14.3613 30.6634 14.436 30.9885L7.19161 36L11.2121 22.3878L0 13.7511L14.1208 13.3882L18.8278 0Z" fill="#D8232A"/>
</svg>
