<svg width="158" height="56" viewBox="0 0 158 56" fill="none" xmlns="http://www.w3.org/2000/svg">
  <path fill-rule="evenodd" clip-rule="evenodd" d="M55.173 1.64363C55.173 1.52697 55.1154 1.46799 54.9956 1.46799L54.82 1.64363C54.82 1.76223 54.8803 1.82121 54.9956 1.82121C55.1154 1.82121 55.173 1.76223 55.173 1.64363ZM53.5894 3.40586C53.5285 3.46678 53.4747 3.53678 53.4294 3.6139C52.9553 3.37216 52.7156 2.98653 52.7156 2.45701C52.4805 1.98713 52.362 1.51724 52.362 1.04736C52.3251 1.04736 52.2836 1.06032 52.2363 1.08236V0H56.6925V25.7471H52.2363V11.5553L53.7714 13.5521C54.1211 13.5521 54.2986 13.3752 54.2986 13.0233C54.2986 12.438 54.0033 11.9681 53.4171 11.613L52.2363 11.3187V6.71385C52.4054 6.81107 52.6224 6.85903 52.8892 6.85903H53.2429C53.476 6.85903 53.5939 6.74237 53.5939 6.5071V4.39942C53.8258 4.30091 53.9411 4.08703 53.9411 3.75779C53.9411 3.64113 53.8821 3.5802 53.7636 3.5802L53.5894 3.40586ZM59.7471 1.99555L59.3961 1.29235C59.1609 1.76223 58.9854 2.17314 58.8688 2.52312C58.7503 2.64302 58.6914 3.05199 58.6914 3.75779H59.0424V3.5802C59.0424 3.46354 59.1609 3.28725 59.3961 3.05199C59.3961 2.58405 59.5126 2.23017 59.7471 1.99555ZM58.5217 3.16087H58.3461V3.33651C58.4627 3.33651 58.5217 3.27948 58.5217 3.16087ZM64.5045 7.03467H63.6256C63.6256 7.26994 63.7422 7.5052 63.9773 7.74047C64.3303 7.62186 64.5045 7.3866 64.5045 7.03467ZM64.682 4.74552H64.5045C64.1528 4.74552 63.9773 4.98014 63.9773 5.45067C64.4469 5.45067 64.7986 5.27309 65.033 4.9231L64.682 4.74552ZM61.3372 2.45701L60.8087 2.28137V3.68909C61.0432 3.68909 61.1617 3.51474 61.1617 3.16087C61.2783 3.04486 61.3372 2.80959 61.3372 2.45701ZM54.6503 3.16087C54.6503 3.63076 54.8259 4.10129 55.1776 4.57182C55.4127 5.04106 55.6471 5.39299 55.8823 5.62825H56.4114C56.4114 5.04106 56.234 4.45322 55.8823 3.86602C55.7644 3.39614 55.355 3.16087 54.6503 3.16087ZM60.6533 12.8217H57.5967V16.7597H62.0549C62.4707 16.7532 62.895 16.643 63.3237 16.4317C63.7616 16.2172 64.1625 15.9392 64.533 15.5911C64.9035 15.2444 65.1995 14.8523 65.4249 14.4349C65.6594 14.0194 65.7766 13.5923 65.7792 13.1723V3.58668C65.7766 3.21013 65.684 2.83357 65.4968 2.45701H64.3303C64.0952 2.80959 63.9183 2.98523 63.8011 2.98523C63.5666 2.98523 63.3315 2.86662 63.097 2.63136C62.8619 2.63136 62.7466 2.45701 62.7466 2.10379C62.7466 1.75251 62.8619 1.45956 63.097 1.22494C63.097 0.873015 63.3315 0.69543 63.8011 0.69543L63.9643 0.699967C63.7577 0.556085 63.5472 0.429702 63.3237 0.324707C62.895 0.115365 62.4707 0.00453682 62.0549 0H57.5967V3.90102H61.323V4.04814L62.0419 3.68909L61.6902 4.39424C61.6902 4.74552 61.5723 5.04106 61.3372 5.27309L61.323 5.25948V12.7271C61.5976 12.8729 61.836 13.1114 62.0361 13.4439H61.6831C61.095 13.4439 60.7491 13.2359 60.6533 12.8217Z" fill="white"/>
  <path fill-rule="evenodd" clip-rule="evenodd" d="M71.2341 0H66.5595C66.5029 0.0460164 66.4581 0.102403 66.4238 0.167862L67.7677 5.53039C67.8942 5.67557 67.9574 5.88556 67.9574 6.15582L67.9515 6.25952L68.1998 7.25373C68.356 7.15522 68.5101 7.10337 68.6662 7.10337H68.8461C68.8461 7.33864 68.6662 7.4553 68.3092 7.4553H68.2499L71.4811 20.3457L73.4311 10.6265L71.2341 0ZM71.3514 7.80723H71.1722V8.33479C71.2927 8.33479 71.3514 8.16045 71.3514 7.80723ZM75.1148 9.85398C74.8764 9.85398 74.7591 9.97064 74.7591 10.2053C74.7591 10.4405 74.8764 10.5572 75.1148 10.5572C75.2367 10.4405 75.2954 10.3239 75.2954 10.2053L75.1148 9.85398ZM69.2091 1.22429V1.40058C69.2091 1.6352 69.329 1.87047 69.5681 2.10379L69.7453 2.80894L70.462 2.28137C70.2229 2.04611 69.9844 1.84001 69.7453 1.66372C69.5062 1.48808 69.329 1.3429 69.2091 1.22429ZM79.3289 5.73325L79.1484 5.55567C79.0299 5.55567 78.9712 5.61529 78.9712 5.73325H79.3289ZM74.8533 15.9456C74.8533 16.1809 75.0918 16.5341 75.5701 17.0021C75.6893 17.4726 75.8092 17.7079 75.9278 17.7079C76.2868 17.7079 76.464 17.4726 76.464 17.0021C76.5839 16.6508 76.6735 16.387 76.7321 16.2094C76.7934 16.0351 76.823 15.9456 76.823 15.9456C76.823 15.7123 76.6445 15.4771 76.2868 15.2424C76.0483 15.0072 75.9278 14.8315 75.9278 14.7142C75.5701 14.7142 75.3309 14.9495 75.2123 15.4181C75.0918 15.6527 75.0029 15.7998 74.9442 15.8575C74.883 15.9171 74.8533 15.9456 74.8533 15.9456ZM75.5701 13.3039H75.7499C75.989 13.3039 76.1063 13.4815 76.1063 13.8321V14.0091C76.1063 14.2443 76.2249 14.361 76.464 14.361H76.823C76.9416 14.2443 77.1221 13.9514 77.3612 13.4815C77.6004 13.0116 77.7183 12.7763 77.7183 12.7763C77.7183 12.4244 77.6004 12.1308 77.3612 11.8956C77.2407 12.0142 77.1807 12.1898 77.1807 12.4244C77.1807 12.6597 77.0621 12.8949 76.823 13.1296L76.2868 12.7763L75.9278 12.4244H75.7499C75.2723 12.4244 74.9732 12.6597 74.8533 13.1296C74.6142 13.8321 74.4956 14.1277 74.4956 14.0091H74.8533L75.5701 13.3039ZM77.3612 5.73325L76.823 8.37498C76.9416 8.49164 77.0015 8.78394 77.0015 9.25383V9.78334C77.0015 10.1333 77.2407 10.3116 77.7183 10.3116C77.9574 10.3116 78.2552 10.0763 78.6122 9.6064C78.7328 9.13781 78.9093 8.90254 79.1484 8.90254V8.72626C79.0299 8.6096 78.9712 8.49164 78.9712 8.37498H78.6122C78.4936 8.49164 78.3731 8.54867 78.2552 8.54867L77.7183 8.90254C77.9574 8.19739 78.076 7.61214 78.076 7.14226C78.076 6.67172 78.016 6.37748 77.8975 6.26147C77.7769 6.14286 77.7183 5.96852 77.7183 5.73325H77.3612ZM68.6142 21.8118V25.7471H72.3309C72.7782 25.7426 73.2104 25.6272 73.6228 25.3939C74.0424 25.1671 74.4271 24.8715 74.7822 24.5053C75.128 24.1385 75.4304 23.7451 75.6708 23.3193C75.9192 22.898 76.0898 22.4897 76.1926 22.0891L81.2565 0H78.9047L78.9712 0.0972177C78.9712 0.215823 78.9093 0.332484 78.7927 0.450442H78.6122C78.4936 0.450442 78.435 0.332484 78.435 0.0972177V0H76.4054L76.134 1.36818L76.9054 2.28137L76.3691 2.80894C76.2644 2.80894 76.1076 2.71626 75.9047 2.52766L74.8533 7.83445V8.19739H74.7822L72.0846 21.8118H68.6142Z" fill="white"/>
  <path fill-rule="evenodd" clip-rule="evenodd" d="M88.1217 21.81H87.363V22.0848C87.5722 21.9539 87.8235 21.8625 88.1217 21.81ZM92.2946 25.745C92.7208 25.7625 93.1523 25.6699 93.5903 25.4573C94.0317 25.2409 94.4421 24.9564 94.8194 24.5902C95.1968 24.2286 95.4996 23.8339 95.7286 23.4101C95.9667 22.9823 96.0835 22.563 96.0901 22.1554V20.9098C95.8222 21.0044 95.5927 21.287 95.4 21.7569V22.9882C95.4 23.1061 95.371 23.1943 95.3123 23.2519C95.2522 23.3116 95.2232 23.458 95.2232 23.6933C94.9837 23.6933 94.8636 23.8708 94.8636 24.2214H93.0711C93.1899 24.2214 93.3106 24.1638 93.4294 24.0452C93.7876 23.9285 93.9677 23.8099 93.9677 23.6933C93.9677 23.5747 93.8496 23.401 93.6095 23.1657L92.7116 23.3414C92.4734 23.5747 92.2946 23.6933 92.1745 23.6933C92.1745 22.8715 91.8163 22.4606 91.0985 22.4606C91.458 21.8742 92.0551 21.5223 92.8923 21.4043C93.8496 21.1691 94.4447 20.8748 94.6842 20.5229C94.6842 20.0531 94.7449 19.7031 94.8636 19.4679C94.8636 18.8807 95.0418 18.5852 95.4 18.5852V20.1697H96.0901V15.3974H95.2232V15.4168H94.8636V15.3974H91.5135V21.81H88.7676C88.7498 22.4814 88.3922 22.8748 87.6936 22.9882C87.9324 23.2234 88.0518 23.458 88.0518 23.6933H87.363V25.745H88.0076L87.871 24.2214L88.2326 24.0452V25.745H88.4232L88.41 25.4554L89.2934 25.745H92.2946ZM85.6978 0C85.265 0.00453646 84.829 0.110171 84.385 0.318848C83.9436 0.525581 83.5332 0.805545 83.1625 1.15356C82.7897 1.49444 82.4869 1.88587 82.2573 2.30322C82.0284 2.72511 81.9089 3.15219 81.9023 3.58575V22.1554C81.9089 22.587 82.0284 23.0173 82.2573 23.4412C82.4869 23.8585 82.7897 24.2415 83.1625 24.5902C83.5332 24.9389 83.9436 25.2156 84.385 25.4268C84.829 25.6362 85.265 25.7399 85.6978 25.745H86.444V8.18571C85.9129 8.12285 85.4339 7.77743 85.0051 7.14168C84.4061 6.20263 84.1065 5.61419 84.1065 5.37894C85.0638 5.37894 85.7209 5.61419 86.0805 6.08469C86.2349 6.33743 86.3556 6.61027 86.444 6.90643V0H85.6978ZM92.6106 3.75684C92.4899 3.75684 92.4318 3.87543 92.4318 4.10809C92.4318 4.22668 92.4899 4.28436 92.6106 4.28436C92.7294 4.28436 92.7894 4.22668 92.7894 4.10809C92.7894 3.87543 92.7294 3.75684 92.6106 3.75684ZM90.921 25.4554H90.5595C90.5595 25.572 90.6215 25.6297 90.7402 25.6297C90.861 25.6297 90.921 25.572 90.921 25.4554ZM82.853 20.1697V20.5229C82.9718 20.5229 83.0318 20.4653 83.0318 20.3473C83.0318 20.23 82.9718 20.1697 82.853 20.1697ZM84.6449 8.19673C84.5261 8.08138 84.4061 8.02111 84.2873 8.02111C84.1686 8.02111 84.1065 8.08138 84.1065 8.19673C84.1065 8.31662 84.1686 8.3743 84.2873 8.3743C84.4061 8.3743 84.5261 8.31662 84.6449 8.19673ZM82.6742 4.85012C82.4348 4.85012 82.316 4.96872 82.316 5.20332C82.316 5.32062 82.4348 5.37894 82.6742 5.37894C82.793 5.37894 82.853 5.32062 82.853 5.20332L82.6742 4.85012ZM85.1819 24.2214C84.9431 24.2214 84.8243 24.3381 84.8243 24.5733C84.8243 24.8079 84.9431 24.9265 85.1819 24.9265C85.3027 24.8079 85.3627 24.6913 85.3627 24.5733L85.1819 24.2214ZM94.324 4.3226C94.0884 4.3226 93.9677 4.44119 93.9677 4.67579C93.9677 4.91104 94.0884 5.02769 94.324 5.02769C94.4447 5.02769 94.5054 4.91104 94.5054 4.67579C94.5054 4.44119 94.4447 4.3226 94.324 4.3226ZM86.0805 20.5229C85.841 20.5229 85.7209 20.6396 85.7209 20.8748C85.7209 21.1094 85.841 21.2267 86.0805 21.2267C86.1992 21.2267 86.258 21.1094 86.258 20.8748C86.258 20.6396 86.1992 20.5229 86.0805 20.5229ZM84.1065 23.5157V23.6933C84.2286 23.6933 84.2873 23.7516 84.2873 23.8708C84.4061 23.9862 84.5261 24.0452 84.6449 24.0452H84.8243L85.1819 23.5157L84.6449 23.1657C84.5261 23.1657 84.4674 23.2234 84.4674 23.3414C84.3454 23.458 84.2286 23.5157 84.1065 23.5157ZM82.853 13.1285L82.316 13.3028C82.6742 13.7727 83.0318 14.0079 83.392 14.0079V13.4804C83.1526 13.2458 82.9718 13.1285 82.853 13.1285ZM92.8923 1.32983C92.5341 1.32983 92.3533 1.56443 92.3533 2.03428H93.4294C93.4294 1.56443 93.2499 1.32983 92.8923 1.32983ZM85.7209 9.95817C85.7209 10.5453 85.841 10.9575 86.0805 11.1895C86.0805 10.7229 86.1392 10.3671 86.258 10.1325C86.378 10.0171 86.4387 9.7819 86.4387 9.43065V8.90183C86.0805 8.90183 85.8997 9.01848 85.8997 9.25308C85.781 9.37167 85.7209 9.60498 85.7209 9.95817ZM96.0901 3.58575C96.0835 3.16386 95.9667 2.74132 95.7286 2.32072C95.4996 1.89559 95.1968 1.51388 94.8194 1.16522C94.4421 0.816562 94.0317 0.530766 93.5903 0.324033C93.1523 0.114708 92.7208 0.00453646 92.2946 0H87.363V3.90006H91.5135V9.12541H96.0901V5.73214H95.939C95.939 5.51698 95.9892 5.40162 96.0901 5.38283V5.03547C96.0175 5.26424 95.786 5.37894 95.4 5.37894C95.4 4.79244 95.462 4.44119 95.5808 4.3226C95.5808 4.05754 95.7503 3.89293 96.0901 3.82747V3.58575Z" fill="white"/>
  <path fill-rule="evenodd" clip-rule="evenodd" d="M108.415 25.745C108.841 25.7625 109.275 25.6699 109.71 25.4573C110.156 25.2415 110.563 24.9564 110.938 24.5902C111.318 24.2292 111.623 23.8339 111.85 23.4101C112.088 22.9823 112.207 22.563 112.211 22.1554V15.3974H110.8L110.807 15.5925V16.2975C110.447 15.9444 109.85 15.77 109.013 15.77L109.446 15.3974H107.635V21.81H103.486V25.745H108.415ZM101.817 0C101.389 0.00453646 100.949 0.110171 100.504 0.319496C100.063 0.525581 99.6545 0.805545 99.2817 1.1542C98.9169 1.48796 98.6206 1.87226 98.3896 2.28119L99.1511 1.68173C99.5127 1.68173 99.6902 1.79968 99.6902 2.03493V2.20925C99.6902 2.6791 99.4526 2.97332 98.9736 3.09127C98.614 3.30319 98.2973 3.4516 98.0234 3.53649V3.58575V10.9737C98.1785 11.1642 98.2564 11.3528 98.2564 11.5427V11.8946C98.1587 11.7987 98.0822 11.7041 98.0234 11.6088V19.2923L98.0775 19.291C98.0775 19.4821 98.0591 19.6228 98.0234 19.7096V22.1554C98.0281 22.587 98.1475 23.0173 98.3771 23.4412C98.6094 23.8585 98.9109 24.2415 99.2817 24.5902C99.6545 24.9389 100.063 25.2162 100.504 25.4268C100.949 25.6368 101.389 25.7405 101.817 25.745H102.564V13.7286C102.432 13.6807 102.251 13.6567 102.022 13.6567H101.664C101.771 13.3398 102.07 13.1693 102.564 13.135V0H101.817ZM109.272 2.17232V2.87741H109.63C109.63 2.64281 109.511 2.40756 109.272 2.17232ZM106.225 0.764069C105.985 0.764069 105.865 0.880721 105.865 1.11597C105.865 1.23392 105.985 1.29159 106.225 1.29159C106.343 1.29159 106.402 1.23392 106.402 1.11597L106.225 0.764069ZM98.0775 10.3101H98.2564V10.1325H98.0775V10.3101ZM99.869 6.78978L99.6902 6.61286V6.96411C99.8103 6.96411 99.869 6.90643 99.869 6.78978ZM111.704 6.08469H110.986L111.345 6.43659L111.704 6.08469ZM99.5127 13.6567H99.1511C99.1511 13.8913 99.3319 14.0079 99.6902 14.0079H100.05C99.8103 13.7727 99.6301 13.6567 99.5127 13.6567ZM101.304 2.03493C101.304 1.91633 101.127 1.85736 100.766 1.85736C100.408 1.85736 100.227 1.91633 100.227 2.03493C100.227 2.15158 100.408 2.20925 100.766 2.20925C101.006 2.20925 101.185 2.15158 101.304 2.03493ZM102.022 8.90183C101.304 8.90183 100.648 9.37167 100.05 10.3107C99.6902 11.2504 99.1511 11.9536 98.4365 12.4234H100.05L102.56 10.1325C102.442 10.0171 102.38 9.78255 102.38 9.43065C102.261 9.19605 102.171 9.04699 102.111 8.98932C102.05 8.93164 102.022 8.90183 102.022 8.90183ZM112.211 3.58575C112.207 3.16386 112.088 2.74132 111.85 2.32072C111.623 1.89559 111.318 1.51388 110.938 1.16522C110.563 0.816562 110.156 0.530766 109.71 0.324033C109.275 0.115356 108.841 0.00453646 108.415 0H103.486V3.90006H107.635V5.89804L107.758 5.90776C107.997 5.90776 108.118 5.84944 108.118 5.73279C108.118 5.37959 108.296 5.20397 108.657 5.20397V5.73279C108.657 5.96803 108.536 6.20328 108.296 6.43659C108.657 6.43659 108.954 6.61286 109.194 6.96411C108.954 7.31731 108.596 7.66921 108.118 8.02111C107.941 8.1248 107.78 8.21423 107.635 8.28616V9.12541H112.211V3.58575Z" fill="white"/>
  <path fill-rule="evenodd" clip-rule="evenodd" d="M125.161 25.7471H129.624L128.39 22.7988C128.289 23.0205 128.081 23.1294 127.762 23.1294C127.762 22.6595 127.821 22.3652 127.937 22.2466C127.964 22.1384 127.997 22.0418 128.037 21.9576L126.226 17.634L126.125 17.5303L126.187 17.54L123.891 12.0543L125.96 6.82986C125.977 6.67367 126.026 6.54729 126.106 6.4559L127.748 2.31119L127.339 2.03509C127.419 1.95343 127.637 1.84649 127.986 1.71233L128.664 0H124.405L123.666 1.9612C124.263 1.76158 124.564 1.25476 124.564 0.450442C124.91 0.450442 125.257 0.743391 125.605 1.32994C126.068 1.79982 126.298 2.32739 126.298 2.91459V3.44345C126.298 3.91398 126.068 4.14925 125.605 4.14925C124.91 4.14925 124.332 4.03064 123.869 3.79538L123.008 3.70918L122.581 4.84468C122.763 4.73256 122.962 4.67617 123.174 4.67617L123.349 4.85051V5.0281H123.174V5.55567L122.828 6.26147V7.14226C122.828 7.61214 122.539 7.84741 121.96 7.84741L121.612 8.19739C122.424 8.66728 122.828 9.31345 122.828 10.1333V10.3116C122.364 10.0763 121.932 9.84102 121.526 9.6064C121.325 9.49039 121.117 9.38669 120.903 9.30049L120.078 11.4944V14.2489L121.776 18.0929C122.131 18.1732 122.307 18.3968 122.307 18.765C122.307 18.5264 122.255 18.5854 122.15 18.9354L125.161 25.7471ZM125.68 24.714C125.794 24.8307 125.854 24.8877 125.854 24.8877C125.969 24.8877 126.084 24.9473 126.201 25.0653L126.548 25.4179H126.896V24.1865C126.548 24.1865 126.374 24.2435 126.374 24.3608C126.143 24.4788 125.969 24.5669 125.854 24.6246C125.738 24.6836 125.68 24.714 125.68 24.714ZM124.735 8.90254C124.62 8.90254 124.564 8.96152 124.564 9.07819C124.564 9.19679 124.62 9.25383 124.735 9.25383V8.90254ZM118.662 3.79538H118.488C118.374 3.79538 118.316 3.85436 118.316 3.97167V4.14925C118.547 4.14925 118.662 4.03064 118.662 3.79538ZM118.488 9.6064L118.662 9.43141L118.488 9.25383C118.374 9.25383 118.316 9.31345 118.316 9.43141V9.6064H118.488ZM115.885 5.0281L115.365 5.38003L115.885 5.55567V5.0281ZM128.38 0.450442H127.861V0.80237H128.208C128.324 0.685709 128.38 0.567103 128.38 0.450442ZM124.389 5.55567C124.157 5.55567 124.044 5.61464 124.044 5.73325C124.044 5.96852 124.157 6.08518 124.389 6.08518C124.507 5.96852 124.564 5.84991 124.564 5.73325L124.389 5.55567ZM117.621 4.32295C117.506 4.32295 117.448 4.44155 117.448 4.67617C117.448 4.91144 117.506 5.0281 117.621 5.0281C117.737 5.0281 117.796 4.91144 117.796 4.67617C117.796 4.44155 117.737 4.32295 117.621 4.32295ZM116.233 9.07819C116.001 9.07819 115.885 9.19679 115.885 9.43141C115.885 9.54807 116.001 9.6064 116.233 9.6064C116.348 9.6064 116.406 9.54807 116.406 9.43141L116.233 9.07819ZM117.968 21.406H118.316V20.7009H117.968V21.406ZM123.174 12.4244C122.944 12.4244 122.828 12.543 122.828 12.7763C122.828 13.0116 122.944 13.1296 123.174 13.1296C123.291 13.0116 123.349 12.8949 123.349 12.7763L123.174 12.4244ZM116.406 11.5436C116.406 12.0142 116.638 12.2475 117.101 12.2475C117.101 11.7789 116.869 11.5436 116.406 11.5436ZM114.791 0V1.68187H114.843C114.843 1.81084 114.826 1.92297 114.791 2.01759V5.27309L114.843 5.38003C114.843 5.44354 114.824 5.49085 114.791 5.51937V6.81107C114.856 6.73718 114.932 6.67172 115.018 6.61339C115.365 6.49608 115.625 6.40664 115.8 6.34896C115.973 6.29128 116.06 6.26147 116.06 6.26147C116.06 6.26147 116.031 6.34896 115.973 6.52655C115.916 6.70024 115.828 6.96467 115.713 7.3179C115.481 7.90444 115.249 8.19739 115.018 8.19739C114.932 8.19739 114.856 8.18637 114.791 8.16369V25.7471H119.186V18.4156L119.183 18.413L119.186 18.4098V12.4212L119.183 12.4244L119.009 12.2475C118.894 12.1308 118.837 12.0142 118.837 11.8956C118.837 11.7296 118.954 11.6208 119.186 11.5728V8.33479C118.954 7.95435 118.837 7.4378 118.837 6.79033C118.975 6.79033 119.09 6.77477 119.186 6.74366V5.73325H119.183C118.837 5.73325 118.547 5.61464 118.316 5.38003V5.0281H119.009L119.186 5.02486V2.92366L119.183 2.91459L119.186 2.90486V0H114.791Z" fill="white"/>
  <path fill-rule="evenodd" clip-rule="evenodd" d="M134.065 0C133.632 0.00453682 133.196 0.11018 132.75 0.319522C132.311 0.526272 131.9 0.80561 131.528 1.1543C131.155 1.49456 130.855 1.88667 130.623 2.30406L130.608 2.32934V2.38702H130.578C130.379 2.78172 130.275 3.18161 130.27 3.58604V4.28795L130.328 4.28471C130.447 4.28471 130.506 4.40331 130.506 4.63663C130.506 4.8719 130.447 4.98986 130.328 4.98986L130.27 4.98662V8.02175H131.145C131.145 8.37498 131.324 8.54867 131.684 8.54867L132.042 7.66983C132.042 7.55316 131.923 7.37688 131.684 7.14226H131.145V5.55567H131.861L131.324 5.73325C131.324 5.73325 131.384 5.76241 131.503 5.82139C131.623 5.87908 131.803 6.0262 132.042 6.26147C132.521 6.73135 132.879 6.96467 133.118 6.96467H133.296C133.415 6.96467 133.536 6.90699 133.655 6.79033V7.31855C133.655 7.78843 133.596 8.02175 133.474 8.02175H132.937C132.818 8.02175 132.639 8.13971 132.4 8.37498C132.639 8.37498 132.879 8.49164 133.118 8.72626C133.474 8.72626 133.655 8.90254 133.655 9.25383V9.43141C133.655 9.54807 133.474 9.78334 133.118 10.1333C133.713 10.1333 134.134 10.1942 134.372 10.3116C134.542 10.3116 134.688 10.3258 134.809 10.3543V8.94078L134.731 8.90254L134.809 8.80986V0H134.065ZM140.546 16.9638L140.185 16.6119V16.9638H140.546ZM139.111 2.52312V2.17314C138.872 2.17314 138.632 2.2911 138.395 2.52312H139.111ZM134.27 12.2092C134.151 12.2092 134.093 12.3291 134.093 12.5605C134.093 12.7958 134.151 12.9144 134.27 12.9144C134.39 12.9144 134.45 12.7958 134.45 12.5605C134.45 12.3291 134.39 12.2092 134.27 12.2092ZM140.185 13.7952C140.067 13.7952 140.007 13.9131 140.007 14.1471C140.007 14.3804 140.067 14.5003 140.185 14.5003C140.307 14.5003 140.366 14.3804 140.366 14.1471C140.366 13.9131 140.307 13.7952 140.185 13.7952ZM143.235 3.40586C142.756 3.40586 142.517 3.64048 142.517 4.10842C142.995 4.10842 143.235 3.87574 143.235 3.40586ZM140.546 8.51238V9.03995C140.546 9.50983 140.663 9.7451 140.903 9.7451H141.083V9.39187C141.083 8.80468 140.903 8.51238 140.546 8.51238ZM130.778 22.1203C130.836 22.2084 130.925 22.3089 131.043 22.4242H131.224L131.581 21.7191C131.671 21.6309 131.726 21.5097 131.749 21.3561L131.861 21.2284L131.791 21.1597L131.941 21.0159L131.581 20.4883H131.224C131.041 20.6672 130.906 20.8577 130.816 21.0671C130.696 21.1293 130.566 21.1837 130.427 21.2284C130.367 21.2874 130.313 21.3548 130.27 21.43V11.7659L130.608 11.5436L130.27 11.2111V8.58432C130.469 8.66598 130.7 8.77098 130.966 8.90254C131.684 9.25383 132.042 9.54807 132.042 9.78334C132.042 10.3686 131.982 10.7814 131.861 11.0167C131.742 11.2513 131.684 11.6609 131.684 12.2475L132.759 11.5436H134.192C134.44 11.5021 134.648 11.4484 134.809 11.379V25.7471H134.065C133.632 25.7426 133.196 25.6389 132.75 25.4289C132.311 25.2183 131.9 24.9409 131.528 24.5922C131.155 24.2435 130.855 23.8605 130.623 23.4431C130.414 23.0574 130.299 22.666 130.275 22.2726C130.442 22.2505 130.61 22.1987 130.778 22.1203ZM133.655 5.73325C133.536 5.73325 133.474 5.79093 133.474 5.90824C133.474 6.0262 133.536 6.08518 133.655 6.08518V5.73325ZM138.314 22.8163L138.495 22.6388L138.314 22.4631C138.196 22.4631 138.137 22.5201 138.137 22.6388V22.8163H138.314ZM133.835 15.5944C133.713 15.5944 133.655 15.7123 133.655 15.9456C133.655 16.1809 133.713 16.2989 133.835 16.2989C133.953 16.1809 134.013 16.0642 134.013 15.9456L133.835 15.5944ZM138.853 22.6388C138.616 22.6388 138.495 22.7548 138.495 22.99C138.495 23.1086 138.616 23.1676 138.853 23.1676C138.974 23.1676 139.032 23.1086 139.032 22.99L138.853 22.6388ZM144.41 10.1333V9.6064C144.052 9.6064 143.873 9.78334 143.873 10.1333H144.41ZM133.655 1.15235V1.50752L133.835 1.68187V1.15235C133.953 1.15235 134.013 1.03764 134.013 0.80237L134.192 0.624785C134.192 0.508124 134.134 0.450442 134.013 0.450442L133.835 0.80237C133.713 0.80237 133.655 0.920327 133.655 1.15235ZM133.118 13.6578C132.879 13.6578 132.759 13.7738 132.759 14.0091C132.759 14.2443 132.879 14.361 133.118 14.361C133.238 14.2443 133.296 14.1277 133.296 14.0091L133.118 13.6578ZM132.4 15.5944L131.324 15.9456L131.861 16.2989L132.4 15.5944ZM143.334 5.90824C143.334 6.37748 143.634 6.61339 144.231 6.61339L144.41 6.43711C144.41 6.20378 144.291 6.08518 144.052 6.08518C143.931 5.96852 143.692 5.90824 143.334 5.90824ZM142.438 1.32994H142.079C142.2 1.5652 142.38 1.91713 142.616 2.38702C142.738 2.73895 142.855 2.91459 142.977 2.91459V2.38702C142.977 1.68187 142.797 1.32994 142.438 1.32994ZM133.655 21.0541V22.2868C133.775 22.4035 133.835 22.6388 133.835 22.99C134.075 22.7548 134.192 22.5811 134.192 22.4631C134.192 21.9926 134.134 21.6983 134.013 21.5817C133.894 21.3471 133.804 21.1993 133.744 21.1423L133.655 21.0541ZM131.324 1.68187C131.324 1.91713 131.384 2.09277 131.503 2.20943C131.742 2.44405 131.923 2.56266 132.042 2.56266C132.281 2.56266 132.4 2.32739 132.4 1.85751C132.521 1.74214 132.579 1.50752 132.579 1.15235C131.742 1.15235 131.324 1.32994 131.324 1.68187ZM142.797 15.9456C142.797 16.2989 142.678 16.4732 142.438 16.4732C142.558 16.4732 142.616 16.5341 142.616 16.6508H142.797C142.797 16.6508 142.886 16.6216 143.066 16.5626C143.247 16.5056 143.456 16.3585 143.692 16.1232C144.052 16.0066 144.231 15.7713 144.231 15.4181C144.231 15.3014 144.171 15.2424 144.052 15.2424L143.873 15.0668H142.977L142.438 15.4181C142.678 15.4181 142.797 15.5944 142.797 15.9456ZM132.759 17.1784H132.4L131.861 20.349C132.221 20.349 132.521 20.2323 132.759 19.997C132.999 19.997 133.118 19.8201 133.118 19.4701V19.2925C132.999 19.1752 132.937 19.1162 132.937 19.1162C132.937 18.9996 132.879 18.8829 132.759 18.765L132.4 18.413C132.639 18.1778 132.818 18.0287 132.937 17.9717C133.058 17.914 133.176 17.8258 133.296 17.7079C133.296 17.7079 133.176 17.5912 132.937 17.3559C132.937 17.238 132.879 17.1784 132.759 17.1784ZM139.879 21.8118H135.732V25.7471H135.883V25.4179L136.552 25.7471H140.66C141.087 25.7426 141.519 25.6318 141.954 25.4244C142.4 25.2085 142.807 24.9286 143.186 24.5812C143.565 24.2312 143.865 23.8455 144.094 23.4256C144.332 23.0049 144.451 22.5811 144.457 22.1578V19.1162H144.41C143.573 19.1162 143.155 18.8226 143.155 18.2354C143.634 18.2354 143.993 18.2944 144.231 18.413C144.313 18.413 144.389 18.4195 144.457 18.4338V3.58604L144.447 3.40327L144.41 3.44345C144.41 3.67872 144.291 3.79538 144.052 3.79538H143.692C143.692 3.67872 143.634 3.61909 143.515 3.61909C143.617 3.21466 143.897 2.98458 144.355 2.92884C144.295 2.72598 144.209 2.52312 144.094 2.32156C143.865 1.89574 143.565 1.514 143.186 1.16532C142.807 0.816628 142.4 0.530808 141.954 0.324059C141.785 0.243044 141.617 0.176936 141.45 0.125735C141.287 0.349984 141.165 0.620249 141.083 0.938474V1.11606C141.083 1.58594 141.202 1.93787 141.441 2.17314C141.441 2.40776 141.471 2.61191 141.531 2.7882C141.589 2.96449 141.62 3.17059 141.62 3.40586V3.75714C141.62 4.10842 141.5 4.28471 141.261 4.28471C141.142 4.28471 140.844 4.10842 140.366 3.75714C139.887 3.40586 139.648 3.11291 139.648 2.87764C139.648 2.75774 139.708 2.70006 139.829 2.70006H140.007C140.366 2.70006 140.546 2.46544 140.546 1.99555C140.546 1.64363 140.484 1.40836 140.366 1.2917C140.245 1.17374 140.185 0.999398 140.185 0.764131C140.185 0.510069 140.255 0.254062 140.396 0H139.84L139.829 0.0589787C139.704 0.0589787 139.596 0.0401833 139.505 0H135.732V0.740151C135.901 0.853571 135.986 1.0506 135.986 1.32994C135.986 1.52826 135.901 1.72464 135.732 1.92297V3.90102H139.879V4.98338L139.927 5.0281L139.879 5.0605V5.67233C140.059 5.56085 140.257 5.46363 140.467 5.38003C141.184 5.1467 141.663 4.73385 141.901 4.14925C142.021 4.26591 142.141 4.38387 142.26 4.50053C142.38 4.61913 142.499 4.79348 142.616 5.0281C142.738 5.1467 142.826 5.26336 142.886 5.38003C142.946 5.49863 143.036 5.61529 143.155 5.73325C143.155 5.96852 143.036 6.08518 142.797 6.08518H142.079L141.721 6.96467C141.603 6.96467 141.423 6.84801 141.184 6.61339C141.184 6.61339 141.155 6.55506 141.095 6.43711C141.036 6.32044 140.945 6.20378 140.826 6.08518L140.645 5.90824C140.527 5.90824 140.467 5.96852 140.467 6.08518V6.26147C140.467 6.49608 140.287 6.61339 139.927 6.61339H139.879V16.4732H140.108L139.879 16.6249V17.7416C139.949 17.7202 140.025 17.7079 140.108 17.7079C140.467 17.7079 140.645 17.9431 140.645 18.413V18.765C140.527 18.8829 140.467 18.9996 140.467 19.1162L140.108 19.4701C140.108 19.6982 140.032 19.927 139.879 20.1558V21.8118Z" fill="white"/>
  <path fill-rule="evenodd" clip-rule="evenodd" d="M157.071 14.0732V10.8385C156.853 10.8359 156.744 10.7782 156.744 10.6635C156.744 10.436 156.853 10.3193 157.071 10.3116V10.1385H152.329V14.0732H157.071ZM158 25.7471V21.8118H156.224V22.6388H155.878V21.8118H154.901C154.77 22.012 154.516 22.1112 154.139 22.1112C153.819 22.1112 153.647 22.0107 153.622 21.8118H152.684C152.728 21.8662 152.752 21.9673 152.752 22.1112C152.752 22.3458 152.692 22.4631 152.577 22.4631C152.469 22.4631 152.386 22.4359 152.329 22.386V25.7471H158ZM147.037 0V9.07041C147.421 9.39382 147.616 9.7963 147.616 10.2733C147.616 10.6246 147.44 10.8022 147.095 10.8022L147.037 10.7251V25.7471H151.435V18.0553C151.269 18.0404 151.187 17.9827 151.187 17.8835C151.187 17.6852 151.269 17.5705 151.435 17.5387V7.10402C151.435 6.86875 151.32 6.75015 151.088 6.75015C150.972 6.75015 150.915 6.86875 150.915 7.10402C150.915 7.33864 150.972 7.4553 151.088 7.4553C151.32 7.4553 151.435 7.33864 151.435 7.10402V0.197676L150.839 0.80237H150.319L150.824 0H147.037ZM155.257 0.938474L153.868 1.64363V1.82121L154.04 1.99555C154.157 1.99555 154.215 2.05583 154.215 2.17314L154.562 2.52312C154.794 2.2911 154.911 1.99555 154.911 1.64363L155.257 0.938474ZM147.963 0.410907C147.963 0.880792 148.136 1.35133 148.483 1.82121C148.715 2.2911 148.946 2.64302 149.178 2.87764H149.7C149.7 2.2911 149.525 1.70261 149.178 1.11606C149.062 0.646173 148.658 0.410907 147.963 0.410907ZM149.451 5.38003C149.219 5.38003 149.104 5.49863 149.104 5.73325H149.625C149.625 5.49863 149.565 5.38003 149.451 5.38003ZM156.571 22.6388C156.339 22.6388 156.224 22.7554 156.224 22.99C156.224 23.1086 156.339 23.1676 156.571 23.1676C156.687 23.1676 156.744 23.1086 156.744 22.99L156.571 22.6388ZM150.319 15.0668C150.087 15.0668 149.972 15.1848 149.972 15.4181C149.972 15.5367 150.087 15.5944 150.319 15.5944C150.435 15.5944 150.492 15.5367 150.492 15.4181C150.492 15.1848 150.435 15.0668 150.319 15.0668ZM150.667 1.32994C150.435 1.32994 150.319 1.44854 150.319 1.68187C150.319 1.91713 150.435 2.03509 150.667 2.03509C150.782 2.03509 150.839 1.91713 150.839 1.68187C150.839 1.44854 150.782 1.32994 150.667 1.32994ZM149.972 12.4244H150.319V11.5436H149.972V12.4244ZM153.097 2.91459L153.793 3.61974C153.793 3.50113 153.851 3.4441 153.966 3.4441C154.083 3.32744 154.139 3.20883 154.139 3.09217L153.619 2.56266C153.502 2.56266 153.444 2.62164 153.444 2.73895C153.329 2.8569 153.213 2.91459 153.097 2.91459ZM152.329 0V3.90102H158V2.41618C157.786 2.60414 157.508 2.70006 157.167 2.70006C157.167 2.23017 157.341 1.99555 157.688 1.99555H157.863L158 2.06555V0H157.302C157.174 0.156196 157.071 0.234619 156.994 0.234619C156.804 0.234619 156.617 0.156196 156.427 0H155.53C155.453 0.0252766 155.394 0.0576825 155.357 0.0972177V0H154.545C154.521 0.193139 154.467 0.33054 154.389 0.410907C154.389 0.764131 154.272 0.938474 154.04 0.938474V0H152.329Z" fill="white"/>
  <path fill-rule="evenodd" clip-rule="evenodd" d="M62.6303 55.9971C63.0553 56.014 63.4869 55.9232 63.9224 55.7074C64.3692 55.4936 64.7757 55.2071 65.1538 54.8442C65.5312 54.4813 65.8328 54.0879 66.0638 53.6641C66.3013 53.2338 66.4214 52.8158 66.4241 52.4088V45.6503H61.847V52.0621H57.6976V55.9971H62.6303ZM56.0301 30.252C55.5978 30.2571 55.161 30.3621 54.7162 30.5701C54.2754 30.7814 53.865 31.0601 53.4941 31.4081C53.1212 31.7502 52.8217 32.1404 52.5894 32.5558C52.3597 32.9815 52.2403 33.4054 52.2363 33.8415V46.9866L53.5753 46.5064V48.4441L52.8573 49.1491C52.7385 49.0293 52.6494 48.9145 52.5894 48.7979C52.5386 48.6949 52.4191 48.5951 52.2363 48.494V51.7213H52.3155V52.427C52.2878 52.4542 52.2614 52.4892 52.2403 52.53C52.2634 52.9195 52.3802 53.3096 52.5894 53.6946C52.8217 54.1119 53.1212 54.4943 53.4941 54.8442C53.865 55.1929 54.2754 55.4702 54.7162 55.6789C55.161 55.8863 55.5978 55.9919 56.0301 55.9971H56.7757V30.252H56.0301ZM56.2604 48.9048C56.0208 48.9048 55.902 49.0234 55.902 49.2587C55.902 49.3747 56.0208 49.4323 56.2604 49.4323C56.3805 49.4323 56.4412 49.3747 56.4412 49.2587C56.4412 49.0234 56.3805 48.9048 56.2604 48.9048ZM60.0257 55.2441V55.5973C60.0257 55.8319 60.2653 55.9492 60.7437 55.9492V54.7146C60.3834 55.0678 60.1458 55.2441 60.0257 55.2441ZM60.5629 52.9564C60.685 52.9564 60.7437 53.1301 60.7437 53.484C60.8625 53.6006 60.9212 53.8352 60.9212 54.1871C61.1601 53.484 61.2809 53.1301 61.2809 53.1301C61.2809 52.6622 61.1014 52.427 60.7437 52.427C60.6229 52.5436 60.5629 52.7212 60.5629 52.9564ZM63.252 46.7909H62.8956C62.8956 47.2614 63.1345 47.496 63.6096 47.496C63.8498 47.7312 64.1494 47.8479 64.5091 47.8479V47.496L63.9699 46.9672L63.252 46.7909ZM63.252 51.37V53.1301C63.4915 53.1301 63.8498 53.0135 64.3283 52.7782C64.6866 52.7782 64.8674 52.5436 64.8674 52.0732C64.8674 51.7213 64.6866 51.5456 64.3283 51.5456C64.0887 51.3123 63.8498 51.1944 63.6096 51.1944C63.374 51.1944 63.252 51.2514 63.252 51.37ZM53.5753 36.4713C53.4552 36.4713 53.3964 36.5283 53.3964 36.6469L53.5753 36.4713ZM65.59 36.1194H65.2297V36.2937H65.4092C65.5279 36.2937 65.59 36.2361 65.59 36.1194ZM53.9336 44.2168V44.7463C54.0543 44.7463 54.1144 44.6873 54.1144 44.5707C54.1144 44.3354 54.0543 44.2168 53.9336 44.2168ZM53.9336 48.4441C53.694 48.4441 53.5753 48.5627 53.5753 48.7979C53.5753 49.0293 53.694 49.1491 53.9336 49.1491V48.4441ZM54.6515 44.7463H54.2932C54.412 44.8649 54.4727 44.9815 54.4727 45.1001L54.6515 45.2744H55.0099C55.0099 45.1571 54.9511 45.1001 54.8324 45.1001C54.7116 44.9815 54.6515 44.8649 54.6515 44.7463ZM54.1144 49.4997C53.8748 49.4997 53.7561 49.6767 53.7561 50.0285H54.6515C54.6515 49.6767 54.4727 49.4997 54.1144 49.4997ZM54.2932 48.2684C54.2932 48.737 54.5314 48.9716 55.0099 48.9716C55.4883 48.9716 55.7278 48.737 55.7278 48.2684C55.7278 47.9153 55.4883 47.7409 55.0099 47.7409H54.6515C54.412 47.9742 54.2932 48.1498 54.2932 48.2684ZM66.4241 33.8415C66.4214 33.4177 66.3013 32.9939 66.0638 32.5765C65.9331 32.3354 65.78 32.1067 65.6025 31.8909H65.59L65.5913 31.8786C65.458 31.7185 65.3128 31.5649 65.1538 31.4178C64.7757 31.0711 64.3692 30.7859 63.9224 30.5766C63.4869 30.3673 63.0553 30.2571 62.6303 30.252H57.6976V34.1532H61.847V39.3811H66.4241V33.8415Z" fill="white"/>
  <path fill-rule="evenodd" clip-rule="evenodd" d="M67.1039 55.7865L67.0684 55.9991H67.461L67.315 55.9511L67.1039 55.7865ZM76.3312 47.0803H73.0066L73.221 45.4892L72.4969 44.856C72.2588 44.6214 72.0201 44.4146 71.7813 44.2409C71.5432 44.0633 71.246 43.8566 70.8888 43.6213C71.0079 43.5066 71.0658 43.3899 71.0658 43.2713C71.0658 43.1547 71.1874 43.0944 71.4262 43.0944H73.5432L74.6692 34.7479L74.0694 30.252H71.3821L67.9431 50.7798C68.0273 50.8472 68.1167 50.9269 68.2088 51.0183C68.5659 51.6068 68.7461 51.9581 68.7461 52.0747H68.3857C68.1358 52.0747 67.9181 52.0656 67.7306 52.0449L67.4577 53.6743C67.5228 53.6646 67.5958 53.66 67.6734 53.66C68.1502 53.66 68.3857 53.837 68.3857 54.1889V55.9991H71.8043L72.0733 54.0087C71.9569 54.128 71.801 54.1889 71.6031 54.1889C71.0079 54.1889 70.7106 54.0132 70.7106 53.66C70.7106 53.3081 70.7691 53.0728 70.8888 52.9581C71.0079 52.9581 71.0658 52.7799 71.0658 52.4286C71.0658 51.9581 70.831 51.7228 70.3535 51.7228H70.1733C69.6965 51.7228 69.4584 51.6068 69.4584 51.3715L69.8168 51.0183C69.9352 50.9016 69.995 50.8439 69.995 50.8439C69.995 50.7253 70.0549 50.6087 70.1733 50.4907H70.3535C71.0658 50.4907 71.5432 50.7863 71.7813 51.3715C72.0266 51.7746 72.1904 52.1771 72.2667 52.5803L72.4778 51.0202H76.8632L76.8067 50.6009C76.6363 50.4855 76.5245 50.3229 76.4706 50.1148C76.4706 49.7661 76.5291 49.5328 76.6455 49.4142L76.3312 47.0803ZM77.0079 40.4287H76.4706L76.8277 40.7806L77.0079 40.4287ZM68.9664 49.2321C68.7277 49.2321 68.6093 49.352 68.6093 49.5872C68.6093 49.8186 68.7277 49.9372 68.9664 49.9372C69.0861 49.9372 69.1453 49.8186 69.1453 49.5872C69.1453 49.352 69.0861 49.2321 68.9664 49.2321ZM82.5048 53.4857C82.3865 53.4857 82.3246 53.6023 82.3246 53.837C82.3246 54.0722 82.3865 54.1889 82.5048 54.1889C82.6252 54.1889 82.6831 54.0722 82.6831 53.837C82.6831 53.6023 82.6252 53.4857 82.5048 53.4857ZM81.7899 51.901C81.6709 51.901 81.611 52.0177 81.611 52.253C81.611 52.3709 81.6709 52.4286 81.7899 52.4286C82.028 52.4286 82.1484 52.3709 82.1484 52.253C82.1484 52.0177 82.028 51.901 81.7899 51.901ZM70.1733 43.7989H69.995C69.2815 43.7989 68.923 44.3265 68.923 45.3836C69.7583 45.3836 70.3535 45.0316 70.7106 44.3265L70.5304 43.9765L70.1733 43.7989ZM77.1099 32.7187L77.467 33.0706C77.467 32.954 77.4071 32.8969 77.2868 32.8969L77.1099 32.7187ZM76.5732 31.3103C76.3345 31.3103 76.2148 31.427 76.2148 31.6616C76.2148 31.8969 76.3345 32.0135 76.5732 32.0135C76.6916 32.0135 76.7514 31.8969 76.7514 31.6616C76.7514 31.427 76.6916 31.3103 76.5732 31.3103ZM71.9668 44.5715V45.2753H72.3232C72.3232 44.8048 72.2049 44.5715 71.9668 44.5715ZM74.9895 30.252L77.2348 46.9364C77.3532 46.823 77.5143 46.7686 77.7228 46.7686V47.2962C77.7228 47.5275 77.6064 47.7583 77.3756 47.9896L77.4926 48.8562L77.5433 48.8821H78.0799C77.9616 48.9968 77.8997 49.1744 77.8997 49.4097C77.8997 49.6443 77.9616 49.8186 78.0799 49.9372V50.4667C78.0799 50.6903 77.9727 50.8051 77.7557 50.8167L78.1128 53.463C78.2306 53.4915 78.3983 53.6665 78.6153 53.988V55.0444C78.5166 55.0444 78.416 55.0237 78.3174 54.9841L78.4529 55.9991H83.1908L82.0116 48.9061C81.6808 49.3585 81.3835 49.5872 81.1178 49.5872C81.1178 48.6468 80.8192 48.1769 80.224 48.1769C79.7465 48.1769 79.5078 47.9417 79.5078 47.4737V45.1839L80.0451 44.6544C80.5936 45.5184 81.0921 45.9863 81.538 46.0557L81.0724 43.2474H80.7607C80.6423 43.1275 80.5805 42.6576 80.5805 41.8371V40.2945L78.9113 30.252H74.9895Z" fill="white"/>
  <path fill-rule="evenodd" clip-rule="evenodd" d="M96.0196 55.9991V47.9276C95.689 48.0592 95.4097 48.3178 95.1797 48.7047C94.8325 49.2912 94.3674 49.5874 93.7876 49.5874C93.3231 49.5874 93.0336 49.5265 92.917 49.4098C92.3366 49.2912 91.9887 49.1175 91.8721 48.8823C91.8721 48.647 91.9887 48.1771 92.2213 47.474C92.3366 47.0041 92.7427 46.7688 93.4385 46.7688V47.1201L93.0906 47.6483C92.9753 47.8829 92.8869 48.0605 92.8299 48.1771C92.7728 48.2951 92.7427 48.3534 92.7427 48.3534C92.858 48.3534 92.9753 48.4118 93.0906 48.5304V48.7047H93.2661C93.7306 48.7047 94.0785 48.5304 94.3104 48.1771V47.1201L94.4417 47.124V46.9684H94.7896V47.1765C94.8831 47.205 94.9555 47.2452 95.0048 47.2964C95.354 47.2964 95.5276 47.3553 95.5276 47.474V46.9445C95.5276 46.4882 95.6922 46.2529 96.0196 46.2393V30.252H91.6114V55.9991H92.2321L92.1783 55.9511H93.2232L93.1764 55.9991H96.0196ZM90.7478 36.1743V32.2734H87.7881C87.4101 32.2779 87.0283 32.3654 86.6439 32.5462C86.2602 32.7258 85.904 32.9643 85.5792 33.2643C85.2499 33.5683 84.9923 33.8995 84.7886 34.2721C84.5894 34.6409 84.4856 35.0187 84.4805 35.4082V45.1071L85.0827 45.1836C85.0827 45.1836 85.0538 45.2704 84.9968 45.448C84.9385 45.6236 84.8533 45.8893 84.7361 46.2393C84.7361 46.7098 84.6778 47.0041 84.5605 47.1201L84.4805 47.0695V49.9387C84.4856 50.3321 84.5894 50.7164 84.7886 51.0826C84.9923 51.4526 85.2499 51.7845 85.5792 52.0748C85.904 52.371 86.2602 52.6043 86.6439 52.7709C87.0283 52.9465 87.4101 53.0334 87.7881 53.0379H90.7478V51.1668C90.4531 51.1241 90.3064 50.8298 90.3064 50.2887C90.4672 50.2887 90.6158 50.31 90.7478 50.3528V49.1363H88.8887V36.1743H90.7478ZM95.8774 50.8182H95.5276V51.1714L95.8774 50.8182ZM100.054 46.4169L99.88 46.7688L100.054 47.1201V46.4169ZM85.6054 50.8182L85.4331 50.6425C85.3146 50.6425 85.2576 50.7015 85.2576 50.8182C85.2576 50.9368 85.3146 50.9938 85.4331 50.9938C85.5471 50.9938 85.6054 50.9368 85.6054 50.8182ZM95.0048 40.781H94.6582V41.3086C94.8889 41.3086 95.0048 41.1342 95.0048 40.781ZM98.8358 52.0515C98.7205 52.0515 98.6635 52.1675 98.6635 52.4028C98.6635 52.5214 98.7205 52.579 98.8358 52.579C98.9524 52.579 99.0094 52.5214 99.0094 52.4028C99.0094 52.1675 98.9524 52.0515 98.8358 52.0515ZM86.9994 45.8893C86.8828 45.8893 86.8239 46.0041 86.8239 46.2393C86.8239 46.3566 86.8828 46.4169 86.9994 46.4169C87.1154 46.4169 87.1718 46.3566 87.1718 46.2393C87.1718 46.0041 87.1154 45.8893 86.9994 45.8893ZM95.0048 33.3842L94.6582 32.5054V33.3842H95.0048ZM87.6952 41.3086C87.4645 41.3086 87.3473 41.4265 87.3473 41.6618C87.3473 41.8951 87.4645 42.013 87.6952 42.013C87.8118 42.013 87.8694 41.8951 87.8694 41.6618C87.8694 41.4265 87.8118 41.3086 87.6952 41.3086ZM95.5276 39.5496C95.2969 39.5496 95.1797 39.665 95.1797 39.9002C95.1797 40.1349 95.2969 40.2515 95.5276 40.2515C95.6454 40.2515 95.7018 40.1349 95.7018 39.9002C95.7018 39.665 95.6454 39.5496 95.5276 39.5496ZM102.143 39.724H101.796C101.911 40.0778 102.143 40.2515 102.491 40.2515H102.84C102.609 39.9002 102.376 39.724 102.143 39.724ZM86.3024 49.2323L85.6054 49.5874C85.7227 49.7028 85.7797 49.8188 85.7797 49.9374H86.3024L86.476 49.5874L86.3024 49.2323ZM87.3473 48.0015C87.3473 48.4701 87.5216 48.7047 87.8694 48.7047C87.986 48.7047 88.1596 48.588 88.3922 48.3534C88.5088 48.2348 88.5664 48.0015 88.5664 47.6483C88.5664 47.5316 88.3922 47.474 88.0443 47.474C87.5799 47.474 87.3473 47.6483 87.3473 48.0015ZM102.491 51.6276C102.635 51.4501 102.762 51.266 102.872 51.0677C102.991 50.8538 103.076 50.6347 103.126 50.4105C103.026 50.1901 102.973 49.9244 102.973 49.6114L103.183 49.6179V47.1745C103.043 47.0008 102.973 46.7578 102.973 46.4409C102.973 46.089 103.03 45.8537 103.145 45.7357C103.145 45.5854 103.158 45.459 103.183 45.3566V35.4082C103.177 35.0311 103.073 34.6552 102.867 34.289C102.66 33.917 102.392 33.578 102.057 33.2773C101.731 32.9766 101.374 32.7322 100.99 32.5514C100.607 32.3725 100.238 32.2779 99.8768 32.2734H96.9139V35.254C97.2285 35.1957 97.5795 35.0998 97.9665 34.9688L98.1388 35.2086C98.1657 35.1944 98.1971 35.1834 98.2381 35.1834C98.2381 34.9481 98.2951 34.8327 98.4117 34.8327V35.591L99.3573 36.9086H98.741V46.8421C98.7788 46.9237 98.8102 47.0164 98.8358 47.1201C98.8358 47.5906 99.0094 47.8829 99.3573 48.0015H99.5328C99.6481 48.0015 99.8217 47.8829 100.054 47.6483V48.0015C100.054 48.588 99.7647 48.8823 99.185 48.8823C99.5328 48.997 99.88 49.2323 100.229 49.5874C100.577 49.9374 100.867 50.115 101.099 50.115H101.274C101.503 50.115 101.621 50.054 101.621 49.9374C101.621 50.1726 101.736 50.4079 101.968 50.6425C102.085 50.7592 102.172 50.8758 102.231 50.9938C102.287 51.1111 102.376 51.229 102.491 51.3457V51.6276ZM95.4866 51.0184H95.1374V51.7229C95.3693 51.4883 95.4866 51.253 95.4866 51.0184ZM99.6654 40.4531C99.4329 40.4531 99.3176 40.5717 99.3176 40.8063C99.3176 40.9236 99.4329 40.9806 99.6654 40.9806C99.7788 40.9806 99.839 40.9236 99.839 40.8063L99.6654 40.4531ZM99.142 42.7428V43.9768H99.4899V43.4479C99.4899 43.2127 99.3746 42.9774 99.142 42.7428ZM102.1 49.2601H101.405C101.405 49.7293 101.636 49.962 102.1 49.962V49.2601ZM94.9651 52.253H94.7896V52.9582H95.4866C95.4866 52.4877 95.313 52.253 94.9651 52.253ZM93.1905 31.6622C92.958 31.6622 92.8414 31.7789 92.8414 32.0141C92.8414 32.2488 92.958 32.3674 93.1905 32.3674C93.3058 32.3674 93.3641 32.2488 93.3641 32.0141C93.3641 31.7789 93.3058 31.6622 93.1905 31.6622ZM94.4071 33.0712H94.2348C94.2348 32.8359 94.1784 32.7193 94.0612 32.7193C93.8292 32.7193 93.7133 32.8359 93.7133 33.0712C93.7133 33.4244 93.9458 33.5987 94.4071 33.5987C94.5243 33.5987 94.5826 33.5411 94.5826 33.4244C94.5826 33.1898 94.5243 33.0712 94.4071 33.0712ZM87.6196 33.952L86.9238 34.6552L87.6196 35.1834C87.8515 34.9481 87.9681 34.7738 87.9681 34.6552C87.9681 34.1853 87.8515 33.952 87.6196 33.952ZM94.7562 36.4173V35.7122C93.9458 35.7122 93.5378 35.9475 93.5378 36.4173H94.7562ZM97.1176 49.1363H96.9139V51.5712C97.0337 51.789 97.0939 52.0657 97.0939 52.4028C97.0292 52.4028 96.969 52.3976 96.9139 52.3885V53.0379H99.8768C100.143 53.0347 100.416 52.988 100.69 52.8953C100.758 52.8124 100.838 52.7087 100.923 52.579C100.923 52.2291 100.982 52.0515 101.099 52.0515V51.8739C101.099 51.5233 100.751 51.3457 100.054 51.3457H99.185L98.6635 50.8182C98.4309 50.8182 98.2554 50.8758 98.1407 50.9938C98.0235 51.1111 97.8479 51.1714 97.6186 51.1714L97.4437 50.8182C97.2112 50.5835 97.0939 50.4662 97.0939 50.4662L96.9216 50.2887C96.9216 50.2012 96.9882 49.8175 97.1176 49.1363Z" fill="white"/>
  <path fill-rule="evenodd" clip-rule="evenodd" d="M113.301 47.0803H110.077L111.688 34.7479L111.106 30.252H108.501L104.473 55.045H104.509V55.572C104.509 55.7353 104.501 55.8792 104.487 55.9991H106.76V55.9252C106.973 55.9252 107.164 55.9492 107.334 55.9991H108.913L109.561 51.0202H113.814L113.301 47.0803ZM107.453 54.8701L107.279 54.6931V55.045H107.453V54.8701ZM107.972 36.7305L107.799 36.553C107.684 36.553 107.628 36.6119 107.628 36.7305V36.9081H107.799C107.916 36.9081 107.972 36.8472 107.972 36.7305ZM111.091 33.7375C111.091 33.6189 111.033 33.5612 110.917 33.5612L110.745 33.7375C110.745 33.8542 110.802 33.9112 110.917 33.9112C111.033 33.9112 111.091 33.8542 111.091 33.7375ZM108.319 42.0133C108.087 42.0133 107.972 42.13 107.972 42.3653C107.972 42.4832 108.087 42.5422 108.319 42.5422C108.435 42.5422 108.493 42.4832 108.493 42.3653C108.493 42.13 108.435 42.0133 108.319 42.0133ZM107.279 49.2321L107.107 49.5872C107.337 49.8193 107.568 49.9372 107.799 49.9372C107.799 49.7026 107.628 49.4673 107.279 49.2321ZM116.463 50.1148V50.4667V50.8187C116.463 50.9366 116.577 51.111 116.808 51.3462C116.808 51.5809 116.982 51.8738 117.328 52.229C117.56 51.9937 117.674 51.5232 117.674 50.8187V50.4667C117.674 50.1148 117.56 49.9372 117.328 49.9372H116.808C116.691 50.0539 116.577 50.1148 116.463 50.1148ZM108.626 50.6664V51.1959C108.626 51.3145 108.738 51.4882 108.97 51.7234C109.088 51.7234 109.144 51.6658 109.144 51.5472L109.319 51.3722C109.319 50.9016 109.088 50.6664 108.626 50.6664ZM111.996 30.252L114.819 51.8868C114.876 51.973 114.903 52.0864 114.903 52.229L114.89 52.4299L115.356 55.9991H117.467L117.501 55.9252L117.674 54.3412C117.905 54.3412 118.194 54.5745 118.541 55.045C118.885 55.397 119.1 55.7146 119.188 55.9991H119.95L118.865 49.2645L118.813 49.2723C118.695 49.2723 118.639 49.2133 118.639 49.096C118.639 48.884 118.686 48.7674 118.781 48.7479L115.801 30.252H111.996Z" fill="white"/>
  <path fill-rule="evenodd" clip-rule="evenodd" d="M124.252 53.0742L124.221 53.1079C124.142 53.1883 124.088 53.2952 124.063 53.4294C124.085 53.3911 124.114 53.3529 124.146 53.3218C124.146 53.2563 124.18 53.1747 124.252 53.0742ZM121.24 30.252V42.1952L121.33 42.1414C121.447 42.0805 121.564 41.9923 121.681 41.8776V42.2276C121.681 42.3442 121.622 42.4622 121.507 42.5795C121.387 42.6974 121.33 42.8141 121.33 42.9327L121.24 42.8718V54.7022L121.406 54.8701V55.0444H121.24V55.9991H123.829L123.165 54.3406C122.93 53.4008 122.754 52.756 122.638 52.4028C122.52 52.0515 122.46 51.5803 122.46 50.9938C123.752 50.9938 124.399 51.5226 124.399 52.5784C124.399 52.7625 124.362 52.9096 124.29 53.0211C124.344 52.9524 124.414 52.8772 124.496 52.7942L124.847 53.4993V55.6037L124.883 55.5992L125.06 55.9505L125.057 55.9991H125.697V43.7435C125.614 43.7798 125.52 43.7992 125.411 43.7992V42.7428H125.697V40.5697C125.64 40.5931 125.559 40.6047 125.454 40.6047C125.335 40.6047 125.277 40.5457 125.277 40.4291C125.277 40.3105 125.335 40.2515 125.454 40.2515C125.535 40.2515 125.615 40.2787 125.697 40.3364V30.252H121.24ZM124.926 48.8823C124.691 48.8823 124.573 48.997 124.573 49.2323C124.573 49.4675 124.691 49.5874 124.926 49.5874C125.042 49.5874 125.1 49.4675 125.1 49.2323C125.1 48.997 125.042 48.8823 124.926 48.8823ZM126.6 47.0099H126.685V46.4163H126.6V47.0099ZM125.411 50.6665C125.293 50.6665 125.234 50.7255 125.234 50.8441L125.411 51.0184C125.528 51.0184 125.588 50.9607 125.588 50.8441C125.588 50.7255 125.528 50.6665 125.411 50.6665ZM123.651 41.3338V41.6858C123.769 41.8037 123.829 41.98 123.829 42.2146H124.004C124.356 42.2146 124.533 41.8633 124.533 41.1576V40.2787H124.499C124.621 39.816 124.851 39.5859 125.2 39.5859C125.435 39.3513 125.552 39.0584 125.552 38.7071C125.552 38.0019 125.318 37.65 124.847 37.65L124.496 37.8257C124.261 38.2955 124.028 38.6462 123.793 38.8814C123.793 39.116 123.911 39.3513 124.146 39.5859C124.376 39.816 124.493 40.048 124.496 40.2787C123.93 40.293 123.651 40.6443 123.651 41.3338ZM133.647 40.1154H133.999C133.999 39.9975 133.941 39.9378 133.821 39.9378C133.707 39.9378 133.647 39.9975 133.647 40.1154ZM125.2 48.0391L124.847 47.6872V48.0391H125.2ZM131.182 40.1154C131.066 40.1154 131.008 40.2321 131.008 40.4673C131.008 40.5853 131.066 40.643 131.182 40.643C131.3 40.643 131.36 40.5853 131.36 40.4673C131.36 40.2321 131.3 40.1154 131.182 40.1154ZM133.647 43.8135C133.529 43.8135 133.472 43.9301 133.472 44.1654C133.472 44.284 133.529 44.341 133.647 44.341C133.764 44.341 133.821 44.284 133.821 44.1654C133.821 43.9301 133.764 43.8135 133.647 43.8135ZM122.208 30.4295C122.092 30.4295 122.034 30.5475 122.034 30.7827C122.034 30.8994 122.092 30.9571 122.208 30.9571C122.443 30.9571 122.561 30.8994 122.561 30.7827C122.561 30.5475 122.443 30.4295 122.208 30.4295ZM122.034 54.2012L121.33 54.0276V54.2012C121.33 54.3211 121.387 54.4365 121.507 54.5564L121.681 54.9064C121.681 54.7884 121.741 54.6718 121.857 54.5564C121.977 54.4365 122.034 54.3211 122.034 54.2012ZM129.776 31.3103V32.7193C129.776 32.9545 129.952 33.0712 130.304 33.0712C130.539 33.0712 130.951 32.8969 131.535 32.5417C132.005 32.4263 132.239 32.1321 132.239 31.6622C132.239 31.4276 132.121 31.1917 131.887 30.9571C131.887 30.7218 131.652 30.5475 131.182 30.4295C130.951 30.4295 130.716 30.5475 130.481 30.7827L129.776 31.3103ZM130.328 43.0746H126.6V44.6417C126.939 44.4162 127.201 44.3028 127.389 44.3028C127.859 44.3028 128.094 44.5368 128.094 45.0066C128.094 45.4765 128.326 45.7694 128.795 45.8893C128.68 46.0041 128.56 46.1531 128.446 46.3268L127.99 47.0099H128.512L128.543 46.9827C128.778 46.8641 129.072 46.8071 129.425 46.8071H129.776C129.894 46.8071 129.952 46.8641 129.952 46.9827V47.0099H131.057C131.474 47.0054 131.901 46.8945 132.329 46.6852C132.765 46.4713 133.167 46.1914 133.535 45.844C133.908 45.4959 134.203 45.1038 134.429 44.6884C134.662 44.2678 134.777 43.8452 134.783 43.4201V33.8418C134.777 33.4179 134.662 32.9941 134.429 32.5767L134.365 32.462L134.176 32.3674V32.158C133.996 31.8942 133.782 31.648 133.535 31.4179C133.356 31.25 133.168 31.0945 132.973 30.9571H132.943V30.9363C132.746 30.799 132.542 30.6784 132.329 30.5767C131.901 30.3667 131.474 30.2565 131.057 30.252H126.6V34.1535H130.328V37.4919C130.372 37.3616 130.483 37.2968 130.655 37.2968C130.773 37.2968 130.831 37.4148 130.831 37.65C130.831 37.7667 130.773 37.8257 130.655 37.8257C130.483 37.8257 130.372 37.7939 130.328 37.7285V43.0746Z" fill="white"/>
  <path fill-rule="evenodd" clip-rule="evenodd" d="M141.973 48.5451V52.2724H141.974L142.578 50.7111C142.522 50.6903 142.447 50.6813 142.352 50.6813V50.5037C142.466 50.5037 142.522 50.4467 142.522 50.3293C142.522 49.5924 142.341 48.9975 141.973 48.5451ZM138.076 51.0183C137.96 51.0183 137.904 51.0792 137.904 51.1959C137.904 51.3145 137.96 51.3722 138.076 51.3722V51.0183ZM137.386 53.66H137.214V54.1889H137.73C137.73 54.0729 137.616 53.8946 137.386 53.66ZM146.203 46.7926H146.005V47.4977H146.35V46.8535C146.599 46.9397 146.934 46.9825 147.351 46.9825C147.351 46.0427 147.121 45.5748 146.663 45.5748C146.389 45.4814 146.132 45.4062 145.894 45.3492V41.8759L145.972 41.8779C146.663 41.8779 147.006 41.5817 147.006 40.9952C146.546 40.9952 146.316 40.8778 146.316 40.6432L145.894 40.4274V30.252H150.262V49.6242H149.936C150.035 49.7246 150.143 49.8031 150.262 49.8608V55.9991H147.326C147.135 55.572 147.039 55.1436 147.039 54.7171C146.925 54.7171 146.751 54.8357 146.521 55.0703L146.35 55.246V55.9991H145.894V54.6555C146.1 54.7054 146.356 54.7307 146.663 54.7307C146.663 54.0307 146.405 53.5913 145.894 53.4137V48.8393C145.947 48.9689 145.972 49.2295 145.972 49.6242V49.9761H146.663C146.663 49.3889 146.718 49.0966 146.833 49.0966C146.948 48.978 147.006 48.8024 147.006 48.5671V48.3915C146.789 48.1692 146.418 48.0525 145.894 48.0415V46.6292L145.972 46.6312C146.033 46.6934 146.11 46.7465 146.203 46.7926ZM148.245 46.9682C148.13 46.9682 148.072 47.0881 148.072 47.3201C148.072 47.5554 148.13 47.6734 148.245 47.6734C148.476 47.6734 148.591 47.5554 148.591 47.3201C148.591 47.0881 148.476 46.9682 148.245 46.9682ZM139.11 45.9131C138.764 46.1483 138.593 46.5592 138.593 47.1458C139.051 47.1458 139.281 46.8535 139.281 46.2631V46.0887C139.281 45.9708 139.224 45.9131 139.11 45.9131ZM143.936 45.5611H142.571C142.54 45.2928 142.522 44.9461 142.522 44.519C142.522 44.519 142.409 44.6052 142.179 44.7828C142.121 44.8281 142.053 44.8722 141.973 44.9202V41.8552L142.591 40.2595L142.696 40.2913C142.926 40.408 143.386 40.4676 144.075 40.4676V39.7637C144.075 39.1752 143.846 38.881 143.386 38.881H143.126L145.041 33.9436V37.8978C144.972 37.9574 144.938 38.0501 144.938 38.1791C144.938 38.3074 144.972 38.3981 145.041 38.4571V40.3905C144.858 40.4786 144.765 40.6212 144.765 40.8208C144.765 41.1565 144.858 41.4125 145.041 41.5882V44.3615L144.7 45.2416C144.459 45.2831 144.251 45.3952 144.075 45.5748C143.961 45.6908 143.903 45.985 143.903 46.4555C143.787 46.5722 143.731 46.7478 143.731 46.9825C143.731 47.0998 143.673 47.2177 143.557 47.3344C143.33 47.5697 143.041 47.6876 142.696 47.6876V46.4886C142.755 46.5865 142.824 46.6889 142.901 46.7926C143.247 46.4406 143.419 46.206 143.419 46.0887C143.535 45.9708 143.591 45.9131 143.591 45.9131H143.765C143.765 45.7964 143.822 45.6785 143.936 45.5611ZM139.11 49.2599V50.1388C139.224 50.2574 139.281 50.6093 139.281 51.1959C139.398 51.4311 139.483 51.6068 139.541 51.7234C139.597 51.8414 139.628 51.901 139.628 51.901V51.1959C139.741 51.0792 139.799 50.8439 139.799 50.4907V49.9619C139.799 49.6119 139.569 49.3766 139.11 49.2599ZM149.247 47.3344L149.418 47.1607L149.247 46.9825C149.132 46.9825 149.075 47.0421 149.075 47.1607V47.3344H149.247ZM147.867 53.4999L147.523 52.9711V53.6749L147.867 53.4999ZM139.076 50.5037C138.961 50.5037 138.904 50.6236 138.904 50.8589C138.904 50.9736 138.961 51.0325 139.076 51.0325C139.192 51.0325 139.25 50.9736 139.25 50.8589C139.25 50.6236 139.192 50.5037 139.076 50.5037ZM137.87 33.9521C137.755 33.9521 137.697 34.0687 137.697 34.3033C137.697 34.5386 137.755 34.6553 137.87 34.6553C137.985 34.6553 138.042 34.5386 138.042 34.3033C138.042 34.0687 137.985 33.9521 137.87 33.9521ZM137.697 49.9761C137.467 49.9761 137.351 50.0941 137.351 50.3293C137.351 50.4467 137.467 50.5037 137.697 50.5037C137.811 50.5037 137.87 50.4467 137.87 50.3293L137.697 49.9761ZM149.936 37.6496C149.706 37.6496 149.592 37.7669 149.592 38.0015C149.592 38.1182 149.706 38.1791 149.936 38.1791C150.052 38.1791 150.108 38.1182 150.108 38.0015C150.108 37.7669 150.052 37.6496 149.936 37.6496ZM138.904 48.0395H137.87V48.7447H138.56C138.789 48.5094 138.904 48.2748 138.904 48.0395ZM139.937 48.5671C139.937 49.037 140.053 49.2729 140.282 49.2729C140.513 49.2729 140.627 49.0966 140.627 48.7447C140.627 48.2748 140.455 48.0395 140.11 48.0395V48.2171C139.996 48.3318 139.937 48.4492 139.937 48.5671ZM136.835 40.1157L137.351 40.8208C137.124 41.0522 137.007 41.2298 137.007 41.3484V41.5227L138.215 41.1721C138.215 40.9375 138.042 40.7022 137.697 40.4676C137.007 40.2323 136.72 40.1157 136.835 40.1157ZM136.719 45.1042V46.1658L137.007 45.5748C137.124 45.2209 137.237 45.0465 137.351 45.0465L137.525 45.2209H137.87C137.87 45.1042 137.927 44.9856 138.042 44.869L137.697 44.3414C137.309 44.6376 136.985 44.8897 136.719 45.1042ZM141.085 55.1824V54.2978C140.896 54.384 140.801 54.5278 140.801 54.7307V54.907L141.085 55.1824ZM136.719 55.9991H137.697V55.4359H137.87C138.215 55.4359 138.445 55.4935 138.56 55.6122C138.785 55.7658 138.937 55.8947 139.015 55.9991H139.966C139.373 55.4955 139.076 54.7793 139.076 53.8519C139.076 53.1467 139.48 52.7352 140.282 52.6178L141.085 52.4526V47.418C140.876 47.2469 140.665 47.1607 140.455 47.1607H140.11C139.65 47.1607 139.421 46.9825 139.421 46.6312C139.421 46.3966 139.937 45.985 140.971 45.3985L141.085 45.3518V30.252H136.719V32.5463C136.815 32.5625 136.913 32.6202 137.007 32.7193L136.719 32.5703V44.1657H138.904L139.937 43.8138C139.71 44.0484 139.593 44.2234 139.593 44.3414V44.6933C139.593 45.2799 139.25 45.5748 138.56 45.5748C137.87 45.5748 137.525 45.8683 137.525 46.4555C137.525 47.0421 137.582 47.3921 137.697 47.512C137.467 47.2767 137.295 47.1607 137.181 47.1607C136.95 46.9254 136.835 46.8068 136.835 46.8068L136.719 46.6869V55.9991Z" fill="white"/>
  <path fill-rule="evenodd" clip-rule="evenodd" d="M26.6384 41.282H25.9145C25.9145 41.5214 26.0385 41.6388 26.2764 41.6388C26.5182 41.6388 26.6384 41.5214 26.6384 41.282ZM42.8099 44.8835V43.803C42.5682 44.0449 42.4486 44.2842 42.4486 44.5261L42.0892 44.8835H42.8099ZM28.0715 18.5613V17.8414L26.9939 18.5613H28.0715ZM39.2147 38.3941V37.6741H38.8521C38.6174 37.6741 38.4965 37.7922 38.4965 38.0373C38.4965 38.2734 38.7344 38.3941 39.2147 38.3941ZM21.6036 21.448L21.2481 21.0848C21.0031 21.0848 20.8861 21.2067 20.8861 21.448C20.8861 21.6873 21.0031 21.8054 21.2481 21.8054C21.4828 21.8054 21.6036 21.6873 21.6036 21.448ZM31.6674 17.1209H30.2272V17.8414C30.7075 17.8414 31.1871 17.6014 31.6674 17.1209ZM35.2626 19.2851L34.5412 20.0056V20.7249H35.2626V19.2851ZM39.2147 36.2305C38.7344 36.2305 38.4965 36.4724 38.4965 36.9543C38.4965 37.1929 38.7344 37.311 39.2147 37.311C39.4564 37.311 39.576 37.1929 39.576 36.9543L39.2147 36.2305ZM34.1825 44.5261C33.7029 44.5261 33.4611 44.7661 33.4611 45.2473C33.4611 45.7279 33.7029 45.9672 34.1825 45.9672C34.421 45.7279 34.5412 45.486 34.5412 45.2473L34.1825 44.5261ZM16.9347 31.1821C16.4544 31.1821 16.2133 31.4202 16.2133 31.9014C16.2133 32.3833 16.4544 32.6226 16.9347 32.6226C17.1732 32.6226 17.2902 32.3833 17.2902 31.9014C17.2902 31.4202 17.1732 31.1821 16.9347 31.1821ZM33.8237 15.3166H33.4611V16.3971H34.9006C34.9006 15.6772 34.5412 15.3166 33.8237 15.3166ZM21.2481 47.047V38.3941L20.5235 38.7553L21.2481 47.047ZM38.8521 30.8215L39.2147 31.1821V31.9014C39.2147 32.1446 39.3317 32.3833 39.576 32.6226L40.2916 31.9014C40.2916 30.4584 40.5359 29.7378 41.0091 29.7378H41.7298C41.9683 29.7378 42.0892 29.3779 42.0892 28.658C41.8507 28.658 41.5466 28.7167 41.1917 28.8379C40.8336 28.9586 40.4112 29.0218 39.9315 29.0218C39.2147 29.7378 38.8521 30.3403 38.8521 30.8215ZM22.325 33.7095C19.4466 33.7095 18.0116 35.0287 18.0116 37.6741H20.8861C20.8861 37.1929 20.6482 36.7123 20.168 36.2305C21.6036 35.9912 22.325 35.15 22.325 33.7095ZM32.7475 37.6741C32.7475 37.9128 32.3842 38.1554 31.6674 38.3941C31.4282 38.6366 31.1871 38.7553 30.9486 38.7553H34.5412C34.5412 38.0373 34.783 37.6741 35.2626 37.6741C35.2626 37.1929 35.3218 36.8917 35.4426 36.771C35.5596 36.653 35.6181 36.4724 35.6181 36.2305V33.7095C36.0978 32.5045 36.6983 31.9014 37.4196 31.9014H37.7752C38.0169 31.9014 38.1378 31.4202 38.1378 30.4584H35.6181V27.2143C34.9006 27.2143 34.5412 27.8194 34.5412 29.0218C34.304 29.5024 34.1825 30.219 34.1825 31.1821C33.7029 31.9014 32.5083 32.5045 30.5898 32.9858C28.9137 33.2283 27.7153 33.9489 26.9939 35.15C28.4334 35.15 29.1509 35.9912 29.1509 37.6741C29.3927 37.6741 29.7514 37.4316 30.2272 36.9543L32.0293 36.5943C32.5083 37.0749 32.7475 37.4316 32.7475 37.6741ZM29.3432 0L36.679 20.8262L58.6857 21.3906L41.2122 34.8255L47.4782 56L40.217 50.9859C40.3494 51.0059 40.4947 51.0155 40.6529 51.0155C41.3717 51.0155 41.7298 50.2918 41.7298 48.8545V48.1308C41.4887 47.8914 41.3717 47.5283 41.3717 47.047L40.6529 45.9672C40.6529 47.6495 40.1733 48.9719 39.2147 49.935C39.2147 50.0847 39.2353 50.2182 39.2764 50.3369L29.3432 43.4779L24.4859 46.8322C24.5 46.4226 24.5579 46.0143 24.6582 45.6072C24.7784 45.1254 24.8369 44.6442 24.8369 44.1629C24.8369 43.2011 24.4814 42.4838 23.76 42.0026C22.325 41.5214 21.6036 41.282 21.6036 41.282C21.6036 42.4838 21.8447 43.0831 22.325 43.0831C22.325 42.8412 22.3835 42.8412 22.5044 43.0831C22.622 43.3211 22.6799 43.6824 22.6799 44.1629V45.2473C22.442 45.486 22.325 45.9672 22.325 46.6903C22.325 47.1948 22.3822 47.6986 22.4986 48.2043L11.2082 56L17.4741 34.8255L0 21.3906L22.0074 20.8262L29.3432 0Z" fill="#D8232A"/>
</svg>
