<svg width="140" height="212" viewBox="0 0 140 212" fill="none" xmlns="http://www.w3.org/2000/svg">
<path d="M41.4243 135.944V123.854C41.4243 114.669 43.2966 106.937 47.0411 100.658C50.7857 94.2847 57.4323 88.099 66.9809 82.1008C74.5637 77.321 79.9933 73.0097 83.2698 69.1671C86.6399 65.3245 88.325 60.9195 88.325 55.9523C88.325 52.0159 86.5463 48.9231 82.989 46.6737C79.4316 44.3307 74.7977 43.1591 69.0873 43.1591C54.9515 43.1591 38.4286 48.1733 19.5186 58.2016L0 19.9629C23.3099 6.65429 47.6496 0 73.0191 0C93.895 0 110.277 4.5924 122.166 13.7772C134.055 22.962 140 35.4739 140 51.313C140 62.6534 137.332 72.4943 131.996 80.8355C126.754 89.0831 118.328 96.9089 106.72 104.313C96.8907 110.686 90.7121 115.372 88.1846 118.371C85.7506 121.277 84.5336 124.744 84.5336 128.775V135.944H41.4243ZM35.3862 185.149C35.3862 176.526 37.8669 169.872 42.8285 165.186C47.8837 160.5 55.2792 158.156 65.015 158.156C74.3765 158.156 81.5379 160.546 86.4995 165.326C91.5547 170.012 94.0822 176.62 94.0822 185.149C94.0822 193.677 91.461 200.285 86.2187 204.971C81.0699 209.657 74.002 212 65.015 212C55.7472 212 48.4921 209.704 43.2497 205.111C38.0074 200.425 35.3862 193.771 35.3862 185.149Z" fill="#E5E8DF"/>
<path d="M70 58C43.4906 58 22 79.4906 22 106C22 132.509 43.4906 154 70 154C96.5094 154 118 132.509 118 106C117.97 79.5031 96.4969 58.0297 70 58ZM70 150.8C45.2578 150.8 25.2 130.742 25.2 106C25.2 81.2578 45.2578 61.2 70 61.2C94.7422 61.2 114.8 81.2578 114.8 106C114.772 130.73 94.7305 150.772 70 150.8Z" fill="#444E34"/>
<path d="M70.0004 64.3984C47.0254 64.3984 28.4004 83.0234 28.4004 105.998C28.4004 128.973 47.0254 147.598 70.0004 147.598C92.9754 147.598 111.6 128.973 111.6 105.998C111.574 83.0344 92.9644 64.425 70.0004 64.3984ZM108.361 104.398H94.0004V89.9984C93.9949 85.582 90.4168 82.0039 86.0004 81.9984H71.6004V67.6383C91.5371 68.4937 107.505 84.4617 108.361 104.398ZM84.4004 107.598H90.8004V121.998C90.8004 124.649 88.6512 126.798 86.0004 126.798H71.6004V120.398C71.6004 119.515 70.884 118.798 70.0004 118.798C69.1168 118.798 68.4004 119.515 68.4004 120.398V126.798H54.0004C51.3496 126.798 49.2004 124.649 49.2004 121.998V107.598H55.6004C56.484 107.598 57.2004 106.882 57.2004 105.998C57.2004 105.115 56.484 104.398 55.6004 104.398H49.2004V89.9984C49.2004 87.3477 51.3496 85.1984 54.0004 85.1984H68.4004V91.5984C68.4004 92.482 69.1168 93.1984 70.0004 93.1984C70.884 93.1984 71.6004 92.482 71.6004 91.5984V85.1984H86.0004C88.6512 85.1984 90.8004 87.3477 90.8004 89.9984V104.398H84.4004C83.5168 104.398 82.8004 105.115 82.8004 105.998C82.8004 106.882 83.5168 107.598 84.4004 107.598ZM68.4004 67.6383V81.9984H54.0004C49.584 82.0039 46.0059 85.582 46.0004 89.9984V104.398H31.6402C32.4957 84.4617 48.4637 68.4937 68.4004 67.6383ZM31.6402 107.598H46.0004V121.998C46.0059 126.415 49.584 129.993 54.0004 129.998H68.4004V144.359C48.4637 143.503 32.4957 127.535 31.6402 107.598ZM71.6004 144.359V129.998H86.0004C90.4168 129.993 93.9949 126.415 94.0004 121.998V107.598H108.361C107.505 127.535 91.5371 143.503 71.6004 144.359Z" fill="#444E34"/>
<path d="M75.6008 104.4H71.6008V99.6C71.6008 98.7164 70.8844 98 70.0008 98C69.1172 98 68.4008 98.7164 68.4008 99.6V104.4H64.4008C63.5172 104.4 62.8008 105.116 62.8008 106C62.8008 106.884 63.5172 107.6 64.4008 107.6H68.4008V112.4C68.4008 113.284 69.1172 114 70.0008 114C70.8844 114 71.6008 113.284 71.6008 112.4V107.6H75.6008C76.4844 107.6 77.2008 106.884 77.2008 106C77.2008 105.116 76.4844 104.4 75.6008 104.4Z" fill="#444E34"/>
</svg>
