<?xml version="1.0" encoding="utf-8"?><svg xmlns="http://www.w3.org/2000/svg" xmlns:xlink="http://www.w3.org/1999/xlink"><symbol viewBox="0 0 20 20" id="add-circle" xmlns="http://www.w3.org/2000/svg"><path fill-rule="evenodd" clip-rule="evenodd" d="M10 0C4.48 0 0 4.48 0 10s4.48 10 10 10 10-4.48 10-10S15.52 0 10 0zm1 9V5H9v4H5v2h4v4h2v-4h4V9h-4zm-9 1c0 4.41 3.59 8 8 8s8-3.59 8-8-3.59-8-8-8-8 3.59-8 8z"/></symbol><symbol viewBox="0 0 10 5" id="arrow-dropdown" xmlns="http://www.w3.org/2000/svg"><path d="M0 0l5 5 5-5H0z"/></symbol><symbol viewBox="0 0 9 14" id="arrow-forward" xmlns="http://www.w3.org/2000/svg"><path d="M.326 12.42l1.18 1.18 6.6-6.6-6.6-6.6-1.18 1.18L5.746 7l-5.42 5.42z"/></symbol><symbol viewBox="0 0 24 24" id="attach" xmlns="http://www.w3.org/2000/svg"><path d="M2 12.5C2 9.46 4.46 7 7.5 7H18c2.21 0 4 1.79 4 4s-1.79 4-4 4H9.5a2.5 2.5 0 010-5H17v2H9.41c-.55 0-.55 1 0 1H18c1.1 0 2-.9 2-2s-.9-2-2-2H7.5C5.57 9 4 10.57 4 12.5S5.57 16 7.5 16H17v2H7.5C4.46 18 2 15.54 2 12.5z"/></symbol><symbol viewBox="0 0 24 24" id="calendar" xmlns="http://www.w3.org/2000/svg"><path fill-rule="evenodd" clip-rule="evenodd" d="M19 22H5c-1.103 0-2-.897-2-2V6c0-1.103.897-2 2-2h2V2h2v2h6V2h2v2h2c1.103 0 2 .897 2 2v14c0 1.103-.897 2-2 2zm.001-2L19 8H5v12h14.001zM9 11H7v2h2v-2zm0 4H7v2h2v-2zm4-4h-2v2h2v-2zm0 4h-2v2h2v-2zm4-4h-2v2h2v-2zm0 4h-2v2h2v-2z"/></symbol><symbol viewBox="0 0 24 24" id="call" xmlns="http://www.w3.org/2000/svg"><path d="M6.62 10.79c1.44 2.83 3.76 5.14 6.59 6.59l2.2-2.2c.27-.27.67-.36 1.02-.24 1.12.37 2.33.57 3.57.57.55 0 1 .45 1 1V20c0 .55-.45 1-1 1-9.39 0-17-7.61-17-17 0-.55.45-1 1-1h3.5c.55 0 1 .45 1 1 0 1.25.2 2.45.57 3.57.11.35.03.74-.25 1.02l-2.2 2.2z"/></symbol><symbol viewBox="0 0 24 24" id="camera" xmlns="http://www.w3.org/2000/svg"><path d="M17 10.5V7c0-.55-.45-1-1-1H4c-.55 0-1 .45-1 1v10c0 .55.45 1 1 1h12c.55 0 1-.45 1-1v-3.5l4 4v-11l-4 4z"/></symbol><symbol viewBox="0 0 24 24" id="check-circle" xmlns="http://www.w3.org/2000/svg"><path d="M12 2C6.48 2 2 6.48 2 12s4.48 10 10 10 10-4.48 10-10S17.52 2 12 2zm-2 15l-5-5 1.41-1.41L10 14.17l7.59-7.59L19 8l-9 9z"/></symbol><symbol viewBox="0 0 24 24" id="checkbox" xmlns="http://www.w3.org/2000/svg"><path d="M2 2h20v20H2z"/><path d="M19.706 8.122l-1.829-1.829-8.428 8.42-3.318-3.317-1.84 1.827 5.157 5.157L19.706 8.122z"/></symbol><symbol viewBox="0 0 11 16" id="chevron-left" xmlns="http://www.w3.org/2000/svg"><path d="M10.546 1.88L8.666 0l-8 8 8 8 1.88-1.88L4.439 8l6.107-6.12z"/></symbol><symbol viewBox="0 0 8 12" id="chevron-right" xmlns="http://www.w3.org/2000/svg"><path d="M2 0L.59 1.41 5.17 6 .59 10.59 2 12l6-6-6-6z"/></symbol><symbol viewBox="0 0 20 20" id="clear" xmlns="http://www.w3.org/2000/svg"><path d="M19.333 2.546l-1.88-1.88-7.454 7.453L2.546.666l-1.88 1.88 7.453 7.453-7.453 7.454 1.88 1.88 7.453-7.454 7.454 7.454 1.88-1.88-7.454-7.454 7.454-7.453z"/></symbol><symbol viewBox="0 0 24 24" id="close-box" xmlns="http://www.w3.org/2000/svg"><path d="M19 3H5a2 2 0 00-2 2v14a2 2 0 002 2h14a2 2 0 002-2V5a2 2 0 00-2-2zm0 16H5V5h14v14zM17 8.4L13.4 12l3.6 3.6-1.4 1.4-3.6-3.6L8.4 17 7 15.6l3.6-3.6L7 8.4 8.4 7l3.6 3.6L15.6 7 17 8.4z"/></symbol><symbol viewBox="0 0 20 20" id="close-highlight-off" xmlns="http://www.w3.org/2000/svg"><path fill-rule="evenodd" clip-rule="evenodd" d="M10 0C4.47 0 0 4.47 0 10s4.47 10 10 10 10-4.47 10-10S15.53 0 10 0zm2.59 6L10 8.59 7.41 6 6 7.41 8.59 10 6 12.59 7.41 14 10 11.41 12.59 14 14 12.59 11.41 10 14 7.41 12.59 6zM2 10c0 4.41 3.59 8 8 8s8-3.59 8-8-3.59-8-8-8-8 3.59-8 8z"/></symbol><symbol viewBox="0 0 40 43" id="curier" xmlns="http://www.w3.org/2000/svg"><path d="M22.483 9.678c1.833 0 3.333-1.59 3.333-3.532 0-1.943-1.5-3.532-3.333-3.532-1.833 0-3.333 1.59-3.333 3.532s1.5 3.532 3.333 3.532zm-6 24.546l1.667-7.77 3.5 3.532v10.596h3.333V27.337l-3.5-3.532 1-5.298c2.167 2.65 5.5 4.415 9.167 4.415V19.39a8.117 8.117 0 01-7.167-4.238l-1.667-2.825c-.666-1.06-1.666-1.766-2.833-1.766-.5 0-.833.176-1.333.176l-8.667 3.885v8.3h3.333v-6.004l3-1.236-2.666 14.304-8.167-1.766-.667 3.532 11.667 2.473z"/></symbol><symbol viewBox="0 0 32 32" id="email" xmlns="http://www.w3.org/2000/svg"><g clip-path="url(#apclip0)"><path d="M31.994 12.233a.513.513 0 00-.022-.108.534.534 0 00-.03-.092.477.477 0 00-.054-.082.509.509 0 00-.07-.082c-.01-.008-.013-.018-.022-.025l-5.13-3.984V3.731a1.6 1.6 0 00-1.6-1.6h-5.78L16.972.334a1.582 1.582 0 00-1.945 0l-2.315 1.797h-5.78a1.6 1.6 0 00-1.6 1.6v4.13L.204 11.843c-.009.007-.013.017-.021.025a.5.5 0 00-.071.083.475.475 0 00-.053.081.526.526 0 00-.03.092.504.504 0 00-.023.107c0 .01-.006.02-.006.032v18.135c0 .34.11.67.313.942.003.005.004.01.008.015.003.004.011.009.017.015.3.394.765.626 1.26.629H30.4a1.593 1.593 0 001.265-.632c.004-.005.01-.007.014-.012l.008-.015c.203-.272.312-.602.313-.942V12.265c0-.011-.006-.02-.006-.032zM15.679 1.176a.511.511 0 01.636 0l1.23.955h-3.093l1.227-.955zM1.733 30.933L15.679 20.1a.512.512 0 01.636 0l13.95 10.833H1.733zm29.2-.832L16.972 19.258a1.583 1.583 0 00-1.945 0L1.065 30.101V13.077l8.74 6.787a.534.534 0 00.654-.843l-8.88-6.895 3.753-2.915v4.12a.533.533 0 101.067 0v-9.6c0-.294.238-.533.533-.533h18.134c.295 0 .534.239.534.533v9.6a.533.533 0 101.066 0v-4.12l3.752 2.915-8.894 6.908a.533.533 0 10.653.842l8.756-6.799v17.024z"/><path d="M22.4 12.798v-2.133a6.4 6.4 0 10-6.4 6.4A.533.533 0 1016 16a5.334 5.334 0 115.334-5.334v2.134a1.067 1.067 0 01-2.134 0v-2.134a.533.533 0 10-1.067 0A2.133 2.133 0 1116 8.532a.533.533 0 100-1.067 3.2 3.2 0 102.156 5.558 2.128 2.128 0 004.244-.225z"/></g><defs><clipPath id="apclip0"><path d="M0 0h32v32H0z"/></clipPath></defs></symbol><symbol viewBox="0 0 12 23" id="facebook" xmlns="http://www.w3.org/2000/svg"><path d="M11.113 13.125l.602-3.953H7.89V6.594c0-1.117.515-2.149 2.234-2.149h1.762V1.051S10.297.75 8.793.75c-3.137 0-5.2 1.934-5.2 5.371v3.05H.07v3.954h3.524v9.625H7.89v-9.625h3.222z"/></symbol><symbol viewBox="0 0 32 32" id="fast-delivery" xmlns="http://www.w3.org/2000/svg"><path d="M31.48 15.223a2.206 2.206 0 00-1.307-.75l-.245-3.317a.501.501 0 00.49-.414l.093-.534c.101-.573-.04-1.138-.386-1.551-.346-.413-.853-.64-1.428-.64H25.02L25.198 7a.963.963 0 00-.202-.79.95.95 0 00-.732-.332H6.158a1.17 1.17 0 00-1.122.948l-1.602 9.086a.501.501 0 00.986.174L6.023 7c.01-.06.087-.12.135-.12h18.044l-1.593 9.032a.5.5 0 10.987.174l.115-.655h5.993c.414 0 .772.155 1.008.435.162.194.257.434.28.7h-1.665a.501.501 0 00-.493.415l-.189 1.069c-.076.43.032.857.294 1.17.26.31.653.486 1.08.486h.472l-.389 2.205H28.78a2.632 2.632 0 00-.566-1.19c-.513-.612-1.267-.948-2.123-.948-1.374 0-2.7.899-3.32 2.138h-.201l.65-3.688a.5.5 0 10-.987-.173l-.68 3.861h-9.276a2.63 2.63 0 00-.566-1.19c-.513-.611-1.267-.948-2.124-.948-1.373 0-2.699.9-3.32 2.138H3.394l.2-1.136h2.252a.501.501 0 000-1.002H.501a.501.501 0 100 1.002h2.075l-.179 1.016a.963.963 0 00.202.79.95.95 0 00.732.332h2.61c-.135.85.069 1.65.58 2.26.512.61 1.266.947 2.123.947 1.705 0 3.337-1.385 3.637-3.086l.018-.12h10.146c-.136.849.068 1.65.58 2.259.512.61 1.266.947 2.122.947 1.706 0 3.337-1.385 3.637-3.087l.018-.12h1.72a.5.5 0 00.494-.414l.943-5.344c.127-.726-.043-1.412-.48-1.932zm-7.592-.793l.577-3.274h4.459l.241 3.274h-5.277zm5.636-4.396l-.02.12h-4.862l.2-1.135h3.855c.273 0 .508.1.66.282.158.188.218.448.167.733zm-18.23 12.827c-.22 1.245-1.408 2.258-2.65 2.258-.555 0-1.037-.21-1.356-.59-.328-.39-.453-.921-.352-1.494.22-1.245 1.409-2.259 2.65-2.259.556 0 1.037.21 1.356.59.328.39.453.922.352 1.495zm16.503 0c-.22 1.245-1.408 2.258-2.65 2.258-.555 0-1.037-.21-1.355-.59-.328-.39-.453-.921-.352-1.494.22-1.246 1.408-2.259 2.65-2.259.555 0 1.037.21 1.355.59.328.39.453.922.352 1.495zm2.87-4.155h-.648a.391.391 0 01-.312-.129.424.424 0 01-.075-.352l.116-.655h1.12l-.2 1.136z"/><path d="M9.942 22.245a.949.949 0 00-.732-.332 1.17 1.17 0 00-1.122.948.963.963 0 00.202.79.949.949 0 00.732.332 1.17 1.17 0 001.122-.948.963.963 0 00-.202-.79zM26.444 22.245a.95.95 0 00-.732-.332 1.17 1.17 0 00-1.122.948.963.963 0 00.202.79.95.95 0 00.731.332 1.17 1.17 0 001.123-.948.963.963 0 00-.202-.79zM20.211 19.775h-6.349a.501.501 0 100 1.002h6.35a.501.501 0 100-1.002zM11.19 17.637H1.945a.501.501 0 000 1.002h9.243a.501.501 0 100-1.002zM20.758 15.62l-1.855-1.602a.501.501 0 10-.655.758l.836.723H6.38a.501.501 0 000 1.002h12.387l-1.034.685a.5.5 0 10.554.835l2.42-1.603a.5.5 0 00.051-.797z"/></symbol><symbol viewBox="0 0 32 32" id="fire" xmlns="http://www.w3.org/2000/svg"><path fill-rule="evenodd" clip-rule="evenodd" d="M18.987 7.293c0-2.866-.986-6.4-.986-6.4 5.213 4.174 8.666 10.587 8.666 17.774 0 5.893-4.773 10.666-10.666 10.666-5.894 0-10.667-4.773-10.667-10.666 0-4.507 1.613-8.654 4.307-11.854l-.04.48c0 2.747 2.08 4.974 4.84 4.974 2.746 0 4.546-2.227 4.546-4.974zm-7.666 13.854c0 2.32 1.92 4.186 4.293 4.186 3.533 0 6.4-2.866 6.4-6.4 0-1.853-.267-3.666-.787-5.386-1.36 1.826-3.8 2.96-6.16 3.44-2.346.48-3.746 2-3.746 4.16z"/></symbol><symbol viewBox="0 0 24 24" id="flag" xmlns="http://www.w3.org/2000/svg"><path d="M14.4 6L14 4H5v17h2v-7h5.6l.4 2h7V6h-5.6z"/></symbol><symbol viewBox="0 0 40 40" id="gift" xmlns="http://www.w3.org/2000/svg"><path d="M36.666 20v13.334a3.333 3.333 0 01-3.333 3.333H6.666a3.333 3.333 0 01-3.333-3.333V20.001a1.667 1.667 0 01-1.667-1.667v-5a3.333 3.333 0 013.333-3.333h5.284A5 5 0 0115 3.334c1.666 0 3.133.833 4.05 2.067v-.017L20 6.667l.95-1.283v.017c.916-1.234 2.383-2.067 4.05-2.067a5 5 0 014.716 6.667h5.283a3.333 3.333 0 013.334 3.333v5a1.667 1.667 0 01-1.667 1.667zm-30 13.334h11.667V20.001H6.666v13.333zm26.667 0V20.001H21.666v13.333h11.667zM14.999 6.667a1.667 1.667 0 100 3.334 1.667 1.667 0 000-3.334zm10 0a1.667 1.667 0 100 3.334 1.667 1.667 0 000-3.334zM5 13.334v3.333h13.334v-3.333H4.999zm16.667 0v3.333h13.333v-3.333H21.666z"/></symbol><symbol viewBox="0 0 32 32" id="gift-delivery" xmlns="http://www.w3.org/2000/svg"><g clip-path="url(#avclip0)"><path d="M31.677 9.582a1.422 1.422 0 00-1.097-.494h-6.12l5.131-1.725a.51.51 0 00-.324-.965l-2.81.944c.526-.357.986-.71 1.308-1.037.528-.534.825-1.236.814-1.925a2.057 2.057 0 00-.63-1.477c-.897-.85-2.438-.721-3.436.288-.96.97-2.135 3.14-2.885 4.637-.038-.25-.08-.515-.128-.79-.32-1.827-.698-3.093-1.123-3.762a2.02 2.02 0 00-1.336-.896c-.67-.131-1.404.043-2.015.477-1.147.816-1.544 2.325-.883 3.363.267.42.736.883 1.282 1.338l-3.026-1.153a.51.51 0 00-.362.951l4.541 1.731H12.11c-.848 0-1.63.662-1.78 1.508L7.265 27.979a1.45 1.45 0 00.3 1.19c.263.314.663.494 1.097.494h18.47c.85 0 1.63-.662 1.78-1.508l3.065-17.383a1.45 1.45 0 00-.299-1.19zm-6.44-5.675c.611-.618 1.513-.737 2.01-.265.253.24.31.542.313.754.007.418-.182.853-.519 1.193-.905.915-3.15 2.148-4.599 2.893.715-1.442 1.894-3.663 2.795-4.575zm-8.234 1.767c-.369-.579-.087-1.488.613-1.986.305-.217.65-.332.977-.332.086 0 .17.008.253.024.203.04.484.149.671.443.568.892.987 3.249 1.198 4.806-1.28-.794-3.152-2.074-3.712-2.955zm2.105 4.432l-.277 1.573-1.296-1.573h1.573zm-2.893 0L18.598 13l-.63 3.57-5.323-6.463h3.57zm-4.882.666a.793.793 0 01.212-.4l6.19 7.516-.629 3.57L10.8 13.8l.534-3.028zM8.66 28.645a.397.397 0 01-.317-.131.431.431 0 01-.076-.358l.574-3.258 3.086 3.747H8.66zm3.472-5.687l3.878 4.709-.172.977h-2.592L9.075 23.58l.63-3.57 1.087 1.32a.508.508 0 00.717.07.51.51 0 00.07-.717l-1.642-1.993.63-3.57 6.307 7.659-.63 3.57-3.325-4.038a.51.51 0 00-.786.648zm4.74 5.687l3.27-18.539h2.224L19.1 28.644h-2.226zm3.26 0l.277-1.574 1.296 1.573h-1.573zm2.893 0l-2.383-2.893.63-3.57 5.322 6.463h-3.57zm4.882-.666a.792.792 0 01-.212.4l-6.191-7.517.63-3.57 6.307 7.659-.534 3.028zm1.629-9.237l-3.773-4.58a.51.51 0 10-.786.647l4.326 5.252-.63 3.57-6.307-7.658.63-3.57.64.777a.508.508 0 10.785-.647l-1.193-1.449.173-.978h2.591l4.173 5.066-.63 3.57zm1.436-8.147l-.574 3.257-3.086-3.746h3.267c.136 0 .245.045.317.13a.43.43 0 01.076.359zM8.658 10.717H.509a.51.51 0 000 1.019h8.149a.51.51 0 100-1.019zM7.572 17.236H3.769a.51.51 0 000 1.018h3.803a.51.51 0 000-1.018zM8.116 13.977H2.14a.51.51 0 000 1.018h5.976a.51.51 0 000-1.018z"/></g><defs><clipPath id="avclip0"><path d="M0 0h32v32H0z"/></clipPath></defs></symbol><symbol viewBox="0 0 28 28" id="help" xmlns="http://www.w3.org/2000/svg"><path fill-rule="evenodd" clip-rule="evenodd" d="M.666 14C.666 6.64 6.639.665 13.999.665s13.334 5.973 13.334 13.333-5.974 13.334-13.334 13.334C6.64 27.333.666 21.359.666 13.999zm14.667 5.333v2.666h-2.667v-2.666h2.667zm-1.334 5.333c-5.88 0-10.666-4.787-10.666-10.667S8.119 3.333 13.999 3.333c5.88 0 10.667 4.786 10.667 10.666 0 5.88-4.787 10.667-10.667 10.667zM8.666 11.333a5.332 5.332 0 015.333-5.334 5.332 5.332 0 015.334 5.334c0 1.71-1.054 2.63-2.08 3.527-.972.85-1.92 1.679-1.92 3.14h-2.667c0-2.429 1.256-3.392 2.36-4.238.867-.665 1.64-1.257 1.64-2.43 0-1.466-1.2-2.666-2.667-2.666a2.674 2.674 0 00-2.666 2.667H8.666z"/></symbol><symbol viewBox="0 0 24 24" id="hi-human" xmlns="http://www.w3.org/2000/svg"><path d="M1.5 4v1.5c0 4.15 2.21 7.78 5.5 9.8V20h15v-2c0-2.66-5.33-4-8-4h-.25C9 14 5 10 5 5.5V4H1.5zM14 4a4 4 0 100 8 4 4 0 000-8z"/></symbol><symbol viewBox="0 0 32 32" id="hotel" xmlns="http://www.w3.org/2000/svg"><path d="M31.467 5.067H25.6V.8a.533.533 0 00-.533-.533H6.933A.533.533 0 006.4.8v7.467H.533A.533.533 0 000 8.8v21.867a.533.533 0 001.067 0V9.333H6.4V31.2c0 .294.239.533.533.533h18.134a.533.533 0 00.533-.533V6.133h5.333v24.534a.533.533 0 001.067 0V5.6a.533.533 0 00-.533-.533zm-16 25.6h-2.134v-4.8h2.134v4.8zm3.2 0h-2.134v-4.8h2.134v4.8zm5.866 0h-4.8v-5.334a.533.533 0 00-.533-.533h-6.4a.533.533 0 00-.533.533v5.334h-4.8V1.333h17.066v29.334z"/><path d="M12.267 2.4h-3.2a.533.533 0 00-.534.533v3.2c0 .295.239.534.534.534h3.2a.533.533 0 00.533-.534v-3.2a.533.533 0 00-.534-.533zm-.534 3.2H9.6V3.467h2.133V5.6zM17.6 2.4h-3.2a.533.533 0 00-.533.533v3.2c0 .295.239.534.533.534h3.2a.533.533 0 00.534-.534v-3.2A.533.533 0 0017.6 2.4zm-.533 3.2h-2.133V3.467h2.133V5.6zM22.933 2.4h-3.2a.533.533 0 00-.534.533v3.2c0 .295.239.534.534.534h3.2a.533.533 0 00.533-.534v-3.2a.533.533 0 00-.533-.533zm-.534 3.2h-2.133V3.467h2.133V5.6zM12.267 7.733h-3.2a.533.533 0 00-.534.534v3.2c0 .294.239.533.534.533h3.2a.533.533 0 00.533-.533v-3.2a.533.533 0 00-.534-.534zm-.534 3.2H9.6V8.8h2.133v2.133zM17.6 7.733h-3.2a.533.533 0 00-.533.534v3.2c0 .294.239.533.533.533h3.2a.533.533 0 00.534-.533v-3.2a.533.533 0 00-.534-.534zm-.533 3.2h-2.133V8.8h2.133v2.133zM22.933 7.733h-3.2a.533.533 0 00-.534.534v3.2c0 .294.239.533.534.533h3.2a.533.533 0 00.533-.533v-3.2a.533.533 0 00-.533-.534zm-.534 3.2h-2.133V8.8h2.133v2.133zM12.267 13.067h-3.2a.533.533 0 00-.534.533v3.2c0 .295.239.534.534.534h3.2a.533.533 0 00.533-.534v-3.2a.533.533 0 00-.534-.533zm-.534 3.2H9.6v-2.133h2.133v2.133zM17.6 13.067h-3.2a.533.533 0 00-.533.533v3.2c0 .295.239.534.533.534h3.2a.533.533 0 00.534-.534v-3.2a.533.533 0 00-.534-.533zm-.533 3.2h-2.133v-2.133h2.133v2.133zM22.933 13.067h-3.2a.533.533 0 00-.534.533v3.2c0 .295.239.534.534.534h3.2a.533.533 0 00.533-.534v-3.2a.533.533 0 00-.533-.533zm-.534 3.2h-2.133v-2.133h2.133v2.133zM12.267 18.4h-3.2a.533.533 0 00-.534.533v3.2c0 .295.239.534.534.534h3.2a.533.533 0 00.533-.534v-3.2a.533.533 0 00-.534-.533zm-.534 3.2H9.6v-2.133h2.133V21.6zM17.6 18.4h-3.2a.533.533 0 00-.533.533v3.2c0 .295.239.534.533.534h3.2a.533.533 0 00.534-.534v-3.2a.533.533 0 00-.534-.533zm-.533 3.2h-2.133v-2.133h2.133V21.6zM22.933 18.4h-3.2a.533.533 0 00-.534.533v3.2c0 .295.239.534.534.534h3.2a.533.533 0 00.533-.534v-3.2a.533.533 0 00-.533-.533zm-.534 3.2h-2.133v-2.133h2.133V21.6zM3.2 10.4h-.534a.533.533 0 00-.533.533v.534c0 .294.239.533.533.533H3.2a.533.533 0 00.534-.533v-.534a.533.533 0 00-.534-.533zM5.334 10.4h-.533a.533.533 0 00-.533.533v.534c0 .294.238.533.533.533h.533a.533.533 0 00.534-.533v-.534a.533.533 0 00-.534-.533zM3.2 12.533h-.534a.533.533 0 00-.533.534v.533c0 .294.239.533.533.533H3.2a.533.533 0 00.534-.533v-.534a.533.533 0 00-.534-.533zM5.334 12.533h-.533a.533.533 0 00-.533.534v.533c0 .294.238.533.533.533h.533a.533.533 0 00.534-.533v-.534a.533.533 0 00-.534-.533zM3.2 14.666h-.534a.533.533 0 00-.533.534v.533c0 .295.239.534.533.534H3.2a.533.533 0 00.534-.534V15.2a.533.533 0 00-.534-.534zM5.334 14.666h-.533a.533.533 0 00-.533.534v.533c0 .295.238.534.533.534h.533a.533.533 0 00.534-.534V15.2a.533.533 0 00-.534-.534zM3.2 16.8h-.534a.533.533 0 00-.533.533v.534c0 .294.239.533.533.533H3.2a.533.533 0 00.534-.534v-.533a.533.533 0 00-.534-.533zM5.334 16.8h-.533a.533.533 0 00-.533.533v.534c0 .294.238.533.533.533h.533a.533.533 0 00.534-.534v-.533a.533.533 0 00-.534-.533zM3.2 18.933h-.534a.533.533 0 00-.533.533V20c0 .294.239.533.533.533H3.2A.533.533 0 003.733 20v-.534a.533.533 0 00-.534-.533zM5.334 18.933h-.533a.533.533 0 00-.533.533V20c0 .294.238.533.533.533h.533A.533.533 0 005.868 20v-.534a.533.533 0 00-.534-.533zM3.2 21.067h-.534a.533.533 0 00-.533.533v.534c0 .294.239.533.533.533H3.2a.533.533 0 00.534-.533V21.6a.533.533 0 00-.534-.533zM5.334 21.067h-.533a.533.533 0 00-.533.533v.534c0 .294.238.533.533.533h.533a.533.533 0 00.534-.533V21.6a.533.533 0 00-.534-.533zM3.2 23.2h-.534a.533.533 0 00-.533.534v.533c0 .294.239.533.533.533H3.2a.533.533 0 00.534-.533v-.534a.533.533 0 00-.534-.533zM5.334 23.2h-.533a.533.533 0 00-.533.534v.533c0 .294.238.533.533.533h.533a.533.533 0 00.534-.533v-.534a.533.533 0 00-.534-.533zM3.2 25.334h-.534a.533.533 0 00-.533.533v.533c0 .295.239.534.533.534H3.2a.533.533 0 00.534-.534v-.533a.533.533 0 00-.534-.534zM5.334 25.334h-.533a.533.533 0 00-.533.533v.533c0 .295.238.534.533.534h.533a.533.533 0 00.534-.534v-.533a.533.533 0 00-.534-.534zM3.2 27.467h-.534a.533.533 0 00-.533.533v.534c0 .294.239.533.533.533H3.2a.533.533 0 00.534-.534V28a.533.533 0 00-.534-.533zM5.334 27.467h-.533a.533.533 0 00-.533.533v.534c0 .294.238.533.533.533h.533a.533.533 0 00.534-.534V28a.533.533 0 00-.534-.533zM29.333 7.2h-2.134a.533.533 0 00-.533.534v2.133c0 .294.239.533.533.533h2.134a.533.533 0 00.533-.533V7.734a.533.533 0 00-.533-.534zm-.534 2.134h-1.066V8.267h1.066v1.067zM29.333 11.467h-2.134a.533.533 0 00-.533.533v2.133c0 .295.239.534.533.534h2.134a.533.533 0 00.533-.534V12a.533.533 0 00-.533-.533zm-.534 2.133h-1.066v-1.066h1.066V13.6zM29.333 15.733h-2.134a.533.533 0 00-.533.534V18.4c0 .295.239.533.533.533h2.134a.533.533 0 00.533-.533v-2.133a.533.533 0 00-.533-.534zm-.534 2.134h-1.066V16.8h1.066v1.067zM29.333 20h-2.134a.533.533 0 00-.533.533v2.134c0 .294.239.533.533.533h2.134a.533.533 0 00.533-.533v-2.134a.533.533 0 00-.533-.533zm-.534 2.133h-1.066v-1.066h1.066v1.066zM29.333 24.267h-2.134a.533.533 0 00-.533.533v2.133c0 .295.239.534.533.534h2.134a.533.533 0 00.533-.534V24.8a.533.533 0 00-.533-.533zm-.534 2.133h-1.066v-1.067h1.066V26.4z"/></symbol><symbol viewBox="0 0 23 24" id="instagram" xmlns="http://www.w3.org/2000/svg"><path d="M11.5 6.41a5.84 5.84 0 00-5.84 5.84c0 3.25 2.59 5.84 5.84 5.84 3.2 0 5.84-2.59 5.84-5.84 0-3.2-2.64-5.84-5.84-5.84zm0 9.649a3.803 3.803 0 01-3.809-3.809c0-2.082 1.676-3.758 3.809-3.758a3.75 3.75 0 013.758 3.758c0 2.133-1.676 3.809-3.758 3.809zm7.414-9.852c0-.762-.61-1.371-1.371-1.371-.762 0-1.371.61-1.371 1.371 0 .762.61 1.371 1.371 1.371.762 0 1.371-.61 1.371-1.371zm3.86 1.371c-.102-1.828-.508-3.453-1.829-4.773C19.625 1.485 18 1.078 16.172.977c-1.879-.102-7.516-.102-9.395 0-1.828.101-3.402.507-4.773 1.828C.684 4.125.277 5.75.176 7.578c-.102 1.879-.102 7.516 0 9.395.101 1.828.508 3.402 1.828 4.773 1.371 1.32 2.945 1.727 4.773 1.828 1.88.102 7.516.102 9.395 0 1.828-.101 3.453-.508 4.773-1.828 1.32-1.371 1.727-2.945 1.828-4.773.102-1.88.102-7.516 0-9.395zm-2.438 11.375c-.355 1.016-1.168 1.777-2.133 2.184-1.523.61-5.078.457-6.703.457-1.676 0-5.23.152-6.703-.457a3.85 3.85 0 01-2.184-2.184c-.61-1.473-.457-5.027-.457-6.703 0-1.625-.152-5.18.457-6.703a3.917 3.917 0 012.184-2.133c1.473-.61 5.027-.457 6.703-.457 1.625 0 5.18-.152 6.703.457.965.356 1.727 1.168 2.133 2.133.61 1.523.457 5.078.457 6.703 0 1.676.152 5.23-.457 6.703z"/></symbol><symbol viewBox="0 0 24 24" id="language" xmlns="http://www.w3.org/2000/svg"><path fill-rule="evenodd" clip-rule="evenodd" d="M2 12C2 6.48 6.47 2 11.99 2 17.52 2 22 6.48 22 12s-4.48 10-10.01 10C6.47 22 2 17.52 2 12zm13.97-4h2.95a8.03 8.03 0 00-4.33-3.56c.6 1.11 1.06 2.31 1.38 3.56zM12 4.04c.83 1.2 1.48 2.53 1.91 3.96h-3.82c.43-1.43 1.08-2.76 1.91-3.96zM4 12c0 .69.1 1.36.26 2h3.38c-.08-.66-.14-1.32-.14-2 0-.68.06-1.34.14-2H4.26c-.16.64-.26 1.31-.26 2zm1.08 4h2.95c.32 1.25.78 2.45 1.38 3.56A7.987 7.987 0 015.08 16zm0-8h2.95c.32-1.25.78-2.45 1.38-3.56-1.84.63-3.37 1.9-4.33 3.56zM12 19.96c-.83-1.2-1.48-2.53-1.91-3.96h3.82c-.43 1.43-1.08 2.76-1.91 3.96zM9.5 12c0 .68.07 1.34.16 2h4.68c.09-.66.16-1.32.16-2 0-.68-.07-1.35-.16-2H9.66c-.09.65-.16 1.32-.16 2zm5.09 7.56c.6-1.11 1.06-2.31 1.38-3.56h2.95a8.03 8.03 0 01-4.33 3.56zM16.5 12c0 .68-.06 1.34-.14 2h3.38c.16-.64.26-1.31.26-2s-.1-1.36-.26-2h-3.38c.08.66.14 1.32.14 2z"/></symbol><symbol viewBox="0 0 24 24" id="location" xmlns="http://www.w3.org/2000/svg"><path fill-rule="evenodd" clip-rule="evenodd" d="M12 2C8.13 2 5 5.13 5 9c0 5.25 7 13 7 13s7-7.75 7-13c0-3.87-3.13-7-7-7zM7 9c0-2.76 2.24-5 5-5s5 2.24 5 5c0 2.88-2.88 7.19-5 9.88C9.92 16.21 7 11.85 7 9zm2.5 0a2.5 2.5 0 115 0 2.5 2.5 0 01-5 0z"/></symbol><symbol viewBox="0 0 20 16" id="mail" xmlns="http://www.w3.org/2000/svg"><path fill-rule="evenodd" clip-rule="evenodd" d="M20 2c0-1.1-.9-2-2-2H2C.9 0 0 .9 0 2v12c0 1.1.9 2 2 2h16c1.1 0 2-.9 2-2V2zm-2 0l-8 4.99L2 2h16zm-8 7L2 4v10h16V4l-8 5z"/></symbol><symbol viewBox="0 0 49 48" id="map" xmlns="http://www.w3.org/2000/svg"><g clip-path="url(#bdclip0)"><path d="M44.005 31.033V6.399a.8.8 0 00-.8-.8h-33.6a4.8 4.8 0 10-9.601 0v29.6a5.606 5.606 0 005.6 5.6h25.141a8.795 8.795 0 1013.26-9.766zm-1.6-23.834v12h-8a1.6 1.6 0 01-1.6-1.6 1.6 1.6 0 00-1.6-1.6h-2.4a2.4 2.4 0 01-2.4-2.4v-.264c0-.066-.017-.13-.02-.196v-.34h-.033a3.985 3.985 0 00-1.127-2.31L23.907 9.17a2.386 2.386 0 01-.703-1.698V7.2h19.2zm-27.2 0v3.349c0 .64-.32 1.236-.852 1.59l-1.193.795a.8.8 0 00-.356.666v.487A1.914 1.914 0 0110.892 16H9.604V7.2h5.6zm-13.601-.8v-.8a3.2 3.2 0 016.4 0v27.343a7.144 7.144 0 00-6.4 0V6.399zm4 32.8a4.005 4.005 0 01-4-4v-.376a5.554 5.554 0 016.7.201.8.8 0 001.3-.625v-7.2h5.6a2.4 2.4 0 012.4 2.4.8.8 0 00.8.8h2.4a2.395 2.395 0 012.379 2.184v1.016h.021v3.2a2.4 2.4 0 01-2.4 2.4h-15.2zm18.38 0a3.96 3.96 0 00.82-2.4v-4c0-.099-.022-.192-.03-.29V32h-.05a4.007 4.007 0 00-3.92-3.2h-1.68a4.006 4.006 0 00-3.92-3.2h-5.6v-8h1.288a3.52 3.52 0 003.512-3.513v-.059l.836-.56a3.506 3.506 0 001.564-2.92V7.2h4.8v.274a3.975 3.975 0 001.171 2.83l1.319 1.317c.424.426.674.995.698 1.595V14.4h.092a4.008 4.008 0 003.92 3.2h2.4a3.2 3.2 0 003.2 3.2h8v9.412a8.715 8.715 0 00-8.433 1.13l-.647-.607a4.028 4.028 0 01-1.051.8l.48.9a8.759 8.759 0 00-2.349 5.966c0 .27.017.535.041.8h-6.461zm15.22 6.4a7.2 7.2 0 117.2-7.2 7.208 7.208 0 01-7.2 7.2z"/><path d="M40.992 36.769c-.01-.02-.032-.033-.043-.053a.723.723 0 00-.12-.142.775.775 0 00-.141-.119c-.02-.011-.032-.033-.053-.044l-4.526-2.262a.8.8 0 00-1.098 1.02l1.98 4.808c0 .007.009.012.012.02.014.03.031.06.05.087.016.027.03.054.05.08.021.025.044.05.068.072a.841.841 0 00.069.065.806.806 0 00.08.052.646.646 0 00.085.049c.007 0 .013.008.02.011l4.808 1.98a.8.8 0 001.024-1.097l-2.265-4.527zm-2.065.577l-.912.912-.71-1.723 1.622.81zm.219 2.043l.912-.911.811 1.62-1.723-.71zM16.24 29.834l-1.835 1.834-1.834-1.834-1.131 1.131 1.834 1.835-1.834 1.834 1.13 1.131 1.835-1.834 1.835 1.834 1.13-1.13-1.834-1.835 1.835-1.835-1.131-1.131zM18.734 16.804l-1.467-.64a5.57 5.57 0 00-.447 1.796l1.596.123c.034-.44.141-.873.318-1.28zM19.998 32h1.593v1.6h-1.593V32zM31.164 12.8h1.593v1.6h-1.593v-1.6zM27.979 12.8h1.593v1.6h-1.593v-1.6zM20.495 14.884l-.762-1.405a5.578 5.578 0 00-1.458 1.138l1.18 1.081c.299-.327.65-.602 1.04-.814zM34.29 27.04l1.554-.384a5.578 5.578 0 00-.735-1.697l-1.343.868c.24.372.418.782.523 1.212zM34.057 29.636l1.459.655a5.549 5.549 0 00.467-1.79l-1.594-.142c-.039.442-.151.873-.332 1.277zM33.862 23.595a5.584 5.584 0 00-1.624-.888l-.523 1.512c.418.145.81.36 1.158.633l.989-1.257zM30.404 22.4H28.82V24h1.593l-.01-1.6zM31.262 33.535l-.24-1.582a4.09 4.09 0 01-.618.047h-.851v1.6h.85c.288 0 .575-.021.86-.065zM26.367 32h1.593v1.6h-1.593V32zM23.205 12.8h-.8c-.31.002-.62.028-.925.08l.263 1.578a4.1 4.1 0 01.662-.057h.8v-1.6zM18.998 22.845c.493.378 1.045.671 1.634.867l.506-1.52c-.42-.14-.815-.35-1.167-.62l-.973 1.273zM25.637 22.4h1.592V24h-1.592v-1.6zM18.532 19.404l-1.55.4c.155.602.41 1.173.755 1.691l1.333-.886a3.934 3.934 0 01-.538-1.205zM22.451 22.4h1.593V24H22.45v-1.6zM35.886 15.816a2.4 2.4 0 101.838-4.433 2.4 2.4 0 00-1.838 4.433zm.18-2.523a.798.798 0 011.539.306.8.8 0 11-1.54-.306z"/></g><defs><clipPath id="bdclip0"><path transform="translate(.004)" d="M0 0h48v48H0z"/></clipPath></defs></symbol><symbol viewBox="0 0 48 48" id="medal" xmlns="http://www.w3.org/2000/svg"><path d="M47.2 26.4H32.285a12.365 12.365 0 00-5.533-2.88l8.805-4.4A.8.8 0 0036 18.4V.8a.8.8 0 00-.8-.8H12.8a.8.8 0 00-.8.8v17.6a.8.8 0 00.443.716l8.805 4.404a12.365 12.365 0 00-5.533 2.88H.8a.8.8 0 00-.8.8v4c.008 7.507 6.093 13.592 13.6 13.6h2.115a12.324 12.324 0 0016.57 0H34.4c7.507-.008 13.592-6.093 13.6-13.6v-4a.8.8 0 00-.8-.8zm-.8 4.8c0 .27-.023.534-.04.8H35.862a12.366 12.366 0 00-2.086-4H46.4v3.2zm-10.177 2.4h9.937a11.937 11.937 0 01-1.625 4h-8.312a11.388 11.388 0 000-4zM34.4 17.905l-4.8 2.4V1.6h4.8v16.305zM13.6 1.6h4.8v18.705l-4.8-2.4V1.6zm6.4 0h3.2v11.2a.8.8 0 001.6 0V1.6H28v19.505l-4 2-4-2V1.6zM1.6 28h12.623a12.366 12.366 0 00-2.086 4H1.64c-.018-.266-.041-.53-.041-.8V28zm.24 5.6h9.937a11.388 11.388 0 000 4h-8.31a11.938 11.938 0 01-1.627-4zm2.84 5.6h7.455a12.363 12.363 0 002.087 4H13.6a11.96 11.96 0 01-8.92-4zM24 46.4c-5.965 0-10.8-4.835-10.8-10.8 0-5.965 4.835-10.8 10.8-10.8 5.965 0 10.8 4.835 10.8 10.8-.007 5.962-4.838 10.793-10.8 10.8zm10.4-3.2h-.623a12.366 12.366 0 002.086-4h7.456a11.96 11.96 0 01-8.919 4z"/><path d="M32.772 33.389a.8.8 0 00-.658-.581l-5.154-.736-2.223-5.187a.8.8 0 00-1.47 0l-2.227 5.187-5.155.736a.8.8 0 00-.387 1.417l3.643 2.914-.735 5.147a.8.8 0 001.151.834L24 40.895l4.443 2.225a.8.8 0 001.15-.83l-.736-5.147L32.5 34.23a.8.8 0 00.272-.84zM27.5 36.175a.8.8 0 00-.292.739l.584 4.088-3.435-1.718a.8.8 0 00-.714 0l-3.435 1.718.584-4.088a.8.8 0 00-.292-.739l-2.556-2.044 3.77-.539a.8.8 0 00.621-.48L24 29.232l1.665 3.883a.8.8 0 00.621.48l3.77.539-2.556 2.041zM24.8 17.6V16a.8.8 0 00-1.6 0v1.6a.8.8 0 001.6 0z"/></symbol><symbol viewBox="0 0 24 16" id="menu" xmlns="http://www.w3.org/2000/svg"><path fill-rule="evenodd" clip-rule="evenodd" d="M0 2.667V0h24v2.667H0zm0 6.666h24V6.667H0v2.666zM0 16h24v-2.667H0V16z"/></symbol><symbol viewBox="0 0 24 24" id="photo" xmlns="http://www.w3.org/2000/svg"><path d="M21 19V5c0-1.1-.9-2-2-2H5c-1.1 0-2 .9-2 2v14c0 1.1.9 2 2 2h14c1.1 0 2-.9 2-2zM8.5 13.5l2.5 3.01L14.5 12l4.5 6H5l3.5-4.5z"/></symbol><symbol viewBox="0 0 32 32" id="shipped" xmlns="http://www.w3.org/2000/svg"><path d="M29.76 14.46l-.829-3.314a.501.501 0 00.397-.49v-.534c0-1.16-.944-2.105-2.105-2.105H23.45V6.915c0-.571-.465-1.036-1.036-1.036H3.173c-.57 0-1.035.465-1.035 1.036V16a.501.501 0 101.002 0V6.915c0-.019.015-.033.033-.033h19.24c.019 0 .034.014.034.033V16a.501.501 0 101.002 0v-.568h5.913a1.64 1.64 0 011.557 1.135h-1.558a.501.501 0 00-.501.502v1.068c0 .866.704 1.57 1.57 1.57h.568v2.205h-1.31a3.178 3.178 0 00-3-2.138 3.178 3.178 0 00-2.998 2.138h-.241v-3.775a.501.501 0 10-1.002 0v3.775H12.05a3.178 3.178 0 00-2.999-2.138 3.178 3.178 0 00-2.999 2.138h-2.88a.033.033 0 01-.033-.034v-1.102H5.31a.501.501 0 100-1.002H.501a.501.501 0 000 1.002h1.637v1.102c0 .571.464 1.036 1.035 1.036H5.88l-.001.033a3.177 3.177 0 003.173 3.174 3.177 3.177 0 003.173-3.174v-.033h11.291v.033a3.177 3.177 0 003.173 3.174 3.177 3.177 0 003.173-3.174v-.033h1.637a.501.501 0 00.5-.501v-5.345c.001-1.32-.973-2.415-2.24-2.608zm-6.311-5.44h3.774c.608 0 1.103.494 1.103 1.102v.033h-4.877V9.019zm0 5.41v-3.273H27.9l.818 3.274h-5.27zM9.052 25.12a2.174 2.174 0 01-2.171-2.172c0-1.197.974-2.17 2.171-2.17 1.197 0 2.171.973 2.171 2.17a2.174 2.174 0 01-2.17 2.171zm17.637 0a2.174 2.174 0 01-2.171-2.172c0-1.197.974-2.17 2.17-2.17 1.198 0 2.172.973 2.172 2.17a2.174 2.174 0 01-2.171 2.171zm4.309-6.414h-.568a.568.568 0 01-.568-.568v-.568h1.136v1.136z"/><path d="M9.051 21.913a1.037 1.037 0 000 2.07 1.037 1.037 0 000-2.07zM26.688 21.913a1.037 1.037 0 000 2.07 1.037 1.037 0 000-2.07zM20.81 19.775h-7.483a.501.501 0 000 1.002h7.482a.501.501 0 100-1.002zM7.983 17.637H1.569a.501.501 0 000 1.002h6.414a.501.501 0 100-1.002zM17.424 10.836a.501.501 0 00-.709 0l-4.456 4.455-2.318-2.318a.501.501 0 10-.708.709l2.672 2.672a.499.499 0 00.709 0l4.81-4.81a.501.501 0 000-.708z"/></symbol><symbol viewBox="0 0 32 32" id="smile" xmlns="http://www.w3.org/2000/svg"><path fill-rule="evenodd" clip-rule="evenodd" d="M16.013 2.667C8.653 2.667 2.693 8.64 2.693 16s5.96 13.333 13.32 13.333c7.374 0 13.347-5.973 13.347-13.333S23.387 2.667 16.013 2.667zm.014 24C10.133 26.667 5.36 21.893 5.36 16S10.133 5.333 16.027 5.333c5.893 0 10.666 4.774 10.666 10.667S21.92 26.667 16.027 26.667zm6.666-14c0 1.106-.893 2-2 2-1.106 0-2-.894-2-2 0-1.107.894-2 2-2 1.107 0 2 .893 2 2zm-11.333 2c1.107 0 2-.894 2-2 0-1.107-.893-2-2-2s-2 .893-2 2c0 1.106.893 2 2 2zm11.48 4c-1.067 2.72-3.707 4.666-6.813 4.666-3.107 0-5.747-1.946-6.814-4.666H22.84z"/></symbol><symbol viewBox="0 0 48 48" id="soldier" xmlns="http://www.w3.org/2000/svg"><path fill-rule="evenodd" clip-rule="evenodd" d="M30.75 39.75h-13.5c-.827 0-1.5-.673-1.5-1.5v-3c0-.827.673-1.5 1.5-1.5h13.5c.827 0 1.5.673 1.5 1.5v3c0 .827-.673 1.5-1.5 1.5zm0-4.5h-13.5v3h13.5v-3z"/><path fill-rule="evenodd" clip-rule="evenodd" d="M44.91 10.5a2.343 2.343 0 011.655 3.996L39.546 21.5c.133.311.204.65.204 1 0 .684-.266 1.327-.75 1.81l-1.277 1.28c.546.311 1.067.671 1.55 1.086a9.943 9.943 0 013.477 7.558V47.25h-30v-12H6.163A5.418 5.418 0 01.75 29.837c0-1.014.284-2.007.823-2.868l6.26-10.018a2.524 2.524 0 011.917-1.17v-.713c0-1.716.953-3.258 2.488-4.026l2.012-1.005V7.5A6.758 6.758 0 0121 .75h6a6.758 6.758 0 016.75 6.75v6.982c0 .979-.286 1.925-.829 2.74a4.96 4.96 0 01-2.546 1.944l-.696.22a6.801 6.801 0 01-1.833 1.904l.46 1.843 4.118-4.117A3.441 3.441 0 0134.875 18c.456 0 .898.09 1.308.256l1.382-1.381-.815-.814V12.75h3.31l.815.815 2.379-2.38a2.326 2.326 0 011.655-.685zm-2.16 3.31l-5.315 5.315 1.182 1.181 5.32-5.308-1.187-1.188zm-4.5.44v1.19l.375.375 1.19-1.19-.375-.375h-1.19zm-23.596 6.797l-2.15 3.484 7.138-1.19.513-2.05a6.79 6.79 0 01-1.833-1.906l-.684-.215a4.939 4.939 0 01-1.736-1.011l-.982.983a2.513 2.513 0 01-.267 1.905zm2.823-3.593a6.592 6.592 0 01-.148-.723l-.363.364c.159.136.33.255.51.359zm5.024 9.308l-2.458-1.967-1.293.215v3.158l3.75-1.406zM24 27.8l-5.25 1.969V30c0 .414.337.75.75.75h9a.75.75 0 00.75-.75v-.23L24 27.8zm1.5-1.04l3.75 1.407v-3.141l-1.297-.229-2.454 1.964zm5.25-3.95l-.814.813 1.977.349-1.163-1.162zM24 26.039l2.905-2.324-.423-1.694A6.696 6.696 0 0124 22.5a6.697 6.697 0 01-2.482-.48l-.424 1.695L24 26.039zM18.75 15.75A5.256 5.256 0 0024 21a5.256 5.256 0 005.25-5.25v-4.5h-9.222a2.754 2.754 0 01-.936 1.213l-.7.5c.227.388.358.826.358 1.287v1.5zm6.75-6v-1.5h-3v1.5h3zm1.5-1.5v1.5h5.25v-1.5H27zm3.523 9.206a3.452 3.452 0 001.15-1.067 3.426 3.426 0 00.577-1.906V11.25h-1.5v4.5c0 .59-.084 1.16-.227 1.706zM27 2.25h-6c-2.64 0-4.824 1.96-5.19 4.5h16.38c-.366-2.54-2.55-4.5-5.19-4.5zm-8.714 6H15.75v1.037l1.657-.83c.272-.135.576-.207.879-.207zm0 0c.922 0 1.692.641 1.902 1.5H21v-1.5h-2.714zm-.207 1.55l-5.17 2.585a2.982 2.982 0 00-1.659 2.683v1.013l.03.015.035.018 2.45 1.471c.122.073.233.16.34.25L16.939 15a1.057 1.057 0 00.226-1.161l-2.48 1.771-.87-1.22 4.406-3.148c.331-.237.529-.621.529-1.029 0-.326-.377-.561-.671-.413zM9.75 32.25v1.5h3V30h-1.5v-1.5h1.5v-2.49l-1.29.217-2.572 4.169-1.276-.788.984-1.596-2.181-1.09.671-1.342 2.301 1.15 2.434-3.947-1.736-1.158.831-1.248 1.693 1.129.758-1.23a1.048 1.048 0 00-.374-1.405L10.542 17.4a1.079 1.079 0 00-1.436.345l-2.27 3.631 3.3 1.98-.772 1.287-3.323-1.994-2.575 4.12 2.12 1.06-.672 1.342-2.226-1.113a3.899 3.899 0 00-.438 1.78c0 .848.278 1.627.739 2.269l1.846-1.231.831 1.248-1.55 1.033a3.87 3.87 0 002.047.593H8.25v-1.5h1.5zm7.5-2.25v-4.74l-3 .5v19.99h1.5v-3c0-.827.673-1.5 1.5-1.5h4.5c.827 0 1.5.673 1.5 1.5v3h1.5v-3c0-.827.673-1.5 1.5-1.5h4.5c.827 0 1.5.673 1.5 1.5v3h1.5V25.821l-3-.53V30c0 1.24-1.01 2.25-2.25 2.25h-9c-1.24 0-2.25-1.01-2.25-2.25zm9 12.75v3h4.5v-3h-4.5zm-9 3h4.5v-3h-4.5v3zm24-9v-2.516c0-.11-.008-.219-.016-.328a9.018 9.018 0 01-.01-.156H38.25v3h3zm-3-7.5h1.369a8.485 8.485 0 00-1.322-1.436 8.441 8.441 0 00-3.047-1.665V39.75h4.5v1.5h-4.5v4.5h6v-1.5h-3v-1.5h3v-4.5h-3c-.827 0-1.5-.673-1.5-1.5v-3c0-.827.673-1.5 1.5-1.5h2.757a8.457 8.457 0 00-.51-1.5H38.25v-1.5zm-1.968-4.342l1.658-1.658c.197-.197.31-.471.31-.75s-.113-.553-.31-.75l-1.674-1.674c-.675-.674-1.8-.73-2.559-.18l2.073 2.074-1.06 1.06-2.095-2.095-.814.815 2.68 2.68a9.834 9.834 0 011.791.478zm8.717-10.97l.505-.503a.842.842 0 00-1.19-1.189l-.504.504L45 13.939z"/></symbol><symbol viewBox="0 0 22 22" id="star" xmlns="http://www.w3.org/2000/svg"><path fill-rule="evenodd" clip-rule="evenodd" d="M9.986 15.915h-.271c0 .09.046.133.135.133.091 0 .136-.043.136-.133zm6.063 1.345v-.404c-.091.09-.136.18-.136.27l-.135.134h.27zm-5.526-9.829v-.269l-.404.269h.404zm4.178 7.406v-.269h-.136c-.088 0-.133.044-.133.136 0 .088.089.133.269.133zM8.099 8.509l-.134-.136c-.091 0-.135.046-.135.136 0 .09.044.133.135.133.088 0 .134-.044.134-.133zm3.772-1.616h-.54v.27c.18 0 .36-.09.54-.27zm1.348.808l-.27.27v.268h.27V7.7zm1.482 6.328c-.18 0-.27.09-.27.27 0 .09.09.133.27.133.09 0 .135-.044.135-.133l-.135-.27zm-1.887 3.098c-.18 0-.27.09-.27.269 0 .18.09.269.27.269.09-.09.135-.18.135-.27l-.135-.268zm-6.466-4.983c-.18 0-.27.089-.27.268 0 .18.09.27.27.27.09 0 .134-.09.134-.27 0-.18-.044-.268-.134-.268zm6.332-5.925h-.136v.404h.54c0-.269-.135-.404-.404-.404zM7.965 18.068v-3.231l-.271.135.271 3.096zm6.6-6.059l.136.135v.268c0 .091.044.18.135.27l.268-.27c0-.539.092-.808.27-.808h.27c.089 0 .134-.134.134-.403-.09 0-.203.022-.336.067a1.488 1.488 0 01-.473.07c-.268.266-.404.491-.404.671zm-6.196 1.079c-1.079 0-1.617.492-1.617 1.48H7.83c0-.18-.09-.36-.27-.54.539-.088.81-.403.81-.94zm3.907 1.48c0 .09-.136.18-.405.269-.09.09-.18.135-.27.135h1.348c0-.268.09-.404.27-.404 0-.18.022-.292.068-.337.043-.044.065-.112.065-.202v-.941c.18-.45.405-.676.676-.676h.133c.09 0 .136-.18.136-.539h-.945v-1.21c-.268 0-.403.225-.403.674-.09.18-.135.447-.135.807-.18.268-.627.494-1.347.673-.628.09-1.077.36-1.348.808.54 0 .81.315.81.943.09 0 .224-.09.402-.269l.676-.134c.18.18.27.312.27.403zM11 .5l2.75 7.777 8.25.21-6.55 5.017 2.349 7.907-2.723-1.872c.05.007.105.01.164.01.27 0 .404-.27.404-.806v-.27c-.09-.09-.135-.225-.135-.405l-.27-.403c0 .628-.179 1.122-.538 1.481 0 .056.007.106.023.15L11 16.736l-1.82 1.252a2.22 2.22 0 01.064-.458c.045-.18.067-.36.067-.54 0-.358-.133-.626-.404-.806l-.808-.269c0 .449.09.673.27.673 0-.09.022-.09.067 0 .044.089.066.223.066.403v.405c-.089.089-.133.269-.133.539 0 .188.022.376.065.565l-4.232 2.911 2.349-7.907L0 8.487l8.25-.21L11 .5z"/></symbol><symbol viewBox="0 0 24 24" id="tank" xmlns="http://www.w3.org/2000/svg"><path d="M20 12H4v-1h2l1-5h5l1 5h7v1zm-6.78-5l.4 2H22V7h-8.78zM22 16a3 3 0 01-3 3H5a3 3 0 010-6h14a3 3 0 013 3zM6 16a1 1 0 10-2 0 1 1 0 002 0zm7 0a1 1 0 10-2 0 1 1 0 002 0zm7 0a1 1 0 10-2 0 1 1 0 002 0z"/></symbol><symbol viewBox="0 0 64 64" id="tank-2" xmlns="http://www.w3.org/2000/svg"><g clip-path="url(#bmclip0)"><path d="M42.176 51.685l-.613-3.677a3.086 3.086 0 00-3.053-2.588h-.342a5.114 5.114 0 001.058-3.097v-4.129a3.08 3.08 0 00-1.24-2.461l8.466-8.466.604.605h1.888l2.669-2.67v-1.887l-5.766-5.766H43.96l-2.67 2.67v1.887l.605.604-8.079 8.08a3.1 3.1 0 00-2.848-1.886h-1.032v-4.129H19.613v4.129H18.58a3.1 3.1 0 00-3.097 3.097v3.097h-2.065v-4.13h-2.064V14.453H9.29V30.97H7.226v4.129a3.1 3.1 0 00-3.097 3.096v4.13c0 1.82.952 3.413 2.379 4.333a3.084 3.084 0 00-.588 1.35l-.613 3.678C2.311 52.116 0 54.694 0 57.807a6.2 6.2 0 006.194 6.194H41.29a6.2 6.2 0 006.194-6.194c0-3.113-2.311-5.69-5.308-6.122zm1.179-30.612l1.46-1.46h.177l4.556 4.557v.178l-1.46 1.46h-.177l-4.556-4.557v-.178zm1.637 4.734l-9.29 9.29h-1.637v-1.636l9.29-9.29 1.637 1.636zM21.677 26.84h6.194v2.064h-6.194V26.84zM17.548 32c0-.568.464-1.032 1.033-1.032h12.387c.568 0 1.032.464 1.032 1.033v3.097H17.548V32zM9.29 33.034h2.065v2.065H9.29v-2.065zm-3.096 5.161c0-.568.463-1.032 1.032-1.032h28.903c.569 0 1.032.464 1.032 1.032v2.065h-22.71v-1.032h-2.064v4.129h2.065v-1.033h22.71a3.1 3.1 0 01-3.097 3.097H9.29a3.1 3.1 0 01-3.096-3.097v-4.129zm27.87 9.29h4.446c.506 0 .935.364 1.017.864l.545 3.266H7.412l.545-3.266a1.03 1.03 0 011.017-.863h25.09zm9.29 13.878v-1.49H41.29v2.064h-2.064v-2.064H37.16v2.064h-2.064v-2.064h-2.065v2.064h-2.064v-2.064h-2.065v2.064H26.84v-2.064h-2.065v2.064H22.71v-2.064h-2.065v2.064h-2.064v-2.064h-2.065v2.064h-2.064v-2.064h-2.065v2.064h-2.064v-2.064H8.258v2.064H6.194v-2.064H4.129v1.49a4.122 4.122 0 01-1.918-2.523H4.13v-2.064H2.211a4.122 4.122 0 011.918-2.523v1.49h2.065v-2.064h2.064v2.065h2.065v-2.065h2.064v2.065h2.065v-2.065h2.064v2.065h2.065v-2.065h2.064v2.065h2.065v-2.065h2.064v2.065h2.065v-2.065h2.064v2.065h2.065v-2.065h2.064v2.065h2.065v-2.065h2.064v2.065h2.065v-2.065h2.064v2.065h2.065v-1.49a4.12 4.12 0 011.918 2.522h-1.918v2.065h1.918a4.123 4.123 0 01-1.918 2.522z"/><path d="M8.258 40.258h2.064v2.065H8.258v-2.065zM63.443 15.885l-2.459-3.69 1.34-5.356-5.356 1.34-3.69-2.46-2.187 4.374-3.607-1.202v6.594h2.065v-3.73l2.587.863 1.943-3.884 2.503 1.67 2.902-.726-.725 2.903 1.67 2.503-3.885 1.943.863 2.587h-3.73v2.064h6.594l-1.201-3.607 4.373-2.186z"/><path d="M53.978 13.722l2.065-2.064 1.46 1.46-2.065 2.064-1.46-1.46zM49.85 17.851l3.097-3.097 1.46 1.46-3.097 3.097-1.46-1.46zM0 0h14.452v2.065H0V0zM16.516 0h2.064v2.065h-2.064V0zM6.193 4.13h14.452v2.064H6.193V4.13zM22.709 4.13h2.064v2.064H22.71V4.13zM43.355 39.226h10.323v2.065H43.356v-2.065zM55.742 39.226h2.065v2.065h-2.065v-2.065zM49.549 43.355H59.87v2.065H49.55v-2.065zM61.935 43.355H64v2.065h-2.065v-2.065z"/></g><defs><clipPath id="bmclip0"><path d="M0 0h64v64H0z"/></clipPath></defs></symbol><symbol viewBox="0 0 48 44" id="thumbs-up" xmlns="http://www.w3.org/2000/svg"><path d="M6.563 22.746a.938.938 0 100 1.876.938.938 0 000-1.876zM5.625 27.434a.937.937 0 111.875 0v9.375a.937.937 0 11-1.875 0v-9.375z"/><path fill-rule="evenodd" clip-rule="evenodd" d="M48 26.028a4.212 4.212 0 00-1.57-3.28 4.223 4.223 0 001.513-3.984c-.326-2.005-2.19-3.517-4.337-3.517h-8.93l.277-.834c1.59-4.766.114-9.858-3.384-12.837C29.617-.11 26.285.453 25.26 3.24a.938.938 0 00-.014.605c.779 2.477.79 4.142.038 5.749-.78 1.665-2.456 3.415-5.607 5.848-.756.584-1.417.94-2.056 1.286-1.008.544-1.964 1.06-2.953 2.269H11.25v-.938a.937.937 0 00-.938-.937H.938a.937.937 0 00-.938.937v24.375c0 .518.42.938.938.938h9.374c.518 0 .938-.42.938-.938v-2.812h5.258a14.847 14.847 0 009.894 3.75h11.754a4.216 4.216 0 003.506-6.563h.244a4.216 4.216 0 003.321-6.816A4.218 4.218 0 0048 26.028zM9.375 41.497h-7.5v-22.5h7.5v22.5zm34.406-13.125h-9a.938.938 0 000 1.875h7.125a2.346 2.346 0 012.344 2.343 2.342 2.342 0 01-2.344 2.344h-7.125a.938.938 0 000 1.875h3.375a2.346 2.346 0 012.344 2.344 2.342 2.342 0 01-2.344 2.344H26.402a12.978 12.978 0 01-8.89-3.498.937.937 0 00-.64-.252H11.25V20.872h3.877a.938.938 0 00.755-.382c.846-1.149 1.594-1.553 2.63-2.112.672-.363 1.434-.774 2.311-1.452 6.419-4.958 7.888-7.995 6.315-13.305.622-1.195 2.172-1.518 3.273-.567 2.989 2.613 4.073 6.838 2.764 10.766l-.476 1.427H31.5a.938.938 0 000 1.875h12.106c1.237 0 2.306.835 2.486 1.943a2.345 2.345 0 01-2.31 2.744h-9a.938.938 0 000 1.875h9a2.346 2.346 0 012.343 2.344 2.342 2.342 0 01-2.344 2.344z"/></symbol><symbol viewBox="0 0 24 24" id="thumbs-up-alt" xmlns="http://www.w3.org/2000/svg"><path fill-rule="evenodd" clip-rule="evenodd" d="M14.69 8H21c1.1 0 2 .9 2 2v2c0 .26-.05.5-.14.73l-3.02 7.05C19.54 20.5 18.83 21 18 21H9c-1.1 0-2-.9-2-2V9c0-.55.22-1.05.59-1.41L14.17 1l1.06 1.05c.27.27.44.65.44 1.06l-.03.32L14.69 8zM5 9H1v12h4V9z"/></symbol><symbol viewBox="0 0 24 24" id="user-circle" xmlns="http://www.w3.org/2000/svg"><path fill-rule="evenodd" clip-rule="evenodd" d="M12 2C6.48 2 2 6.48 2 12s4.48 10 10 10 10-4.48 10-10S17.52 2 12 2zm0 3c1.66 0 3 1.34 3 3s-1.34 3-3 3-3-1.34-3-3 1.34-3 3-3zM6 15.98a7.2 7.2 0 0012 0c-.03-1.99-4.01-3.08-6-3.08-2 0-5.97 1.09-6 3.08z"/></symbol><symbol viewBox="0 0 24 24" id="users-circle" xmlns="http://www.w3.org/2000/svg"><path d="M12.5 10.002c0-1.65-1.35-3-3-3s-3 1.35-3 3 1.35 3 3 3 3-1.35 3-3zm-3 1c-.55 0-1-.45-1-1s.45-1 1-1 1 .45 1 1-.45 1-1 1zm6.5 2c1.11 0 2-.89 2-2 0-1.11-.89-2-2-2-1.11 0-2.01.89-2 2 0 1.11.89 2 2 2zm-4.01-10.99c-5.52 0-10 4.48-10 10s4.48 10 10 10 10-4.48 10-10-4.48-10-10-10zm-6.15 15.11c.68-.54 2.27-1.11 3.66-1.11.07 0 .15.01.23.01.24-.64.67-1.29 1.3-1.86a9.05 9.05 0 00-1.53-.16c-1.3 0-3.39.45-4.73 1.43-.5-1.04-.78-2.2-.78-3.43 0-4.41 3.59-8 8-8s8 3.59 8 8c0 1.2-.27 2.34-.75 3.37-1-.59-2.36-.87-3.24-.87-1.52 0-4.5.81-4.5 2.7v2.78a7.935 7.935 0 01-5.66-2.86z"/></symbol><symbol viewBox="0 0 24 24" id="users_circle" xmlns="http://www.w3.org/2000/svg"><path d="M12.5 10.002c0-1.65-1.35-3-3-3s-3 1.35-3 3 1.35 3 3 3 3-1.35 3-3zm-3 1c-.55 0-1-.45-1-1s.45-1 1-1 1 .45 1 1-.45 1-1 1zm6.5 2c1.11 0 2-.89 2-2 0-1.11-.89-2-2-2-1.11 0-2.01.89-2 2 0 1.11.89 2 2 2zm-4.01-10.99c-5.52 0-10 4.48-10 10s4.48 10 10 10 10-4.48 10-10-4.48-10-10-10zm-6.15 15.11c.68-.54 2.27-1.11 3.66-1.11.07 0 .15.01.23.01.24-.64.67-1.29 1.3-1.86a9.05 9.05 0 00-1.53-.16c-1.3 0-3.39.45-4.73 1.43-.5-1.04-.78-2.2-.78-3.43 0-4.41 3.59-8 8-8s8 3.59 8 8c0 1.2-.27 2.34-.75 3.37-1-.59-2.36-.87-3.24-.87-1.52 0-4.5.81-4.5 2.7v2.78a7.935 7.935 0 01-5.66-2.86z"/></symbol><symbol viewBox="0 0 40 40" id="video" xmlns="http://www.w3.org/2000/svg"><path fill-rule="evenodd" clip-rule="evenodd" d="M0 20C0 8.96 8.96 0 20 0s20 8.96 20 20-8.96 20-20 20S0 31.04 0 20zm28 0l-12-9v18l12-9z"/></symbol><symbol viewBox="0 0 25 15" id="vk" xmlns="http://www.w3.org/2000/svg"><path d="M23.543 1.82c.129-.515 0-.945-.773-.945h-2.536c-.644 0-.945.344-1.117.73 0 0-1.289 3.137-3.094 5.2-.601.558-.859.773-1.203.773-.129 0-.386-.215-.386-.73V1.82c0-.644-.172-.945-.73-.945H9.75c-.43 0-.645.3-.645.602 0 .601.903.73.989 2.449v3.738c0 .816-.13.988-.473.988-.86 0-2.922-3.18-4.168-6.789-.258-.687-.516-.988-1.16-.988H1.758c-.688 0-.86.344-.86.73 0 .688.86 3.997 3.997 8.422 2.105 3.008 5.07 4.598 7.734 4.598 1.59 0 1.805-.344 1.805-.945 0-2.88-.13-3.18.644-3.18.387 0 1.031.215 2.535 1.676 1.719 1.719 2.02 2.449 2.965 2.449h2.535c.73 0 1.075-.344.86-1.074-.473-1.461-3.696-4.555-3.867-4.77-.387-.472-.258-.687 0-1.117 0 0 3.093-4.383 3.437-5.844z"/></symbol><symbol viewBox="0 0 24 24" id="watch" xmlns="http://www.w3.org/2000/svg"><path fill-rule="evenodd" clip-rule="evenodd" d="M11.99 2C6.47 2 2 6.48 2 12s4.47 10 9.99 10C17.52 22 22 17.52 22 12S17.52 2 11.99 2zM12 20c-4.42 0-8-3.58-8-8s3.58-8 8-8 8 3.58 8 8-3.58 8-8 8zM11 7h1.5v5.25l4.5 2.67-.75 1.23L11 13V7z"/></symbol><symbol viewBox="0 0 24 24" id="whatsapp" xmlns="http://www.w3.org/2000/svg"><path d="M18.964 4.946A9.752 9.752 0 0011.955 2c-5.446 0-9.91 4.464-9.91 9.91 0 1.786.49 3.483 1.339 4.956L2 22l5.223-1.34c1.473.76 3.08 1.206 4.732 1.206 5.491 0 10.045-4.464 10.045-9.91 0-2.68-1.16-5.135-3.036-7.01zM11.955 20.17a8.256 8.256 0 01-4.196-1.161l-.268-.179-3.125.849.848-3.036-.223-.313c-.803-1.339-1.25-2.857-1.25-4.42 0-4.508 3.705-8.214 8.259-8.214 2.188 0 4.241.849 5.804 2.411 1.562 1.563 2.5 3.616 2.5 5.848 0 4.51-3.795 8.215-8.349 8.215zm4.554-6.161a55.096 55.096 0 00-1.697-.804c-.223-.089-.401-.134-.58.134-.134.223-.625.804-.759.982-.178.134-.312.179-.536.045-1.473-.714-2.41-1.295-3.392-2.946-.268-.447.268-.402.714-1.34.09-.178.045-.312 0-.446s-.58-1.34-.759-1.83c-.223-.492-.402-.447-.58-.447h-.447a.837.837 0 00-.67.313c-.223.268-.848.848-.848 2.053 0 1.25.849 2.41.982 2.59.134.133 1.742 2.633 4.242 3.705 1.562.714 2.187.759 2.99.625.447-.045 1.43-.58 1.652-1.16.224-.581.224-1.072.134-1.162-.044-.133-.223-.178-.446-.312z"/></symbol><symbol viewBox="0 0 24 24" id="write-pen" xmlns="http://www.w3.org/2000/svg"><path d="M3 17.253v3.75h3.75l11.06-11.06-3.75-3.75L3 17.253zm17.71-10.21a.996.996 0 000-1.41l-2.34-2.34a.996.996 0 00-1.41 0l-1.83 1.83 3.75 3.75 1.83-1.83z"/></symbol><symbol viewBox="0 0 25 17" id="youtube" xmlns="http://www.w3.org/2000/svg"><path d="M23.715 3.121c-.258-1.031-1.074-1.848-2.063-2.105C19.805.5 12.5.5 12.5.5s-7.348 0-9.195.516C2.316 1.273 1.5 2.09 1.242 3.12.727 4.926.727 8.793.727 8.793s0 3.824.515 5.672a2.866 2.866 0 002.063 2.062C5.152 17 12.5 17 12.5 17s7.305 0 9.152-.473a2.866 2.866 0 002.063-2.062c.515-1.848.515-5.672.515-5.672s0-3.867-.515-5.672zm-13.621 9.152v-6.96l6.101 3.48-6.101 3.48z"/></symbol></svg>